G04 #@! TF.GenerationSoftware,KiCad,Pcbnew,8.0.1-8.0.1-1~ubuntu22.04.1*
G04 #@! TF.CreationDate,2024-04-29T17:17:20+02:00*
G04 #@! TF.ProjectId,0xaxe,30786178-652e-46b6-9963-61645f706362,302*
G04 #@! TF.SameCoordinates,Original*
G04 #@! TF.FileFunction,Paste,Bot*
G04 #@! TF.FilePolarity,Positive*
%FSLAX46Y46*%
G04 Gerber Fmt 4.6, Leading zero omitted, Abs format (unit mm)*
G04 Created by KiCad (PCBNEW 8.0.1-8.0.1-1~ubuntu22.04.1) date 2024-04-29 17:17:20*
%MOMM*%
%LPD*%
G01*
G04 APERTURE LIST*
G04 Aperture macros list*
%AMRoundRect*
0 Rectangle with rounded corners*
0 $1 Rounding radius*
0 $2 $3 $4 $5 $6 $7 $8 $9 X,Y pos of 4 corners*
0 Add a 4 corners polygon primitive as box body*
4,1,4,$2,$3,$4,$5,$6,$7,$8,$9,$2,$3,0*
0 Add four circle primitives for the rounded corners*
1,1,$1+$1,$2,$3*
1,1,$1+$1,$4,$5*
1,1,$1+$1,$6,$7*
1,1,$1+$1,$8,$9*
0 Add four rect primitives between the rounded corners*
20,1,$1+$1,$2,$3,$4,$5,0*
20,1,$1+$1,$4,$5,$6,$7,0*
20,1,$1+$1,$6,$7,$8,$9,0*
20,1,$1+$1,$8,$9,$2,$3,0*%
G04 Aperture macros list end*
%ADD10RoundRect,0.250000X0.475000X-0.250000X0.475000X0.250000X-0.475000X0.250000X-0.475000X-0.250000X0*%
%ADD11RoundRect,0.250000X0.250000X0.475000X-0.250000X0.475000X-0.250000X-0.475000X0.250000X-0.475000X0*%
%ADD12RoundRect,0.250000X-0.475000X0.250000X-0.475000X-0.250000X0.475000X-0.250000X0.475000X0.250000X0*%
%ADD13RoundRect,0.250000X-0.250000X-0.475000X0.250000X-0.475000X0.250000X0.475000X-0.250000X0.475000X0*%
%ADD14RoundRect,0.250000X0.325000X1.100000X-0.325000X1.100000X-0.325000X-1.100000X0.325000X-1.100000X0*%
%ADD15R,0.800000X0.500000*%
%ADD16R,0.800000X0.400000*%
%ADD17RoundRect,0.250000X-0.262500X-0.450000X0.262500X-0.450000X0.262500X0.450000X-0.262500X0.450000X0*%
%ADD18RoundRect,0.150000X-0.150000X0.587500X-0.150000X-0.587500X0.150000X-0.587500X0.150000X0.587500X0*%
%ADD19RoundRect,0.250000X0.262500X0.450000X-0.262500X0.450000X-0.262500X-0.450000X0.262500X-0.450000X0*%
%ADD20R,1.000000X0.900000*%
%ADD21RoundRect,0.250000X0.650000X-0.325000X0.650000X0.325000X-0.650000X0.325000X-0.650000X-0.325000X0*%
%ADD22RoundRect,0.250000X0.450000X-0.262500X0.450000X0.262500X-0.450000X0.262500X-0.450000X-0.262500X0*%
%ADD23RoundRect,0.250000X-0.450000X0.262500X-0.450000X-0.262500X0.450000X-0.262500X0.450000X0.262500X0*%
%ADD24R,1.900000X1.300000*%
%ADD25R,1.900000X2.000000*%
%ADD26R,0.650000X2.760000*%
%ADD27RoundRect,0.100000X0.100000X-0.225000X0.100000X0.225000X-0.100000X0.225000X-0.100000X-0.225000X0*%
%ADD28RoundRect,0.250000X0.325000X0.650000X-0.325000X0.650000X-0.325000X-0.650000X0.325000X-0.650000X0*%
%ADD29RoundRect,0.150000X-0.825000X-0.150000X0.825000X-0.150000X0.825000X0.150000X-0.825000X0.150000X0*%
%ADD30R,2.760000X0.650000*%
G04 APERTURE END LIST*
D10*
X99284200Y-143711500D03*
X99284200Y-141811500D03*
D11*
X89674000Y-111873900D03*
X87774000Y-111873900D03*
X78157000Y-126075900D03*
X76257000Y-126075900D03*
D12*
X75234800Y-150002200D03*
X75234800Y-151902200D03*
D13*
X76357000Y-106003900D03*
X78257000Y-106003900D03*
D11*
X78091000Y-117996900D03*
X76191000Y-117996900D03*
X116160000Y-143763300D03*
X114260000Y-143763300D03*
X78207000Y-104003900D03*
X76307000Y-104003900D03*
D14*
X87749000Y-139319900D03*
X84799000Y-139319900D03*
D12*
X104824000Y-83653900D03*
X104824000Y-85553900D03*
D11*
X77942000Y-136157900D03*
X76042000Y-136157900D03*
X76275000Y-130100000D03*
X74375000Y-130100000D03*
D10*
X72594400Y-127938500D03*
X72594400Y-126038500D03*
X85894400Y-127863500D03*
X85894400Y-125963500D03*
D11*
X77974000Y-142158900D03*
X76074000Y-142158900D03*
X89674000Y-115873900D03*
X87774000Y-115873900D03*
X104603000Y-139967500D03*
X102703000Y-139967500D03*
D12*
X96947400Y-141811500D03*
X96947400Y-143711500D03*
D15*
X108951600Y-58172200D03*
D16*
X108951600Y-57372200D03*
X108951600Y-56572200D03*
D15*
X108951600Y-55772200D03*
X107151600Y-55772200D03*
D16*
X107151600Y-56572200D03*
X107151600Y-57372200D03*
D15*
X107151600Y-58172200D03*
D12*
X110186400Y-141682500D03*
X110186400Y-143582500D03*
D11*
X77964000Y-138189900D03*
X76064000Y-138189900D03*
D10*
X95931400Y-150025900D03*
X95931400Y-148125900D03*
D11*
X89624000Y-95903900D03*
X87724000Y-95903900D03*
X91274000Y-142083900D03*
X89374000Y-142083900D03*
D12*
X72645200Y-100028900D03*
X72645200Y-101928900D03*
D15*
X131350000Y-52100000D03*
D16*
X131350000Y-52900000D03*
X131350000Y-53700000D03*
D15*
X131350000Y-54500000D03*
X133150000Y-54500000D03*
D16*
X133150000Y-53700000D03*
X133150000Y-52900000D03*
D15*
X133150000Y-52100000D03*
D12*
X72696000Y-116234100D03*
X72696000Y-118134100D03*
X85945200Y-99953900D03*
X85945200Y-101853900D03*
X70257600Y-110138100D03*
X70257600Y-112038100D03*
D11*
X116252000Y-97620900D03*
X114352000Y-97620900D03*
D17*
X90016500Y-77240900D03*
X91841500Y-77240900D03*
D12*
X79674000Y-90478900D03*
X79674000Y-92378900D03*
D11*
X102963000Y-95749900D03*
X101063000Y-95749900D03*
D13*
X100924500Y-81650000D03*
X102824500Y-81650000D03*
D18*
X89905000Y-71381000D03*
X91805000Y-71381000D03*
X90855000Y-73256000D03*
D12*
X99182600Y-132042700D03*
X99182600Y-133942700D03*
X69495600Y-93882100D03*
X69495600Y-95782100D03*
D11*
X118135000Y-107645900D03*
X116235000Y-107645900D03*
D19*
X100025500Y-104465900D03*
X98200500Y-104465900D03*
D12*
X105841000Y-147278900D03*
X105841000Y-149178900D03*
X82795600Y-93807100D03*
X82795600Y-95707100D03*
X75474000Y-91253900D03*
X75474000Y-93153900D03*
D14*
X74449000Y-139394900D03*
X71499000Y-139394900D03*
D12*
X115080000Y-149699900D03*
X115080000Y-151599900D03*
D11*
X117842000Y-133767900D03*
X115942000Y-133767900D03*
D12*
X77474000Y-91253900D03*
X77474000Y-93153900D03*
X101854000Y-149849800D03*
X101854000Y-151749800D03*
D10*
X85996000Y-112013900D03*
X85996000Y-110113900D03*
D13*
X109224000Y-88653900D03*
X111124000Y-88653900D03*
X89657000Y-105928900D03*
X91557000Y-105928900D03*
D14*
X114327000Y-139036900D03*
X111377000Y-139036900D03*
D11*
X91264000Y-140121500D03*
X89364000Y-140121500D03*
D13*
X82824000Y-89053900D03*
X84724000Y-89053900D03*
D11*
X91457000Y-126000900D03*
X89557000Y-126000900D03*
D12*
X119080000Y-147149900D03*
X119080000Y-149049900D03*
D11*
X91507000Y-103928900D03*
X89607000Y-103928900D03*
D15*
X92699000Y-50565200D03*
D16*
X92699000Y-51365200D03*
X92699000Y-52165200D03*
D15*
X92699000Y-52965200D03*
X94499000Y-52965200D03*
D16*
X94499000Y-52165200D03*
X94499000Y-51365200D03*
D15*
X94499000Y-50565200D03*
D12*
X110200000Y-125809500D03*
X110200000Y-127709500D03*
D11*
X76374000Y-115948900D03*
X74474000Y-115948900D03*
D20*
X69385800Y-90856700D03*
X71535800Y-90856700D03*
X71535800Y-92406700D03*
X69385800Y-92406700D03*
D15*
X107126200Y-50565200D03*
D16*
X107126200Y-51365200D03*
X107126200Y-52165200D03*
D15*
X107126200Y-52965200D03*
X108926200Y-52965200D03*
D16*
X108926200Y-52165200D03*
X108926200Y-51365200D03*
D15*
X108926200Y-50565200D03*
D11*
X76324000Y-99978900D03*
X74424000Y-99978900D03*
D13*
X102996000Y-105774900D03*
X104896000Y-105774900D03*
D11*
X91391000Y-121985900D03*
X89491000Y-121985900D03*
X76374000Y-113948900D03*
X74474000Y-113948900D03*
D12*
X112421600Y-131913700D03*
X112421600Y-133813700D03*
X115352000Y-90895900D03*
X115352000Y-92795900D03*
X92823000Y-150932900D03*
X92823000Y-152832900D03*
D11*
X104730000Y-121831900D03*
X102830000Y-121831900D03*
D10*
X110186400Y-101555700D03*
X110186400Y-99655700D03*
D21*
X110349000Y-86824000D03*
X110349000Y-83874000D03*
D15*
X87593600Y-50565200D03*
D16*
X87593600Y-51365200D03*
X87593600Y-52165200D03*
D15*
X87593600Y-52965200D03*
X89393600Y-52965200D03*
D16*
X89393600Y-52165200D03*
X89393600Y-51365200D03*
D15*
X89393600Y-50565200D03*
D19*
X86786500Y-136719900D03*
X84961500Y-136719900D03*
D11*
X102900000Y-129875000D03*
X101000000Y-129875000D03*
D10*
X83608400Y-101838700D03*
X83608400Y-99938700D03*
D12*
X119552000Y-90120900D03*
X119552000Y-92020900D03*
X97941000Y-148146300D03*
X97941000Y-150046300D03*
D15*
X112231600Y-50565200D03*
D16*
X112231600Y-51365200D03*
X112231600Y-52165200D03*
D15*
X112231600Y-52965200D03*
X114031600Y-52965200D03*
D16*
X114031600Y-52165200D03*
X114031600Y-51365200D03*
D15*
X114031600Y-50565200D03*
D11*
X116150000Y-131749900D03*
X114250000Y-131749900D03*
X116202000Y-99620900D03*
X114302000Y-99620900D03*
D17*
X69600000Y-153500000D03*
X71425000Y-153500000D03*
D10*
X71474000Y-95832900D03*
X71474000Y-93932900D03*
D22*
X73200000Y-155500000D03*
X73200000Y-153675000D03*
D10*
X84774000Y-95757900D03*
X84774000Y-93857900D03*
D19*
X86686500Y-104819900D03*
X84861500Y-104819900D03*
X113435700Y-121753700D03*
X111610700Y-121753700D03*
D12*
X104113000Y-91024900D03*
X104113000Y-92924900D03*
D20*
X82685800Y-90781700D03*
X84835800Y-90781700D03*
X84835800Y-92331700D03*
X82685800Y-92331700D03*
D10*
X110186400Y-133778100D03*
X110186400Y-131878100D03*
D11*
X76275000Y-128107900D03*
X74375000Y-128107900D03*
D10*
X69292400Y-150254900D03*
X69292400Y-148354900D03*
D13*
X89850000Y-69300000D03*
X91750000Y-69300000D03*
D11*
X76374000Y-97978900D03*
X74474000Y-97978900D03*
D10*
X85945200Y-143865500D03*
X85945200Y-141965500D03*
D11*
X116202000Y-95620900D03*
X114302000Y-95620900D03*
D23*
X73237000Y-150251400D03*
X73237000Y-152076400D03*
D12*
X119352000Y-93620900D03*
X119352000Y-95520900D03*
D11*
X103013000Y-111719900D03*
X101113000Y-111719900D03*
D22*
X100700000Y-155812500D03*
X100700000Y-153987500D03*
D10*
X109155200Y-149896900D03*
X109155200Y-147996900D03*
D19*
X113264500Y-104536900D03*
X111439500Y-104536900D03*
D11*
X91567000Y-109913900D03*
X89667000Y-109913900D03*
X103013000Y-115719900D03*
X101113000Y-115719900D03*
D12*
X85996000Y-116159100D03*
X85996000Y-118059100D03*
X112574000Y-115876100D03*
X112574000Y-117776100D03*
D11*
X118145000Y-109630900D03*
X116245000Y-109630900D03*
D19*
X100125500Y-136565900D03*
X98300500Y-136565900D03*
D11*
X89674000Y-113873900D03*
X87774000Y-113873900D03*
D10*
X112472400Y-127580500D03*
X112472400Y-125680500D03*
X111352000Y-95474900D03*
X111352000Y-93574900D03*
D19*
X73557700Y-122111700D03*
X71732700Y-122111700D03*
D12*
X117090000Y-149699900D03*
X117090000Y-151599900D03*
D10*
X96947400Y-133907100D03*
X96947400Y-132007100D03*
D12*
X109373600Y-93524100D03*
X109373600Y-95424100D03*
D11*
X116160000Y-147763300D03*
X114260000Y-147763300D03*
D12*
X92502000Y-147432900D03*
X92502000Y-149332900D03*
D11*
X104581000Y-135928900D03*
X102681000Y-135928900D03*
D10*
X82592400Y-150179900D03*
X82592400Y-148279900D03*
D11*
X102921000Y-147892300D03*
X101021000Y-147892300D03*
D23*
X113099000Y-149742900D03*
X113099000Y-151567900D03*
D12*
X96998200Y-125809500D03*
X96998200Y-127709500D03*
D11*
X117969000Y-123734900D03*
X116069000Y-123734900D03*
D10*
X96947400Y-101684700D03*
X96947400Y-99784700D03*
D11*
X104603000Y-137960900D03*
X102703000Y-137960900D03*
D24*
X93850000Y-73750000D03*
D25*
X98950000Y-72600000D03*
D24*
X93850000Y-71450000D03*
D11*
X78157000Y-102003900D03*
X76257000Y-102003900D03*
D12*
X88544400Y-150078400D03*
X88544400Y-151978400D03*
D11*
X77964000Y-140196500D03*
X76064000Y-140196500D03*
D12*
X96134600Y-93653100D03*
X96134600Y-95553100D03*
D11*
X118035000Y-101645900D03*
X116135000Y-101645900D03*
X91775500Y-79200000D03*
X89875500Y-79200000D03*
D10*
X110186400Y-117776100D03*
X110186400Y-115876100D03*
D26*
X56591200Y-40029000D03*
X56591200Y-44069000D03*
X57861200Y-40029000D03*
X57861200Y-44069000D03*
X59131200Y-40029000D03*
X59131200Y-44069000D03*
X60401200Y-40029000D03*
X60401200Y-44069000D03*
X61671200Y-40029000D03*
X61671200Y-44069000D03*
D12*
X79935000Y-151007900D03*
X79935000Y-152907900D03*
D11*
X102921000Y-145892300D03*
X101021000Y-145892300D03*
D19*
X100196700Y-121882700D03*
X98371700Y-121882700D03*
D11*
X117969000Y-121702900D03*
X116069000Y-121702900D03*
D23*
X99909600Y-149892300D03*
X99909600Y-151717300D03*
D11*
X76282000Y-148121300D03*
X74382000Y-148121300D03*
D20*
X96024800Y-90627700D03*
X98174800Y-90627700D03*
X98174800Y-92177700D03*
X96024800Y-92177700D03*
D11*
X116150000Y-127749900D03*
X114250000Y-127749900D03*
D27*
X103030000Y-85553900D03*
X102380000Y-85553900D03*
X101730000Y-85553900D03*
X101730000Y-83653900D03*
X102380000Y-83653900D03*
X103030000Y-83653900D03*
D11*
X78091000Y-122060900D03*
X76191000Y-122060900D03*
X116150000Y-129749900D03*
X114250000Y-129749900D03*
X91391000Y-117921900D03*
X89491000Y-117921900D03*
D19*
X113364500Y-136436900D03*
X111539500Y-136436900D03*
D11*
X76282000Y-144121300D03*
X74382000Y-144121300D03*
X91557000Y-107928900D03*
X89657000Y-107928900D03*
X78257000Y-108003900D03*
X76357000Y-108003900D03*
D12*
X106574000Y-150778900D03*
X106574000Y-152678900D03*
D13*
X96024000Y-88853900D03*
X97924000Y-88853900D03*
D10*
X99335000Y-111859900D03*
X99335000Y-109959900D03*
D14*
X87949000Y-107419900D03*
X84999000Y-107419900D03*
D11*
X89582000Y-146046300D03*
X87682000Y-146046300D03*
D19*
X102787000Y-79700000D03*
X100962000Y-79700000D03*
D11*
X117820000Y-135799900D03*
X115920000Y-135799900D03*
X102900000Y-131875000D03*
X101000000Y-131875000D03*
D27*
X116124000Y-85503900D03*
X115474000Y-85503900D03*
X114824000Y-85503900D03*
X114824000Y-83603900D03*
X115474000Y-83603900D03*
X116124000Y-83603900D03*
D12*
X79202000Y-147507900D03*
X79202000Y-149407900D03*
D11*
X104730000Y-119799900D03*
X102830000Y-119799900D03*
D10*
X112574000Y-111730900D03*
X112574000Y-109830900D03*
D13*
X95524000Y-85453900D03*
X97424000Y-85453900D03*
D10*
X98113000Y-95603900D03*
X98113000Y-93703900D03*
D15*
X126150000Y-52100000D03*
D16*
X126150000Y-52900000D03*
X126150000Y-53700000D03*
D15*
X126150000Y-54500000D03*
X127950000Y-54500000D03*
D16*
X127950000Y-53700000D03*
X127950000Y-52900000D03*
D15*
X127950000Y-52100000D03*
D12*
X85843600Y-132196700D03*
X85843600Y-134096700D03*
D11*
X89575000Y-132032900D03*
X87675000Y-132032900D03*
D13*
X100901000Y-77748900D03*
X102801000Y-77748900D03*
D15*
X89419000Y-58172200D03*
D16*
X89419000Y-57372200D03*
X89419000Y-56572200D03*
D15*
X89419000Y-55772200D03*
X87619000Y-55772200D03*
D16*
X87619000Y-56572200D03*
X87619000Y-57372200D03*
D15*
X87619000Y-58172200D03*
D12*
X90774000Y-91178900D03*
X90774000Y-93078900D03*
X94074000Y-121103900D03*
X94074000Y-123003900D03*
D11*
X116160000Y-145763300D03*
X114260000Y-145763300D03*
D10*
X72645200Y-143940500D03*
X72645200Y-142040500D03*
D11*
X76324000Y-95978900D03*
X74424000Y-95978900D03*
X117842000Y-139838500D03*
X115942000Y-139838500D03*
X77964000Y-134125900D03*
X76064000Y-134125900D03*
D19*
X86857700Y-122036700D03*
X85032700Y-122036700D03*
D11*
X91391000Y-119953900D03*
X89491000Y-119953900D03*
X78091000Y-120028900D03*
X76191000Y-120028900D03*
D12*
X110135600Y-109780100D03*
X110135600Y-111680100D03*
D14*
X114527000Y-107136900D03*
X111577000Y-107136900D03*
D22*
X98800000Y-155800000D03*
X98800000Y-153975000D03*
D11*
X89575000Y-130032900D03*
X87675000Y-130032900D03*
D12*
X83557600Y-110063100D03*
X83557600Y-111963100D03*
D10*
X83608400Y-134061100D03*
X83608400Y-132161100D03*
D12*
X72543600Y-132271700D03*
X72543600Y-134171700D03*
D19*
X73386500Y-104994900D03*
X71561500Y-104994900D03*
D12*
X79474000Y-93978900D03*
X79474000Y-95878900D03*
X70308400Y-142040500D03*
X70308400Y-143940500D03*
D11*
X104796000Y-125846900D03*
X102896000Y-125846900D03*
D21*
X84187000Y-86575000D03*
X84187000Y-83625000D03*
D12*
X84602000Y-148300300D03*
X84602000Y-150200300D03*
D11*
X104730000Y-123863900D03*
X102830000Y-123863900D03*
D12*
X92774000Y-93903900D03*
X92774000Y-95803900D03*
D10*
X70308400Y-101913700D03*
X70308400Y-100013700D03*
X112523200Y-143582500D03*
X112523200Y-141682500D03*
D11*
X103013000Y-97749900D03*
X101113000Y-97749900D03*
D10*
X83608400Y-118059100D03*
X83608400Y-116159100D03*
D12*
X92974000Y-90403900D03*
X92974000Y-92303900D03*
D11*
X78091000Y-124092900D03*
X76191000Y-124092900D03*
X91457000Y-101928900D03*
X89557000Y-101928900D03*
D12*
X117974000Y-83603900D03*
X117974000Y-85503900D03*
D10*
X70308400Y-134136100D03*
X70308400Y-132236100D03*
D11*
X104603000Y-133896900D03*
X102703000Y-133896900D03*
X78267000Y-109988900D03*
X76367000Y-109988900D03*
X117969000Y-119670900D03*
X116069000Y-119670900D03*
D15*
X114133200Y-58172200D03*
D16*
X114133200Y-57372200D03*
X114133200Y-56572200D03*
D15*
X114133200Y-55772200D03*
X112333200Y-55772200D03*
D16*
X112333200Y-56572200D03*
X112333200Y-57372200D03*
D15*
X112333200Y-58172200D03*
D12*
X91476800Y-83653900D03*
X91476800Y-85553900D03*
X71302000Y-148375300D03*
X71302000Y-150275300D03*
D28*
X92875000Y-67100000D03*
X89925000Y-67100000D03*
D11*
X102921000Y-143892300D03*
X101021000Y-143892300D03*
D29*
X93849000Y-83613900D03*
X93849000Y-82343900D03*
X93849000Y-81073900D03*
X93849000Y-79803900D03*
X93849000Y-78533900D03*
X93849000Y-77263900D03*
X93849000Y-75993900D03*
X98799000Y-75993900D03*
X98799000Y-77263900D03*
X98799000Y-78533900D03*
X98799000Y-79803900D03*
X98799000Y-81073900D03*
X98799000Y-82343900D03*
X98799000Y-83613900D03*
D11*
X89582000Y-144046300D03*
X87682000Y-144046300D03*
D13*
X116235000Y-105645900D03*
X118135000Y-105645900D03*
D12*
X90512000Y-149982900D03*
X90512000Y-151882900D03*
X106113000Y-93749900D03*
X106113000Y-95649900D03*
D11*
X91391000Y-124017900D03*
X89491000Y-124017900D03*
D12*
X88774000Y-91178900D03*
X88774000Y-93078900D03*
D11*
X117842000Y-137831900D03*
X115942000Y-137831900D03*
D13*
X69324000Y-89053900D03*
X71224000Y-89053900D03*
D11*
X116252000Y-111590900D03*
X114352000Y-111590900D03*
D27*
X76368000Y-85503900D03*
X75718000Y-85503900D03*
X75068000Y-85503900D03*
X75068000Y-83603900D03*
X75718000Y-83603900D03*
X76368000Y-83603900D03*
D11*
X104906000Y-109759900D03*
X103006000Y-109759900D03*
X91264000Y-134050900D03*
X89364000Y-134050900D03*
X104846000Y-103774900D03*
X102946000Y-103774900D03*
X117852000Y-141800900D03*
X115952000Y-141800900D03*
X102900000Y-127875000D03*
X101000000Y-127875000D03*
D22*
X85300000Y-155912500D03*
X85300000Y-154087500D03*
D12*
X99335000Y-116005100D03*
X99335000Y-117905100D03*
D23*
X86539000Y-150049400D03*
X86539000Y-151874400D03*
D11*
X89624000Y-99903900D03*
X87724000Y-99903900D03*
D12*
X78218000Y-83603900D03*
X78218000Y-85503900D03*
D11*
X104896000Y-107774900D03*
X102996000Y-107774900D03*
X89575000Y-128025000D03*
X87675000Y-128025000D03*
X76282000Y-146121300D03*
X74382000Y-146121300D03*
D12*
X112523200Y-99670900D03*
X112523200Y-101570900D03*
D11*
X118085000Y-103645900D03*
X116185000Y-103645900D03*
X89582000Y-148046300D03*
X87682000Y-148046300D03*
D12*
X111136400Y-148017300D03*
X111136400Y-149917300D03*
D11*
X91242000Y-136082900D03*
X89342000Y-136082900D03*
D12*
X106313000Y-90249900D03*
X106313000Y-92149900D03*
D14*
X101088000Y-139165900D03*
X98138000Y-139165900D03*
D22*
X87200000Y-155900000D03*
X87200000Y-154075000D03*
D19*
X73486500Y-136794900D03*
X71661500Y-136794900D03*
D11*
X118035000Y-125717900D03*
X116135000Y-125717900D03*
X116252000Y-113590900D03*
X114352000Y-113590900D03*
D30*
X97282000Y-29768800D03*
X93242000Y-29768800D03*
X97282000Y-31038800D03*
X93242000Y-31038800D03*
X97282000Y-32308800D03*
X93242000Y-32308800D03*
X97282000Y-33578800D03*
X93242000Y-33578800D03*
X97282000Y-34848800D03*
X93242000Y-34848800D03*
D14*
X101288000Y-107065900D03*
X98338000Y-107065900D03*
D10*
X70308400Y-118134100D03*
X70308400Y-116234100D03*
D11*
X102963000Y-99749900D03*
X101063000Y-99749900D03*
D12*
X83608400Y-141965500D03*
X83608400Y-143865500D03*
D11*
X104730000Y-117767900D03*
X102830000Y-117767900D03*
X103013000Y-113719900D03*
X101113000Y-113719900D03*
X76275000Y-132100000D03*
X74375000Y-132100000D03*
X104613000Y-141929900D03*
X102713000Y-141929900D03*
D10*
X72696000Y-112088900D03*
X72696000Y-110188900D03*
D11*
X116252000Y-115590900D03*
X114352000Y-115590900D03*
D12*
X119813000Y-150649900D03*
X119813000Y-152549900D03*
X103851000Y-149828900D03*
X103851000Y-151728900D03*
X70359200Y-126038500D03*
X70359200Y-127938500D03*
D11*
X76374000Y-111948900D03*
X74474000Y-111948900D03*
D27*
X89724000Y-85553900D03*
X89074000Y-85553900D03*
X88424000Y-85553900D03*
X88424000Y-83653900D03*
X89074000Y-83653900D03*
X89724000Y-83653900D03*
D15*
X133150000Y-59000000D03*
D16*
X133150000Y-58200000D03*
X133150000Y-57400000D03*
D15*
X133150000Y-56600000D03*
X131350000Y-56600000D03*
D16*
X131350000Y-57400000D03*
X131350000Y-58200000D03*
D15*
X131350000Y-59000000D03*
D10*
X96947400Y-117905100D03*
X96947400Y-116005100D03*
D19*
X102812500Y-75800000D03*
X100987500Y-75800000D03*
D11*
X104796000Y-101774900D03*
X102896000Y-101774900D03*
D22*
X73456800Y-90980900D03*
X73456800Y-89155900D03*
D12*
X102113000Y-91024900D03*
X102113000Y-92924900D03*
D11*
X89674000Y-97903900D03*
X87774000Y-97903900D03*
D20*
X109263800Y-90498700D03*
X111413800Y-90498700D03*
X111413800Y-92048700D03*
X109263800Y-92048700D03*
D17*
X89913000Y-81150000D03*
X91738000Y-81150000D03*
D12*
X99284200Y-99799900D03*
X99284200Y-101699900D03*
D10*
X99233400Y-127709500D03*
X99233400Y-125809500D03*
D12*
X77212000Y-150057900D03*
X77212000Y-151957900D03*
D11*
X117969000Y-117638900D03*
X116069000Y-117638900D03*
D15*
X127950000Y-59000000D03*
D16*
X127950000Y-58200000D03*
X127950000Y-57400000D03*
D15*
X127950000Y-56600000D03*
X126150000Y-56600000D03*
D16*
X126150000Y-57400000D03*
X126150000Y-58200000D03*
D15*
X126150000Y-59000000D03*
X94524400Y-58172200D03*
D16*
X94524400Y-57372200D03*
X94524400Y-56572200D03*
D15*
X94524400Y-55772200D03*
X92724400Y-55772200D03*
D16*
X92724400Y-56572200D03*
X92724400Y-57372200D03*
D15*
X92724400Y-58172200D03*
D12*
X117352000Y-90895900D03*
X117352000Y-92795900D03*
D14*
X74649000Y-107594900D03*
X71699000Y-107594900D03*
D11*
X91264000Y-138114900D03*
X89364000Y-138114900D03*
D12*
X96896600Y-109909100D03*
X96896600Y-111809100D03*
D11*
X91800000Y-75300000D03*
X89900000Y-75300000D03*
D17*
X95587500Y-73800000D03*
X97412500Y-73800000D03*
D19*
X97312500Y-71400000D03*
X95487500Y-71400000D03*
D12*
X83659200Y-125963500D03*
X83659200Y-127863500D03*
M02*
