G04 #@! TF.GenerationSoftware,KiCad,Pcbnew,8.0.1-8.0.1-1~ubuntu22.04.1*
G04 #@! TF.CreationDate,2024-04-03T21:03:16+02:00*
G04 #@! TF.ProjectId,0xaxe,30786178-652e-46b6-9963-61645f706362,302*
G04 #@! TF.SameCoordinates,Original*
G04 #@! TF.FileFunction,Legend,Bot*
G04 #@! TF.FilePolarity,Positive*
%FSLAX46Y46*%
G04 Gerber Fmt 4.6, Leading zero omitted, Abs format (unit mm)*
G04 Created by KiCad (PCBNEW 8.0.1-8.0.1-1~ubuntu22.04.1) date 2024-04-03 21:03:16*
%MOMM*%
%LPD*%
G01*
G04 APERTURE LIST*
G04 Aperture macros list*
%AMRoundRect*
0 Rectangle with rounded corners*
0 $1 Rounding radius*
0 $2 $3 $4 $5 $6 $7 $8 $9 X,Y pos of 4 corners*
0 Add a 4 corners polygon primitive as box body*
4,1,4,$2,$3,$4,$5,$6,$7,$8,$9,$2,$3,0*
0 Add four circle primitives for the rounded corners*
1,1,$1+$1,$2,$3*
1,1,$1+$1,$4,$5*
1,1,$1+$1,$6,$7*
1,1,$1+$1,$8,$9*
0 Add four rect primitives between the rounded corners*
20,1,$1+$1,$2,$3,$4,$5,0*
20,1,$1+$1,$4,$5,$6,$7,0*
20,1,$1+$1,$6,$7,$8,$9,0*
20,1,$1+$1,$8,$9,$2,$3,0*%
G04 Aperture macros list end*
%ADD10C,0.120000*%
%ADD11C,1.500000*%
%ADD12C,3.500000*%
%ADD13C,0.800000*%
%ADD14C,6.400000*%
%ADD15C,1.100000*%
%ADD16R,2.030000X1.730000*%
%ADD17O,2.030000X1.730000*%
%ADD18C,3.600000*%
%ADD19C,0.650000*%
%ADD20O,1.000000X2.100000*%
%ADD21O,1.000000X1.800000*%
%ADD22R,1.700000X1.700000*%
%ADD23O,1.700000X1.700000*%
%ADD24R,2.600000X2.600000*%
%ADD25C,2.600000*%
%ADD26RoundRect,0.250000X0.475000X-0.250000X0.475000X0.250000X-0.475000X0.250000X-0.475000X-0.250000X0*%
%ADD27RoundRect,0.250000X0.250000X0.475000X-0.250000X0.475000X-0.250000X-0.475000X0.250000X-0.475000X0*%
%ADD28RoundRect,0.250000X-0.475000X0.250000X-0.475000X-0.250000X0.475000X-0.250000X0.475000X0.250000X0*%
%ADD29RoundRect,0.250000X-0.250000X-0.475000X0.250000X-0.475000X0.250000X0.475000X-0.250000X0.475000X0*%
%ADD30RoundRect,0.250000X0.325000X1.100000X-0.325000X1.100000X-0.325000X-1.100000X0.325000X-1.100000X0*%
%ADD31RoundRect,0.250000X-0.262500X-0.450000X0.262500X-0.450000X0.262500X0.450000X-0.262500X0.450000X0*%
%ADD32RoundRect,0.150000X-0.150000X0.587500X-0.150000X-0.587500X0.150000X-0.587500X0.150000X0.587500X0*%
%ADD33RoundRect,0.250000X0.362500X1.425000X-0.362500X1.425000X-0.362500X-1.425000X0.362500X-1.425000X0*%
%ADD34RoundRect,0.250000X0.262500X0.450000X-0.262500X0.450000X-0.262500X-0.450000X0.262500X-0.450000X0*%
%ADD35R,1.000000X0.900000*%
%ADD36RoundRect,0.250000X0.650000X-0.325000X0.650000X0.325000X-0.650000X0.325000X-0.650000X-0.325000X0*%
%ADD37RoundRect,0.250000X-0.450000X0.262500X-0.450000X-0.262500X0.450000X-0.262500X0.450000X0.262500X0*%
%ADD38R,1.900000X1.300000*%
%ADD39R,1.900000X2.000000*%
%ADD40R,0.400000X0.650000*%
%ADD41RoundRect,0.250000X0.325000X0.650000X-0.325000X0.650000X-0.325000X-0.650000X0.325000X-0.650000X0*%
%ADD42RoundRect,0.150000X-0.825000X-0.150000X0.825000X-0.150000X0.825000X0.150000X-0.825000X0.150000X0*%
G04 APERTURE END LIST*
D10*
X98549200Y-143022752D02*
X98549200Y-142500248D01*
X100019200Y-143022752D02*
X100019200Y-142500248D01*
X88985252Y-111138900D02*
X88462748Y-111138900D01*
X88985252Y-112608900D02*
X88462748Y-112608900D01*
X77468252Y-125340900D02*
X76945748Y-125340900D01*
X77468252Y-126810900D02*
X76945748Y-126810900D01*
X74467000Y-150746648D02*
X74467000Y-151269152D01*
X75937000Y-150746648D02*
X75937000Y-151269152D01*
X77045748Y-105268900D02*
X77568252Y-105268900D01*
X77045748Y-106738900D02*
X77568252Y-106738900D01*
X77402252Y-117261900D02*
X76879748Y-117261900D01*
X77402252Y-118731900D02*
X76879748Y-118731900D01*
X115471252Y-143028300D02*
X114948748Y-143028300D01*
X115471252Y-144498300D02*
X114948748Y-144498300D01*
X77518252Y-103268900D02*
X76995748Y-103268900D01*
X77518252Y-104738900D02*
X76995748Y-104738900D01*
X86985252Y-137959900D02*
X85562748Y-137959900D01*
X86985252Y-140679900D02*
X85562748Y-140679900D01*
X104089000Y-84865152D02*
X104089000Y-84342648D01*
X105559000Y-84865152D02*
X105559000Y-84342648D01*
X77253252Y-135422900D02*
X76730748Y-135422900D01*
X77253252Y-136892900D02*
X76730748Y-136892900D01*
X75586252Y-129365000D02*
X75063748Y-129365000D01*
X75586252Y-130835000D02*
X75063748Y-130835000D01*
X71859400Y-127249752D02*
X71859400Y-126727248D01*
X73329400Y-127249752D02*
X73329400Y-126727248D01*
X85159400Y-127174752D02*
X85159400Y-126652248D01*
X86629400Y-127174752D02*
X86629400Y-126652248D01*
X77285252Y-141423900D02*
X76762748Y-141423900D01*
X77285252Y-142893900D02*
X76762748Y-142893900D01*
X88985252Y-115138900D02*
X88462748Y-115138900D01*
X88985252Y-116608900D02*
X88462748Y-116608900D01*
X103914252Y-139232500D02*
X103391748Y-139232500D01*
X103914252Y-140702500D02*
X103391748Y-140702500D01*
X96212400Y-142500248D02*
X96212400Y-143022752D01*
X97682400Y-142500248D02*
X97682400Y-143022752D01*
X109451400Y-142371248D02*
X109451400Y-142893752D01*
X110921400Y-142371248D02*
X110921400Y-142893752D01*
X77275252Y-137454900D02*
X76752748Y-137454900D01*
X77275252Y-138924900D02*
X76752748Y-138924900D01*
X95196400Y-149337152D02*
X95196400Y-148814648D01*
X96666400Y-149337152D02*
X96666400Y-148814648D01*
X88935252Y-95168900D02*
X88412748Y-95168900D01*
X88935252Y-96638900D02*
X88412748Y-96638900D01*
X90585252Y-141348900D02*
X90062748Y-141348900D01*
X90585252Y-142818900D02*
X90062748Y-142818900D01*
X71910200Y-100717648D02*
X71910200Y-101240152D01*
X73380200Y-100717648D02*
X73380200Y-101240152D01*
X71961000Y-116922848D02*
X71961000Y-117445352D01*
X73431000Y-116922848D02*
X73431000Y-117445352D01*
X85210200Y-100642648D02*
X85210200Y-101165152D01*
X86680200Y-100642648D02*
X86680200Y-101165152D01*
X69522600Y-110826848D02*
X69522600Y-111349352D01*
X70992600Y-110826848D02*
X70992600Y-111349352D01*
X115563252Y-96885900D02*
X115040748Y-96885900D01*
X115563252Y-98355900D02*
X115040748Y-98355900D01*
X91156064Y-76505900D02*
X90701936Y-76505900D01*
X91156064Y-77975900D02*
X90701936Y-77975900D01*
X78939000Y-91167648D02*
X78939000Y-91690152D01*
X80409000Y-91167648D02*
X80409000Y-91690152D01*
X102274252Y-95014900D02*
X101751748Y-95014900D01*
X102274252Y-96484900D02*
X101751748Y-96484900D01*
X102135752Y-80915000D02*
X101613248Y-80915000D01*
X102135752Y-82385000D02*
X101613248Y-82385000D01*
X89295000Y-70643500D02*
X89295000Y-72318500D01*
X89295000Y-72968500D02*
X89295000Y-72318500D01*
X92415000Y-71668500D02*
X92415000Y-72318500D01*
X92415000Y-72968500D02*
X92415000Y-72318500D01*
X100094736Y-158362000D02*
X104448864Y-158362000D01*
X100094736Y-161782000D02*
X104448864Y-161782000D01*
X98447600Y-132731448D02*
X98447600Y-133253952D01*
X99917600Y-132731448D02*
X99917600Y-133253952D01*
X68760600Y-94570848D02*
X68760600Y-95093352D01*
X70230600Y-94570848D02*
X70230600Y-95093352D01*
X117446252Y-106910900D02*
X116923748Y-106910900D01*
X117446252Y-108380900D02*
X116923748Y-108380900D01*
X99340064Y-103730900D02*
X98885936Y-103730900D01*
X99340064Y-105200900D02*
X98885936Y-105200900D01*
X105106000Y-147967648D02*
X105106000Y-148490152D01*
X106576000Y-147967648D02*
X106576000Y-148490152D01*
X82060600Y-94495848D02*
X82060600Y-95018352D01*
X83530600Y-94495848D02*
X83530600Y-95018352D01*
X74739000Y-91942648D02*
X74739000Y-92465152D01*
X76209000Y-91942648D02*
X76209000Y-92465152D01*
X73685252Y-138034900D02*
X72262748Y-138034900D01*
X73685252Y-140754900D02*
X72262748Y-140754900D01*
X114345000Y-150388648D02*
X114345000Y-150911152D01*
X115815000Y-150388648D02*
X115815000Y-150911152D01*
X117153252Y-133032900D02*
X116630748Y-133032900D01*
X117153252Y-134502900D02*
X116630748Y-134502900D01*
X76739000Y-91942648D02*
X76739000Y-92465152D01*
X78209000Y-91942648D02*
X78209000Y-92465152D01*
X101106000Y-150517648D02*
X101106000Y-151040152D01*
X102576000Y-150517648D02*
X102576000Y-151040152D01*
X85261000Y-111325152D02*
X85261000Y-110802648D01*
X86731000Y-111325152D02*
X86731000Y-110802648D01*
X109912748Y-87918900D02*
X110435252Y-87918900D01*
X109912748Y-89388900D02*
X110435252Y-89388900D01*
X90345748Y-105193900D02*
X90868252Y-105193900D01*
X90345748Y-106663900D02*
X90868252Y-106663900D01*
X113563252Y-137676900D02*
X112140748Y-137676900D01*
X113563252Y-140396900D02*
X112140748Y-140396900D01*
X90575252Y-139386500D02*
X90052748Y-139386500D01*
X90575252Y-140856500D02*
X90052748Y-140856500D01*
X83512748Y-88318900D02*
X84035252Y-88318900D01*
X83512748Y-89788900D02*
X84035252Y-89788900D01*
X90768252Y-125265900D02*
X90245748Y-125265900D01*
X90768252Y-126735900D02*
X90245748Y-126735900D01*
X118345000Y-147838648D02*
X118345000Y-148361152D01*
X119815000Y-147838648D02*
X119815000Y-148361152D01*
X90818252Y-103193900D02*
X90295748Y-103193900D01*
X90818252Y-104663900D02*
X90295748Y-104663900D01*
X75685252Y-115213900D02*
X75162748Y-115213900D01*
X75685252Y-116683900D02*
X75162748Y-116683900D01*
X68625800Y-90146700D02*
X68625800Y-92931700D01*
X68825800Y-90146700D02*
X68625800Y-90146700D01*
X72295800Y-92931700D02*
X72295800Y-90331700D01*
X75635252Y-99243900D02*
X75112748Y-99243900D01*
X75635252Y-100713900D02*
X75112748Y-100713900D01*
X103684748Y-105039900D02*
X104207252Y-105039900D01*
X103684748Y-106509900D02*
X104207252Y-106509900D01*
X90702252Y-121250900D02*
X90179748Y-121250900D01*
X90702252Y-122720900D02*
X90179748Y-122720900D01*
X75685252Y-113213900D02*
X75162748Y-113213900D01*
X75685252Y-114683900D02*
X75162748Y-114683900D01*
X111686600Y-132602448D02*
X111686600Y-133124952D01*
X113156600Y-132602448D02*
X113156600Y-133124952D01*
X114617000Y-91584648D02*
X114617000Y-92107152D01*
X116087000Y-91584648D02*
X116087000Y-92107152D01*
X92088000Y-151621648D02*
X92088000Y-152144152D01*
X93558000Y-151621648D02*
X93558000Y-152144152D01*
X104041252Y-121096900D02*
X103518748Y-121096900D01*
X104041252Y-122566900D02*
X103518748Y-122566900D01*
X109451400Y-100866952D02*
X109451400Y-100344448D01*
X110921400Y-100866952D02*
X110921400Y-100344448D01*
X109439000Y-84637748D02*
X109439000Y-86060252D01*
X111259000Y-84637748D02*
X111259000Y-86060252D01*
X86101064Y-135984900D02*
X85646936Y-135984900D01*
X86101064Y-137454900D02*
X85646936Y-137454900D01*
X102211252Y-129140000D02*
X101688748Y-129140000D01*
X102211252Y-130610000D02*
X101688748Y-130610000D01*
X82873400Y-101149952D02*
X82873400Y-100627448D01*
X84343400Y-101149952D02*
X84343400Y-100627448D01*
X118817000Y-90809648D02*
X118817000Y-91332152D01*
X120287000Y-90809648D02*
X120287000Y-91332152D01*
X97206000Y-148835048D02*
X97206000Y-149357552D01*
X98676000Y-148835048D02*
X98676000Y-149357552D01*
X115461252Y-131014900D02*
X114938748Y-131014900D01*
X115461252Y-132484900D02*
X114938748Y-132484900D01*
X115513252Y-98885900D02*
X114990748Y-98885900D01*
X115513252Y-100355900D02*
X114990748Y-100355900D01*
X70739000Y-95144152D02*
X70739000Y-94621648D01*
X72209000Y-95144152D02*
X72209000Y-94621648D01*
X84039000Y-95069152D02*
X84039000Y-94546648D01*
X85509000Y-95069152D02*
X85509000Y-94546648D01*
X86001064Y-104084900D02*
X85546936Y-104084900D01*
X86001064Y-105554900D02*
X85546936Y-105554900D01*
X112750264Y-121018700D02*
X112296136Y-121018700D01*
X112750264Y-122488700D02*
X112296136Y-122488700D01*
X103378000Y-91713648D02*
X103378000Y-92236152D01*
X104848000Y-91713648D02*
X104848000Y-92236152D01*
X81925800Y-90071700D02*
X81925800Y-92856700D01*
X82125800Y-90071700D02*
X81925800Y-90071700D01*
X85595800Y-92856700D02*
X85595800Y-90256700D01*
X109451400Y-133089352D02*
X109451400Y-132566848D01*
X110921400Y-133089352D02*
X110921400Y-132566848D01*
X75586252Y-127372900D02*
X75063748Y-127372900D01*
X75586252Y-128842900D02*
X75063748Y-128842900D01*
X68557400Y-149566152D02*
X68557400Y-149043648D01*
X70027400Y-149566152D02*
X70027400Y-149043648D01*
X91061252Y-68565000D02*
X90538748Y-68565000D01*
X91061252Y-70035000D02*
X90538748Y-70035000D01*
X75685252Y-97243900D02*
X75162748Y-97243900D01*
X75685252Y-98713900D02*
X75162748Y-98713900D01*
X85210200Y-143176752D02*
X85210200Y-142654248D01*
X86680200Y-143176752D02*
X86680200Y-142654248D01*
X115513252Y-94885900D02*
X114990748Y-94885900D01*
X115513252Y-96355900D02*
X114990748Y-96355900D01*
X72502000Y-150936836D02*
X72502000Y-151390964D01*
X73972000Y-150936836D02*
X73972000Y-151390964D01*
X118617000Y-94309648D02*
X118617000Y-94832152D01*
X120087000Y-94309648D02*
X120087000Y-94832152D01*
X102324252Y-110984900D02*
X101801748Y-110984900D01*
X102324252Y-112454900D02*
X101801748Y-112454900D01*
X100012000Y-154009836D02*
X100012000Y-154463964D01*
X101482000Y-154009836D02*
X101482000Y-154463964D01*
X108420200Y-149208152D02*
X108420200Y-148685648D01*
X109890200Y-149208152D02*
X109890200Y-148685648D01*
X112579064Y-103801900D02*
X112124936Y-103801900D01*
X112579064Y-105271900D02*
X112124936Y-105271900D01*
X90878252Y-109178900D02*
X90355748Y-109178900D01*
X90878252Y-110648900D02*
X90355748Y-110648900D01*
X102324252Y-114984900D02*
X101801748Y-114984900D01*
X102324252Y-116454900D02*
X101801748Y-116454900D01*
X85261000Y-116847848D02*
X85261000Y-117370352D01*
X86731000Y-116847848D02*
X86731000Y-117370352D01*
X111839000Y-116564848D02*
X111839000Y-117087352D01*
X113309000Y-116564848D02*
X113309000Y-117087352D01*
X117456252Y-108895900D02*
X116933748Y-108895900D01*
X117456252Y-110365900D02*
X116933748Y-110365900D01*
X99440064Y-135830900D02*
X98985936Y-135830900D01*
X99440064Y-137300900D02*
X98985936Y-137300900D01*
X88985252Y-113138900D02*
X88462748Y-113138900D01*
X88985252Y-114608900D02*
X88462748Y-114608900D01*
X111737400Y-126891752D02*
X111737400Y-126369248D01*
X113207400Y-126891752D02*
X113207400Y-126369248D01*
X110617000Y-94786152D02*
X110617000Y-94263648D01*
X112087000Y-94786152D02*
X112087000Y-94263648D01*
X72872264Y-121376700D02*
X72418136Y-121376700D01*
X72872264Y-122846700D02*
X72418136Y-122846700D01*
X116355000Y-150388648D02*
X116355000Y-150911152D01*
X117825000Y-150388648D02*
X117825000Y-150911152D01*
X96212400Y-133218352D02*
X96212400Y-132695848D01*
X97682400Y-133218352D02*
X97682400Y-132695848D01*
X108638600Y-94212848D02*
X108638600Y-94735352D01*
X110108600Y-94212848D02*
X110108600Y-94735352D01*
X115471252Y-147028300D02*
X114948748Y-147028300D01*
X115471252Y-148498300D02*
X114948748Y-148498300D01*
X91767000Y-148121648D02*
X91767000Y-148644152D01*
X93237000Y-148121648D02*
X93237000Y-148644152D01*
X103892252Y-135193900D02*
X103369748Y-135193900D01*
X103892252Y-136663900D02*
X103369748Y-136663900D01*
X81857400Y-149491152D02*
X81857400Y-148968648D01*
X83327400Y-149491152D02*
X83327400Y-148968648D01*
X102232252Y-147157300D02*
X101709748Y-147157300D01*
X102232252Y-148627300D02*
X101709748Y-148627300D01*
X112364000Y-150428336D02*
X112364000Y-150882464D01*
X113834000Y-150428336D02*
X113834000Y-150882464D01*
X96263200Y-126498248D02*
X96263200Y-127020752D01*
X97733200Y-126498248D02*
X97733200Y-127020752D01*
X117280252Y-122999900D02*
X116757748Y-122999900D01*
X117280252Y-124469900D02*
X116757748Y-124469900D01*
X96212400Y-100995952D02*
X96212400Y-100473448D01*
X97682400Y-100995952D02*
X97682400Y-100473448D01*
X103914252Y-137225900D02*
X103391748Y-137225900D01*
X103914252Y-138695900D02*
X103391748Y-138695900D01*
X94530000Y-70561000D02*
X94530000Y-69980000D01*
X94530000Y-72860000D02*
X94530000Y-72340000D01*
X94530000Y-75020000D02*
X94530000Y-74640000D01*
X98270000Y-69980000D02*
X94530000Y-69980000D01*
X98270000Y-71360000D02*
X98270000Y-69980000D01*
X98270000Y-75020000D02*
X94530000Y-75020000D01*
X98270000Y-75020000D02*
X98270000Y-73840000D01*
X77468252Y-101268900D02*
X76945748Y-101268900D01*
X77468252Y-102738900D02*
X76945748Y-102738900D01*
X87767000Y-150671648D02*
X87767000Y-151194152D01*
X89237000Y-150671648D02*
X89237000Y-151194152D01*
X72665000Y-90761252D02*
X72665000Y-90238748D01*
X74135000Y-90761252D02*
X74135000Y-90238748D01*
X77275252Y-139461500D02*
X76752748Y-139461500D01*
X77275252Y-140931500D02*
X76752748Y-140931500D01*
X95399600Y-94341848D02*
X95399600Y-94864352D01*
X96869600Y-94341848D02*
X96869600Y-94864352D01*
X117346252Y-100910900D02*
X116823748Y-100910900D01*
X117346252Y-102380900D02*
X116823748Y-102380900D01*
X90564248Y-78465000D02*
X91086752Y-78465000D01*
X90564248Y-79935000D02*
X91086752Y-79935000D01*
X109451400Y-117087352D02*
X109451400Y-116564848D01*
X110921400Y-117087352D02*
X110921400Y-116564848D01*
X79200000Y-151696648D02*
X79200000Y-152219152D01*
X80670000Y-151696648D02*
X80670000Y-152219152D01*
X102232252Y-145157300D02*
X101709748Y-145157300D01*
X102232252Y-146627300D02*
X101709748Y-146627300D01*
X99511264Y-121147700D02*
X99057136Y-121147700D01*
X99511264Y-122617700D02*
X99057136Y-122617700D01*
X117280252Y-120967900D02*
X116757748Y-120967900D01*
X117280252Y-122437900D02*
X116757748Y-122437900D01*
X99174600Y-150577736D02*
X99174600Y-151031864D01*
X100644600Y-150577736D02*
X100644600Y-151031864D01*
X75593252Y-147386300D02*
X75070748Y-147386300D01*
X75593252Y-148856300D02*
X75070748Y-148856300D01*
X95264800Y-89917700D02*
X95264800Y-92702700D01*
X95464800Y-89917700D02*
X95264800Y-89917700D01*
X98934800Y-92702700D02*
X98934800Y-90102700D01*
X115461252Y-127014900D02*
X114938748Y-127014900D01*
X115461252Y-128484900D02*
X114938748Y-128484900D01*
X101220000Y-83903900D02*
X101220000Y-85303900D01*
X103540000Y-85803900D02*
X103540000Y-83903900D01*
X77402252Y-121325900D02*
X76879748Y-121325900D01*
X77402252Y-122795900D02*
X76879748Y-122795900D01*
X115461252Y-129014900D02*
X114938748Y-129014900D01*
X115461252Y-130484900D02*
X114938748Y-130484900D01*
X90702252Y-117186900D02*
X90179748Y-117186900D01*
X90702252Y-118656900D02*
X90179748Y-118656900D01*
X112679064Y-135701900D02*
X112224936Y-135701900D01*
X112679064Y-137171900D02*
X112224936Y-137171900D01*
X75593252Y-143386300D02*
X75070748Y-143386300D01*
X75593252Y-144856300D02*
X75070748Y-144856300D01*
X90868252Y-107193900D02*
X90345748Y-107193900D01*
X90868252Y-108663900D02*
X90345748Y-108663900D01*
X77568252Y-107268900D02*
X77045748Y-107268900D01*
X77568252Y-108738900D02*
X77045748Y-108738900D01*
X105839000Y-151467648D02*
X105839000Y-151990152D01*
X107309000Y-151467648D02*
X107309000Y-151990152D01*
X96712748Y-88118900D02*
X97235252Y-88118900D01*
X96712748Y-89588900D02*
X97235252Y-89588900D01*
X98600000Y-111171152D02*
X98600000Y-110648648D01*
X100070000Y-111171152D02*
X100070000Y-110648648D01*
X87185252Y-106059900D02*
X85762748Y-106059900D01*
X87185252Y-108779900D02*
X85762748Y-108779900D01*
X88893252Y-145311300D02*
X88370748Y-145311300D01*
X88893252Y-146781300D02*
X88370748Y-146781300D01*
X101647436Y-78965000D02*
X102101564Y-78965000D01*
X101647436Y-80435000D02*
X102101564Y-80435000D01*
X117131252Y-135064900D02*
X116608748Y-135064900D01*
X117131252Y-136534900D02*
X116608748Y-136534900D01*
X109502200Y-126369248D02*
X109502200Y-126891752D01*
X110972200Y-126369248D02*
X110972200Y-126891752D01*
X102211252Y-131140000D02*
X101688748Y-131140000D01*
X102211252Y-132610000D02*
X101688748Y-132610000D01*
X114314000Y-83853900D02*
X114314000Y-85253900D01*
X116634000Y-85753900D02*
X116634000Y-83853900D01*
X78467000Y-148196648D02*
X78467000Y-148719152D01*
X79937000Y-148196648D02*
X79937000Y-148719152D01*
X104041252Y-119064900D02*
X103518748Y-119064900D01*
X104041252Y-120534900D02*
X103518748Y-120534900D01*
X111839000Y-111042152D02*
X111839000Y-110519648D01*
X113309000Y-111042152D02*
X113309000Y-110519648D01*
X96735252Y-84718900D02*
X96212748Y-84718900D01*
X96735252Y-86188900D02*
X96212748Y-86188900D01*
X97378000Y-94915152D02*
X97378000Y-94392648D01*
X98848000Y-94915152D02*
X98848000Y-94392648D01*
X85108600Y-132885448D02*
X85108600Y-133407952D01*
X86578600Y-132885448D02*
X86578600Y-133407952D01*
X88886252Y-131297900D02*
X88363748Y-131297900D01*
X88886252Y-132767900D02*
X88363748Y-132767900D01*
X102112252Y-77013900D02*
X101589748Y-77013900D01*
X102112252Y-78483900D02*
X101589748Y-78483900D01*
X100094736Y-163252000D02*
X104448864Y-163252000D01*
X100094736Y-166672000D02*
X104448864Y-166672000D01*
X90039000Y-91867648D02*
X90039000Y-92390152D01*
X91509000Y-91867648D02*
X91509000Y-92390152D01*
X93339000Y-122315152D02*
X93339000Y-121792648D01*
X94809000Y-122315152D02*
X94809000Y-121792648D01*
X115471252Y-145028300D02*
X114948748Y-145028300D01*
X115471252Y-146498300D02*
X114948748Y-146498300D01*
X71910200Y-143251752D02*
X71910200Y-142729248D01*
X73380200Y-143251752D02*
X73380200Y-142729248D01*
X75635252Y-95243900D02*
X75112748Y-95243900D01*
X75635252Y-96713900D02*
X75112748Y-96713900D01*
X117153252Y-139103500D02*
X116630748Y-139103500D01*
X117153252Y-140573500D02*
X116630748Y-140573500D01*
X77275252Y-133390900D02*
X76752748Y-133390900D01*
X77275252Y-134860900D02*
X76752748Y-134860900D01*
X86172264Y-121301700D02*
X85718136Y-121301700D01*
X86172264Y-122771700D02*
X85718136Y-122771700D01*
X90702252Y-119218900D02*
X90179748Y-119218900D01*
X90702252Y-120688900D02*
X90179748Y-120688900D01*
X77402252Y-119293900D02*
X76879748Y-119293900D01*
X77402252Y-120763900D02*
X76879748Y-120763900D01*
X109400600Y-110468848D02*
X109400600Y-110991352D01*
X110870600Y-110468848D02*
X110870600Y-110991352D01*
X113763252Y-105776900D02*
X112340748Y-105776900D01*
X113763252Y-108496900D02*
X112340748Y-108496900D01*
X98107000Y-154009836D02*
X98107000Y-154463964D01*
X99577000Y-154009836D02*
X99577000Y-154463964D01*
X88886252Y-129297900D02*
X88363748Y-129297900D01*
X88886252Y-130767900D02*
X88363748Y-130767900D01*
X112872000Y-153880836D02*
X112872000Y-154334964D01*
X114342000Y-153880836D02*
X114342000Y-154334964D01*
X82822600Y-110751848D02*
X82822600Y-111274352D01*
X84292600Y-110751848D02*
X84292600Y-111274352D01*
X82873400Y-133372352D02*
X82873400Y-132849848D01*
X84343400Y-133372352D02*
X84343400Y-132849848D01*
X71808600Y-132960448D02*
X71808600Y-133482952D01*
X73278600Y-132960448D02*
X73278600Y-133482952D01*
X72701064Y-104259900D02*
X72246936Y-104259900D01*
X72701064Y-105729900D02*
X72246936Y-105729900D01*
X78739000Y-94667648D02*
X78739000Y-95190152D01*
X80209000Y-94667648D02*
X80209000Y-95190152D01*
X73653336Y-158299000D02*
X78007464Y-158299000D01*
X73653336Y-161719000D02*
X78007464Y-161719000D01*
X69573400Y-142729248D02*
X69573400Y-143251752D01*
X71043400Y-142729248D02*
X71043400Y-143251752D01*
X104107252Y-125111900D02*
X103584748Y-125111900D01*
X104107252Y-126581900D02*
X103584748Y-126581900D01*
X83277000Y-84388748D02*
X83277000Y-85811252D01*
X85097000Y-84388748D02*
X85097000Y-85811252D01*
X83867000Y-148989048D02*
X83867000Y-149511552D01*
X85337000Y-148989048D02*
X85337000Y-149511552D01*
X104041252Y-123128900D02*
X103518748Y-123128900D01*
X104041252Y-124598900D02*
X103518748Y-124598900D01*
X92039000Y-94592648D02*
X92039000Y-95115152D01*
X93509000Y-94592648D02*
X93509000Y-95115152D01*
X69573400Y-101224952D02*
X69573400Y-100702448D01*
X71043400Y-101224952D02*
X71043400Y-100702448D01*
X111788200Y-142893752D02*
X111788200Y-142371248D01*
X113258200Y-142893752D02*
X113258200Y-142371248D01*
X102324252Y-97014900D02*
X101801748Y-97014900D01*
X102324252Y-98484900D02*
X101801748Y-98484900D01*
X82873400Y-117370352D02*
X82873400Y-116847848D01*
X84343400Y-117370352D02*
X84343400Y-116847848D01*
X92239000Y-91092648D02*
X92239000Y-91615152D01*
X93709000Y-91092648D02*
X93709000Y-91615152D01*
X77402252Y-123357900D02*
X76879748Y-123357900D01*
X77402252Y-124827900D02*
X76879748Y-124827900D01*
X90768252Y-101193900D02*
X90245748Y-101193900D01*
X90768252Y-102663900D02*
X90245748Y-102663900D01*
X117239000Y-84815152D02*
X117239000Y-84292648D01*
X118709000Y-84815152D02*
X118709000Y-84292648D01*
X69573400Y-133447352D02*
X69573400Y-132924848D01*
X71043400Y-133447352D02*
X71043400Y-132924848D01*
X103914252Y-133161900D02*
X103391748Y-133161900D01*
X103914252Y-134631900D02*
X103391748Y-134631900D01*
X77578252Y-109253900D02*
X77055748Y-109253900D01*
X77578252Y-110723900D02*
X77055748Y-110723900D01*
X117280252Y-118935900D02*
X116757748Y-118935900D01*
X117280252Y-120405900D02*
X116757748Y-120405900D01*
X90741800Y-84865152D02*
X90741800Y-84342648D01*
X92211800Y-84865152D02*
X92211800Y-84342648D01*
X70567000Y-149064048D02*
X70567000Y-149586552D01*
X72037000Y-149064048D02*
X72037000Y-149586552D01*
X90688748Y-66190000D02*
X92111252Y-66190000D01*
X90688748Y-68010000D02*
X92111252Y-68010000D01*
X73653336Y-163277400D02*
X78007464Y-163277400D01*
X73653336Y-166697400D02*
X78007464Y-166697400D01*
X102232252Y-143157300D02*
X101709748Y-143157300D01*
X102232252Y-144627300D02*
X101709748Y-144627300D01*
X92874000Y-84238900D02*
X96324000Y-84238900D01*
X94374000Y-75368900D02*
X96324000Y-75368900D01*
X98274000Y-75368900D02*
X96324000Y-75368900D01*
X98274000Y-84238900D02*
X96324000Y-84238900D01*
X88893252Y-143311300D02*
X88370748Y-143311300D01*
X88893252Y-144781300D02*
X88370748Y-144781300D01*
X86953636Y-163265200D02*
X91307764Y-163265200D01*
X86953636Y-166685200D02*
X91307764Y-166685200D01*
X116923748Y-104910900D02*
X117446252Y-104910900D01*
X116923748Y-106380900D02*
X117446252Y-106380900D01*
X89777000Y-150671648D02*
X89777000Y-151194152D01*
X91247000Y-150671648D02*
X91247000Y-151194152D01*
X105378000Y-94438648D02*
X105378000Y-94961152D01*
X106848000Y-94438648D02*
X106848000Y-94961152D01*
X90702252Y-123282900D02*
X90179748Y-123282900D01*
X90702252Y-124752900D02*
X90179748Y-124752900D01*
X88039000Y-91867648D02*
X88039000Y-92390152D01*
X89509000Y-91867648D02*
X89509000Y-92390152D01*
X117153252Y-137096900D02*
X116630748Y-137096900D01*
X117153252Y-138566900D02*
X116630748Y-138566900D01*
X70012748Y-88318900D02*
X70535252Y-88318900D01*
X70012748Y-89788900D02*
X70535252Y-89788900D01*
X115563252Y-110855900D02*
X115040748Y-110855900D01*
X115563252Y-112325900D02*
X115040748Y-112325900D01*
X74558000Y-83853900D02*
X74558000Y-85253900D01*
X76878000Y-85753900D02*
X76878000Y-83853900D01*
X104217252Y-109024900D02*
X103694748Y-109024900D01*
X104217252Y-110494900D02*
X103694748Y-110494900D01*
X90575252Y-133315900D02*
X90052748Y-133315900D01*
X90575252Y-134785900D02*
X90052748Y-134785900D01*
X104157252Y-103039900D02*
X103634748Y-103039900D01*
X104157252Y-104509900D02*
X103634748Y-104509900D01*
X117163252Y-141065900D02*
X116640748Y-141065900D01*
X117163252Y-142535900D02*
X116640748Y-142535900D01*
X110967000Y-153880836D02*
X110967000Y-154334964D01*
X112437000Y-153880836D02*
X112437000Y-154334964D01*
X102211252Y-127140000D02*
X101688748Y-127140000D01*
X102211252Y-128610000D02*
X101688748Y-128610000D01*
X84534000Y-154163836D02*
X84534000Y-154617964D01*
X86004000Y-154163836D02*
X86004000Y-154617964D01*
X86953636Y-158375200D02*
X91307764Y-158375200D01*
X86953636Y-161795200D02*
X91307764Y-161795200D01*
X98600000Y-116693848D02*
X98600000Y-117216352D01*
X100070000Y-116693848D02*
X100070000Y-117216352D01*
X85804000Y-150734836D02*
X85804000Y-151188964D01*
X87274000Y-150734836D02*
X87274000Y-151188964D01*
X88935252Y-99168900D02*
X88412748Y-99168900D01*
X88935252Y-100638900D02*
X88412748Y-100638900D01*
X77483000Y-84815152D02*
X77483000Y-84292648D01*
X78953000Y-84815152D02*
X78953000Y-84292648D01*
X113429736Y-158362000D02*
X117783864Y-158362000D01*
X113429736Y-161782000D02*
X117783864Y-161782000D01*
X104207252Y-107039900D02*
X103684748Y-107039900D01*
X104207252Y-108509900D02*
X103684748Y-108509900D01*
X88886252Y-127290000D02*
X88363748Y-127290000D01*
X88886252Y-128760000D02*
X88363748Y-128760000D01*
X75593252Y-145386300D02*
X75070748Y-145386300D01*
X75593252Y-146856300D02*
X75070748Y-146856300D01*
X111788200Y-100359648D02*
X111788200Y-100882152D01*
X113258200Y-100359648D02*
X113258200Y-100882152D01*
X117396252Y-102910900D02*
X116873748Y-102910900D01*
X117396252Y-104380900D02*
X116873748Y-104380900D01*
X88893252Y-147311300D02*
X88370748Y-147311300D01*
X88893252Y-148781300D02*
X88370748Y-148781300D01*
X110401400Y-148706048D02*
X110401400Y-149228552D01*
X111871400Y-148706048D02*
X111871400Y-149228552D01*
X90553252Y-135347900D02*
X90030748Y-135347900D01*
X90553252Y-136817900D02*
X90030748Y-136817900D01*
X105578000Y-90938648D02*
X105578000Y-91461152D01*
X107048000Y-90938648D02*
X107048000Y-91461152D01*
X100324252Y-137805900D02*
X98901748Y-137805900D01*
X100324252Y-140525900D02*
X98901748Y-140525900D01*
X86439000Y-154163836D02*
X86439000Y-154617964D01*
X87909000Y-154163836D02*
X87909000Y-154617964D01*
X72801064Y-136059900D02*
X72346936Y-136059900D01*
X72801064Y-137529900D02*
X72346936Y-137529900D01*
X117346252Y-124982900D02*
X116823748Y-124982900D01*
X117346252Y-126452900D02*
X116823748Y-126452900D01*
X115563252Y-112855900D02*
X115040748Y-112855900D01*
X115563252Y-114325900D02*
X115040748Y-114325900D01*
X100524252Y-105705900D02*
X99101748Y-105705900D01*
X100524252Y-108425900D02*
X99101748Y-108425900D01*
X69573400Y-117445352D02*
X69573400Y-116922848D01*
X71043400Y-117445352D02*
X71043400Y-116922848D01*
X102274252Y-99014900D02*
X101751748Y-99014900D01*
X102274252Y-100484900D02*
X101751748Y-100484900D01*
X82873400Y-142654248D02*
X82873400Y-143176752D01*
X84343400Y-142654248D02*
X84343400Y-143176752D01*
X104041252Y-117032900D02*
X103518748Y-117032900D01*
X104041252Y-118502900D02*
X103518748Y-118502900D01*
X102324252Y-112984900D02*
X101801748Y-112984900D01*
X102324252Y-114454900D02*
X101801748Y-114454900D01*
X75586252Y-131365000D02*
X75063748Y-131365000D01*
X75586252Y-132835000D02*
X75063748Y-132835000D01*
X103924252Y-141194900D02*
X103401748Y-141194900D01*
X103924252Y-142664900D02*
X103401748Y-142664900D01*
X71961000Y-111400152D02*
X71961000Y-110877648D01*
X73431000Y-111400152D02*
X73431000Y-110877648D01*
X115563252Y-114855900D02*
X115040748Y-114855900D01*
X115563252Y-116325900D02*
X115040748Y-116325900D01*
X119078000Y-151338648D02*
X119078000Y-151861152D01*
X120548000Y-151338648D02*
X120548000Y-151861152D01*
X103116000Y-150517648D02*
X103116000Y-151040152D01*
X104586000Y-150517648D02*
X104586000Y-151040152D01*
X69624200Y-126727248D02*
X69624200Y-127249752D01*
X71094200Y-126727248D02*
X71094200Y-127249752D01*
X75685252Y-111213900D02*
X75162748Y-111213900D01*
X75685252Y-112683900D02*
X75162748Y-112683900D01*
X113429736Y-163252000D02*
X117783864Y-163252000D01*
X113429736Y-166672000D02*
X117783864Y-166672000D01*
X87914000Y-83903900D02*
X87914000Y-85303900D01*
X90234000Y-85803900D02*
X90234000Y-83903900D01*
X96212400Y-117216352D02*
X96212400Y-116693848D01*
X97682400Y-117216352D02*
X97682400Y-116693848D01*
X101672936Y-75065000D02*
X102127064Y-75065000D01*
X101672936Y-76535000D02*
X102127064Y-76535000D01*
X104107252Y-101039900D02*
X103584748Y-101039900D01*
X104107252Y-102509900D02*
X103584748Y-102509900D01*
X101378000Y-91713648D02*
X101378000Y-92236152D01*
X102848000Y-91713648D02*
X102848000Y-92236152D01*
X88985252Y-97168900D02*
X88462748Y-97168900D01*
X88985252Y-98638900D02*
X88462748Y-98638900D01*
X108503800Y-89788700D02*
X108503800Y-92573700D01*
X108703800Y-89788700D02*
X108503800Y-89788700D01*
X112173800Y-92573700D02*
X112173800Y-89973700D01*
X91052564Y-80415000D02*
X90598436Y-80415000D01*
X91052564Y-81885000D02*
X90598436Y-81885000D01*
X98549200Y-100488648D02*
X98549200Y-101011152D01*
X100019200Y-100488648D02*
X100019200Y-101011152D01*
X98498400Y-127020752D02*
X98498400Y-126498248D01*
X99968400Y-127020752D02*
X99968400Y-126498248D01*
X76477000Y-150746648D02*
X76477000Y-151269152D01*
X77947000Y-150746648D02*
X77947000Y-151269152D01*
X117280252Y-116903900D02*
X116757748Y-116903900D01*
X117280252Y-118373900D02*
X116757748Y-118373900D01*
X116617000Y-91584648D02*
X116617000Y-92107152D01*
X118087000Y-91584648D02*
X118087000Y-92107152D01*
X73885252Y-106234900D02*
X72462748Y-106234900D01*
X73885252Y-108954900D02*
X72462748Y-108954900D01*
X90575252Y-137379900D02*
X90052748Y-137379900D01*
X90575252Y-138849900D02*
X90052748Y-138849900D01*
X96161600Y-110597848D02*
X96161600Y-111120352D01*
X97631600Y-110597848D02*
X97631600Y-111120352D01*
X90588748Y-74565000D02*
X91111252Y-74565000D01*
X90588748Y-76035000D02*
X91111252Y-76035000D01*
X96727064Y-73065000D02*
X96272936Y-73065000D01*
X96727064Y-74535000D02*
X96272936Y-74535000D01*
X96172936Y-70665000D02*
X96627064Y-70665000D01*
X96172936Y-72135000D02*
X96627064Y-72135000D01*
X82924200Y-126652248D02*
X82924200Y-127174752D01*
X84394200Y-126652248D02*
X84394200Y-127174752D01*
%LPC*%
D11*
X56500000Y-164000000D03*
D12*
X135642500Y-31361000D03*
X126142500Y-31361000D03*
X116642500Y-31361000D03*
X107142500Y-31361000D03*
D13*
X40600000Y-178200000D03*
X41302944Y-176502944D03*
X41302944Y-179897056D03*
X43000000Y-175800000D03*
D14*
X43000000Y-178200000D03*
D13*
X43000000Y-180600000D03*
X44697056Y-176502944D03*
X44697056Y-179897056D03*
X45400000Y-178200000D03*
D15*
X69310000Y-42680000D03*
D16*
X67150000Y-37600000D03*
D17*
X67150000Y-40140000D03*
X67150000Y-42680000D03*
X67150000Y-45220000D03*
D13*
X142600000Y-178200000D03*
X143302944Y-176502944D03*
X143302944Y-179897056D03*
X145000000Y-175800000D03*
D14*
X145000000Y-178200000D03*
D13*
X145000000Y-180600000D03*
X146697056Y-176502944D03*
X146697056Y-179897056D03*
X147400000Y-178200000D03*
D18*
X126600000Y-69500000D03*
X117100000Y-174500000D03*
X70900000Y-174500000D03*
X61400000Y-69500000D03*
D13*
X40600000Y-26200000D03*
X41302944Y-24502944D03*
X41302944Y-27897056D03*
X43000000Y-23800000D03*
D14*
X43000000Y-26200000D03*
D13*
X43000000Y-28600000D03*
X44697056Y-24502944D03*
X44697056Y-27897056D03*
X45400000Y-26200000D03*
D11*
X56500000Y-79500000D03*
D13*
X142600000Y-26200000D03*
X143302944Y-24502944D03*
X143302944Y-27897056D03*
X145000000Y-23800000D03*
D14*
X145000000Y-26200000D03*
D13*
X145000000Y-28600000D03*
X146697056Y-24502944D03*
X146697056Y-27897056D03*
X147400000Y-26200000D03*
D11*
X131500000Y-164000000D03*
D19*
X67240000Y-29022000D03*
X61460000Y-29022000D03*
D20*
X68670000Y-29522000D03*
D21*
X68670000Y-25342000D03*
D20*
X60030000Y-29522000D03*
D21*
X60030000Y-25342000D03*
D22*
X89875000Y-24800000D03*
D23*
X87335000Y-24800000D03*
X84795000Y-24800000D03*
X82255000Y-24800000D03*
X79715000Y-24800000D03*
X77175000Y-24800000D03*
X74635000Y-24800000D03*
D24*
X52000000Y-36797000D03*
D25*
X52000000Y-30797000D03*
X47300000Y-33797000D03*
D11*
X131500000Y-79500000D03*
D26*
X99284200Y-143711500D03*
X99284200Y-141811500D03*
D27*
X89674000Y-111873900D03*
X87774000Y-111873900D03*
X78157000Y-126075900D03*
X76257000Y-126075900D03*
D28*
X75202000Y-150057900D03*
X75202000Y-151957900D03*
D29*
X76357000Y-106003900D03*
X78257000Y-106003900D03*
D27*
X78091000Y-117996900D03*
X76191000Y-117996900D03*
X116160000Y-143763300D03*
X114260000Y-143763300D03*
X78207000Y-104003900D03*
X76307000Y-104003900D03*
D30*
X87749000Y-139319900D03*
X84799000Y-139319900D03*
D28*
X104824000Y-83653900D03*
X104824000Y-85553900D03*
D27*
X77942000Y-136157900D03*
X76042000Y-136157900D03*
X76275000Y-130100000D03*
X74375000Y-130100000D03*
D26*
X72594400Y-127938500D03*
X72594400Y-126038500D03*
X85894400Y-127863500D03*
X85894400Y-125963500D03*
D27*
X77974000Y-142158900D03*
X76074000Y-142158900D03*
X89674000Y-115873900D03*
X87774000Y-115873900D03*
X104603000Y-139967500D03*
X102703000Y-139967500D03*
D28*
X96947400Y-141811500D03*
X96947400Y-143711500D03*
X110186400Y-141682500D03*
X110186400Y-143582500D03*
D27*
X77964000Y-138189900D03*
X76064000Y-138189900D03*
D26*
X95931400Y-150025900D03*
X95931400Y-148125900D03*
D27*
X89624000Y-95903900D03*
X87724000Y-95903900D03*
X91274000Y-142083900D03*
X89374000Y-142083900D03*
D28*
X72645200Y-100028900D03*
X72645200Y-101928900D03*
X72696000Y-116234100D03*
X72696000Y-118134100D03*
X85945200Y-99953900D03*
X85945200Y-101853900D03*
X70257600Y-110138100D03*
X70257600Y-112038100D03*
D27*
X116252000Y-97620900D03*
X114352000Y-97620900D03*
D31*
X90016500Y-77240900D03*
X91841500Y-77240900D03*
D28*
X79674000Y-90478900D03*
X79674000Y-92378900D03*
D27*
X102963000Y-95749900D03*
X101063000Y-95749900D03*
D29*
X100924500Y-81650000D03*
X102824500Y-81650000D03*
D32*
X89905000Y-71381000D03*
X91805000Y-71381000D03*
X90855000Y-73256000D03*
D33*
X105234300Y-160072000D03*
X99309300Y-160072000D03*
D28*
X99182600Y-132042700D03*
X99182600Y-133942700D03*
X69495600Y-93882100D03*
X69495600Y-95782100D03*
D27*
X118135000Y-107645900D03*
X116235000Y-107645900D03*
D34*
X100025500Y-104465900D03*
X98200500Y-104465900D03*
D28*
X105841000Y-147278900D03*
X105841000Y-149178900D03*
X82795600Y-93807100D03*
X82795600Y-95707100D03*
X75474000Y-91253900D03*
X75474000Y-93153900D03*
D30*
X74449000Y-139394900D03*
X71499000Y-139394900D03*
D28*
X115080000Y-149699900D03*
X115080000Y-151599900D03*
D27*
X117842000Y-133767900D03*
X115942000Y-133767900D03*
D28*
X77474000Y-91253900D03*
X77474000Y-93153900D03*
X101841000Y-149828900D03*
X101841000Y-151728900D03*
D26*
X85996000Y-112013900D03*
X85996000Y-110113900D03*
D29*
X109224000Y-88653900D03*
X111124000Y-88653900D03*
X89657000Y-105928900D03*
X91557000Y-105928900D03*
D30*
X114327000Y-139036900D03*
X111377000Y-139036900D03*
D27*
X91264000Y-140121500D03*
X89364000Y-140121500D03*
D29*
X82824000Y-89053900D03*
X84724000Y-89053900D03*
D27*
X91457000Y-126000900D03*
X89557000Y-126000900D03*
D28*
X119080000Y-147149900D03*
X119080000Y-149049900D03*
D27*
X91507000Y-103928900D03*
X89607000Y-103928900D03*
X76374000Y-115948900D03*
X74474000Y-115948900D03*
D35*
X69385800Y-90856700D03*
X71535800Y-90856700D03*
X71535800Y-92406700D03*
X69385800Y-92406700D03*
D27*
X76324000Y-99978900D03*
X74424000Y-99978900D03*
D29*
X102996000Y-105774900D03*
X104896000Y-105774900D03*
D27*
X91391000Y-121985900D03*
X89491000Y-121985900D03*
X76374000Y-113948900D03*
X74474000Y-113948900D03*
D28*
X112421600Y-131913700D03*
X112421600Y-133813700D03*
X115352000Y-90895900D03*
X115352000Y-92795900D03*
X92823000Y-150932900D03*
X92823000Y-152832900D03*
D27*
X104730000Y-121831900D03*
X102830000Y-121831900D03*
D26*
X110186400Y-101555700D03*
X110186400Y-99655700D03*
D36*
X110349000Y-86824000D03*
X110349000Y-83874000D03*
D34*
X86786500Y-136719900D03*
X84961500Y-136719900D03*
D27*
X102900000Y-129875000D03*
X101000000Y-129875000D03*
D26*
X83608400Y-101838700D03*
X83608400Y-99938700D03*
D28*
X119552000Y-90120900D03*
X119552000Y-92020900D03*
X97941000Y-148146300D03*
X97941000Y-150046300D03*
D27*
X116150000Y-131749900D03*
X114250000Y-131749900D03*
X116202000Y-99620900D03*
X114302000Y-99620900D03*
D26*
X71474000Y-95832900D03*
X71474000Y-93932900D03*
X84774000Y-95757900D03*
X84774000Y-93857900D03*
D34*
X86686500Y-104819900D03*
X84861500Y-104819900D03*
X113435700Y-121753700D03*
X111610700Y-121753700D03*
D28*
X104113000Y-91024900D03*
X104113000Y-92924900D03*
D35*
X82685800Y-90781700D03*
X84835800Y-90781700D03*
X84835800Y-92331700D03*
X82685800Y-92331700D03*
D26*
X110186400Y-133778100D03*
X110186400Y-131878100D03*
D27*
X76275000Y-128107900D03*
X74375000Y-128107900D03*
D26*
X69292400Y-150254900D03*
X69292400Y-148354900D03*
D29*
X89850000Y-69300000D03*
X91750000Y-69300000D03*
D27*
X76374000Y-97978900D03*
X74474000Y-97978900D03*
D26*
X85945200Y-143865500D03*
X85945200Y-141965500D03*
D27*
X116202000Y-95620900D03*
X114302000Y-95620900D03*
D37*
X73237000Y-150251400D03*
X73237000Y-152076400D03*
D28*
X119352000Y-93620900D03*
X119352000Y-95520900D03*
D27*
X103013000Y-111719900D03*
X101113000Y-111719900D03*
D37*
X100747000Y-153324400D03*
X100747000Y-155149400D03*
D26*
X109155200Y-149896900D03*
X109155200Y-147996900D03*
D34*
X113264500Y-104536900D03*
X111439500Y-104536900D03*
D27*
X91567000Y-109913900D03*
X89667000Y-109913900D03*
X103013000Y-115719900D03*
X101113000Y-115719900D03*
D28*
X85996000Y-116159100D03*
X85996000Y-118059100D03*
X112574000Y-115876100D03*
X112574000Y-117776100D03*
D27*
X118145000Y-109630900D03*
X116245000Y-109630900D03*
D34*
X100125500Y-136565900D03*
X98300500Y-136565900D03*
D27*
X89674000Y-113873900D03*
X87774000Y-113873900D03*
D26*
X112472400Y-127580500D03*
X112472400Y-125680500D03*
X111352000Y-95474900D03*
X111352000Y-93574900D03*
D34*
X73557700Y-122111700D03*
X71732700Y-122111700D03*
D28*
X117090000Y-149699900D03*
X117090000Y-151599900D03*
D26*
X96947400Y-133907100D03*
X96947400Y-132007100D03*
D28*
X109373600Y-93524100D03*
X109373600Y-95424100D03*
D27*
X116160000Y-147763300D03*
X114260000Y-147763300D03*
D28*
X92502000Y-147432900D03*
X92502000Y-149332900D03*
D27*
X104581000Y-135928900D03*
X102681000Y-135928900D03*
D26*
X82592400Y-150179900D03*
X82592400Y-148279900D03*
D27*
X102921000Y-147892300D03*
X101021000Y-147892300D03*
D37*
X113099000Y-149742900D03*
X113099000Y-151567900D03*
D28*
X96998200Y-125809500D03*
X96998200Y-127709500D03*
D27*
X117969000Y-123734900D03*
X116069000Y-123734900D03*
D26*
X96947400Y-101684700D03*
X96947400Y-99784700D03*
D27*
X104603000Y-137960900D03*
X102703000Y-137960900D03*
D38*
X93850000Y-73750000D03*
D39*
X98950000Y-72600000D03*
D38*
X93850000Y-71450000D03*
D27*
X78157000Y-102003900D03*
X76257000Y-102003900D03*
D28*
X88502000Y-149982900D03*
X88502000Y-151882900D03*
X73400000Y-89550000D03*
X73400000Y-91450000D03*
D27*
X77964000Y-140196500D03*
X76064000Y-140196500D03*
D28*
X96134600Y-93653100D03*
X96134600Y-95553100D03*
D27*
X118035000Y-101645900D03*
X116135000Y-101645900D03*
X91775500Y-79200000D03*
X89875500Y-79200000D03*
D26*
X110186400Y-117776100D03*
X110186400Y-115876100D03*
D28*
X79935000Y-151007900D03*
X79935000Y-152907900D03*
D27*
X102921000Y-145892300D03*
X101021000Y-145892300D03*
D34*
X100196700Y-121882700D03*
X98371700Y-121882700D03*
D27*
X117969000Y-121702900D03*
X116069000Y-121702900D03*
D37*
X99909600Y-149892300D03*
X99909600Y-151717300D03*
D27*
X76282000Y-148121300D03*
X74382000Y-148121300D03*
D35*
X96024800Y-90627700D03*
X98174800Y-90627700D03*
X98174800Y-92177700D03*
X96024800Y-92177700D03*
D27*
X116150000Y-127749900D03*
X114250000Y-127749900D03*
D40*
X103030000Y-85553900D03*
X102380000Y-85553900D03*
X101730000Y-85553900D03*
X101730000Y-83653900D03*
X102380000Y-83653900D03*
X103030000Y-83653900D03*
D27*
X78091000Y-122060900D03*
X76191000Y-122060900D03*
X116150000Y-129749900D03*
X114250000Y-129749900D03*
X91391000Y-117921900D03*
X89491000Y-117921900D03*
D34*
X113364500Y-136436900D03*
X111539500Y-136436900D03*
D27*
X76282000Y-144121300D03*
X74382000Y-144121300D03*
X91557000Y-107928900D03*
X89657000Y-107928900D03*
X78257000Y-108003900D03*
X76357000Y-108003900D03*
D28*
X106574000Y-150778900D03*
X106574000Y-152678900D03*
D29*
X96024000Y-88853900D03*
X97924000Y-88853900D03*
D26*
X99335000Y-111859900D03*
X99335000Y-109959900D03*
D30*
X87949000Y-107419900D03*
X84999000Y-107419900D03*
D27*
X89582000Y-146046300D03*
X87682000Y-146046300D03*
D34*
X102787000Y-79700000D03*
X100962000Y-79700000D03*
D27*
X117820000Y-135799900D03*
X115920000Y-135799900D03*
D28*
X110237200Y-125680500D03*
X110237200Y-127580500D03*
D27*
X102900000Y-131875000D03*
X101000000Y-131875000D03*
D40*
X116124000Y-85503900D03*
X115474000Y-85503900D03*
X114824000Y-85503900D03*
X114824000Y-83603900D03*
X115474000Y-83603900D03*
X116124000Y-83603900D03*
D28*
X79202000Y-147507900D03*
X79202000Y-149407900D03*
D27*
X104730000Y-119799900D03*
X102830000Y-119799900D03*
D26*
X112574000Y-111730900D03*
X112574000Y-109830900D03*
D29*
X95524000Y-85453900D03*
X97424000Y-85453900D03*
D26*
X98113000Y-95603900D03*
X98113000Y-93703900D03*
D28*
X85843600Y-132196700D03*
X85843600Y-134096700D03*
D27*
X89575000Y-132032900D03*
X87675000Y-132032900D03*
D29*
X100901000Y-77748900D03*
X102801000Y-77748900D03*
D33*
X105234300Y-164962000D03*
X99309300Y-164962000D03*
D28*
X90774000Y-91178900D03*
X90774000Y-93078900D03*
X94074000Y-121103900D03*
X94074000Y-123003900D03*
D27*
X116160000Y-145763300D03*
X114260000Y-145763300D03*
D26*
X72645200Y-143940500D03*
X72645200Y-142040500D03*
D27*
X76324000Y-95978900D03*
X74424000Y-95978900D03*
X117842000Y-139838500D03*
X115942000Y-139838500D03*
X77964000Y-134125900D03*
X76064000Y-134125900D03*
D34*
X86857700Y-122036700D03*
X85032700Y-122036700D03*
D27*
X91391000Y-119953900D03*
X89491000Y-119953900D03*
X78091000Y-120028900D03*
X76191000Y-120028900D03*
D28*
X110135600Y-109780100D03*
X110135600Y-111680100D03*
D30*
X114527000Y-107136900D03*
X111577000Y-107136900D03*
D37*
X98842000Y-153324400D03*
X98842000Y-155149400D03*
D27*
X89575000Y-130032900D03*
X87675000Y-130032900D03*
D37*
X113607000Y-153195400D03*
X113607000Y-155020400D03*
D28*
X83557600Y-110063100D03*
X83557600Y-111963100D03*
D26*
X83608400Y-134061100D03*
X83608400Y-132161100D03*
D28*
X72543600Y-132271700D03*
X72543600Y-134171700D03*
D34*
X73386500Y-104994900D03*
X71561500Y-104994900D03*
D28*
X79474000Y-93978900D03*
X79474000Y-95878900D03*
D33*
X78792900Y-160009000D03*
X72867900Y-160009000D03*
D28*
X70308400Y-142040500D03*
X70308400Y-143940500D03*
D27*
X104796000Y-125846900D03*
X102896000Y-125846900D03*
D36*
X84187000Y-86575000D03*
X84187000Y-83625000D03*
D28*
X84602000Y-148300300D03*
X84602000Y-150200300D03*
D27*
X104730000Y-123863900D03*
X102830000Y-123863900D03*
D28*
X92774000Y-93903900D03*
X92774000Y-95803900D03*
D26*
X70308400Y-101913700D03*
X70308400Y-100013700D03*
X112523200Y-143582500D03*
X112523200Y-141682500D03*
D27*
X103013000Y-97749900D03*
X101113000Y-97749900D03*
D26*
X83608400Y-118059100D03*
X83608400Y-116159100D03*
D28*
X92974000Y-90403900D03*
X92974000Y-92303900D03*
D27*
X78091000Y-124092900D03*
X76191000Y-124092900D03*
X91457000Y-101928900D03*
X89557000Y-101928900D03*
D28*
X117974000Y-83603900D03*
X117974000Y-85503900D03*
D26*
X70308400Y-134136100D03*
X70308400Y-132236100D03*
D27*
X104603000Y-133896900D03*
X102703000Y-133896900D03*
X78267000Y-109988900D03*
X76367000Y-109988900D03*
X117969000Y-119670900D03*
X116069000Y-119670900D03*
D28*
X91476800Y-83653900D03*
X91476800Y-85553900D03*
X71302000Y-148375300D03*
X71302000Y-150275300D03*
D41*
X92875000Y-67100000D03*
X89925000Y-67100000D03*
D33*
X78792900Y-164987400D03*
X72867900Y-164987400D03*
D27*
X102921000Y-143892300D03*
X101021000Y-143892300D03*
D42*
X93849000Y-83613900D03*
X93849000Y-82343900D03*
X93849000Y-81073900D03*
X93849000Y-79803900D03*
X93849000Y-78533900D03*
X93849000Y-77263900D03*
X93849000Y-75993900D03*
X98799000Y-75993900D03*
X98799000Y-77263900D03*
X98799000Y-78533900D03*
X98799000Y-79803900D03*
X98799000Y-81073900D03*
X98799000Y-82343900D03*
X98799000Y-83613900D03*
D27*
X89582000Y-144046300D03*
X87682000Y-144046300D03*
D33*
X92093200Y-164975200D03*
X86168200Y-164975200D03*
D29*
X116235000Y-105645900D03*
X118135000Y-105645900D03*
D28*
X90512000Y-149982900D03*
X90512000Y-151882900D03*
X106113000Y-93749900D03*
X106113000Y-95649900D03*
D27*
X91391000Y-124017900D03*
X89491000Y-124017900D03*
D28*
X88774000Y-91178900D03*
X88774000Y-93078900D03*
D27*
X117842000Y-137831900D03*
X115942000Y-137831900D03*
D29*
X69324000Y-89053900D03*
X71224000Y-89053900D03*
D27*
X116252000Y-111590900D03*
X114352000Y-111590900D03*
D40*
X76368000Y-85503900D03*
X75718000Y-85503900D03*
X75068000Y-85503900D03*
X75068000Y-83603900D03*
X75718000Y-83603900D03*
X76368000Y-83603900D03*
D27*
X104906000Y-109759900D03*
X103006000Y-109759900D03*
X91264000Y-134050900D03*
X89364000Y-134050900D03*
X104846000Y-103774900D03*
X102946000Y-103774900D03*
X117852000Y-141800900D03*
X115952000Y-141800900D03*
D37*
X111702000Y-153195400D03*
X111702000Y-155020400D03*
D27*
X102900000Y-127875000D03*
X101000000Y-127875000D03*
D37*
X85269000Y-153478400D03*
X85269000Y-155303400D03*
D33*
X92093200Y-160085200D03*
X86168200Y-160085200D03*
D28*
X99335000Y-116005100D03*
X99335000Y-117905100D03*
D37*
X86539000Y-150049400D03*
X86539000Y-151874400D03*
D27*
X89624000Y-99903900D03*
X87724000Y-99903900D03*
D28*
X78218000Y-83603900D03*
X78218000Y-85503900D03*
D33*
X118569300Y-160072000D03*
X112644300Y-160072000D03*
D27*
X104896000Y-107774900D03*
X102996000Y-107774900D03*
X89575000Y-128025000D03*
X87675000Y-128025000D03*
X76282000Y-146121300D03*
X74382000Y-146121300D03*
D28*
X112523200Y-99670900D03*
X112523200Y-101570900D03*
D27*
X118085000Y-103645900D03*
X116185000Y-103645900D03*
X89582000Y-148046300D03*
X87682000Y-148046300D03*
D28*
X111136400Y-148017300D03*
X111136400Y-149917300D03*
D27*
X91242000Y-136082900D03*
X89342000Y-136082900D03*
D28*
X106313000Y-90249900D03*
X106313000Y-92149900D03*
D30*
X101088000Y-139165900D03*
X98138000Y-139165900D03*
D37*
X87174000Y-153478400D03*
X87174000Y-155303400D03*
D34*
X73486500Y-136794900D03*
X71661500Y-136794900D03*
D27*
X118035000Y-125717900D03*
X116135000Y-125717900D03*
X116252000Y-113590900D03*
X114352000Y-113590900D03*
D30*
X101288000Y-107065900D03*
X98338000Y-107065900D03*
D26*
X70308400Y-118134100D03*
X70308400Y-116234100D03*
D27*
X102963000Y-99749900D03*
X101063000Y-99749900D03*
D28*
X83608400Y-141965500D03*
X83608400Y-143865500D03*
D27*
X104730000Y-117767900D03*
X102830000Y-117767900D03*
X103013000Y-113719900D03*
X101113000Y-113719900D03*
X76275000Y-132100000D03*
X74375000Y-132100000D03*
X104613000Y-141929900D03*
X102713000Y-141929900D03*
D26*
X72696000Y-112088900D03*
X72696000Y-110188900D03*
D27*
X116252000Y-115590900D03*
X114352000Y-115590900D03*
D28*
X119813000Y-150649900D03*
X119813000Y-152549900D03*
X103851000Y-149828900D03*
X103851000Y-151728900D03*
X70359200Y-126038500D03*
X70359200Y-127938500D03*
D27*
X76374000Y-111948900D03*
X74474000Y-111948900D03*
D33*
X118569300Y-164962000D03*
X112644300Y-164962000D03*
D40*
X89724000Y-85553900D03*
X89074000Y-85553900D03*
X88424000Y-85553900D03*
X88424000Y-83653900D03*
X89074000Y-83653900D03*
X89724000Y-83653900D03*
D26*
X96947400Y-117905100D03*
X96947400Y-116005100D03*
D34*
X102812500Y-75800000D03*
X100987500Y-75800000D03*
D27*
X104796000Y-101774900D03*
X102896000Y-101774900D03*
D28*
X102113000Y-91024900D03*
X102113000Y-92924900D03*
D27*
X89674000Y-97903900D03*
X87774000Y-97903900D03*
D35*
X109263800Y-90498700D03*
X111413800Y-90498700D03*
X111413800Y-92048700D03*
X109263800Y-92048700D03*
D31*
X89913000Y-81150000D03*
X91738000Y-81150000D03*
D28*
X99284200Y-99799900D03*
X99284200Y-101699900D03*
D26*
X99233400Y-127709500D03*
X99233400Y-125809500D03*
D28*
X77212000Y-150057900D03*
X77212000Y-151957900D03*
D27*
X117969000Y-117638900D03*
X116069000Y-117638900D03*
D28*
X117352000Y-90895900D03*
X117352000Y-92795900D03*
D30*
X74649000Y-107594900D03*
X71699000Y-107594900D03*
D27*
X91264000Y-138114900D03*
X89364000Y-138114900D03*
D28*
X96896600Y-109909100D03*
X96896600Y-111809100D03*
D27*
X91800000Y-75300000D03*
X89900000Y-75300000D03*
D31*
X95587500Y-73800000D03*
X97412500Y-73800000D03*
D34*
X97312500Y-71400000D03*
X95487500Y-71400000D03*
D28*
X83659200Y-125963500D03*
X83659200Y-127863500D03*
%LPD*%
M02*
