G04 #@! TF.GenerationSoftware,KiCad,Pcbnew,8.0.1-8.0.1-1~ubuntu22.04.1*
G04 #@! TF.CreationDate,2024-04-20T17:14:23+02:00*
G04 #@! TF.ProjectId,0xaxe,30786178-652e-46b6-9963-61645f706362,302*
G04 #@! TF.SameCoordinates,Original*
G04 #@! TF.FileFunction,Paste,Top*
G04 #@! TF.FilePolarity,Positive*
%FSLAX46Y46*%
G04 Gerber Fmt 4.6, Leading zero omitted, Abs format (unit mm)*
G04 Created by KiCad (PCBNEW 8.0.1-8.0.1-1~ubuntu22.04.1) date 2024-04-20 17:14:23*
%MOMM*%
%LPD*%
G01*
G04 APERTURE LIST*
G04 Aperture macros list*
%AMRoundRect*
0 Rectangle with rounded corners*
0 $1 Rounding radius*
0 $2 $3 $4 $5 $6 $7 $8 $9 X,Y pos of 4 corners*
0 Add a 4 corners polygon primitive as box body*
4,1,4,$2,$3,$4,$5,$6,$7,$8,$9,$2,$3,0*
0 Add four circle primitives for the rounded corners*
1,1,$1+$1,$2,$3*
1,1,$1+$1,$4,$5*
1,1,$1+$1,$6,$7*
1,1,$1+$1,$8,$9*
0 Add four rect primitives between the rounded corners*
20,1,$1+$1,$2,$3,$4,$5,0*
20,1,$1+$1,$4,$5,$6,$7,0*
20,1,$1+$1,$6,$7,$8,$9,0*
20,1,$1+$1,$8,$9,$2,$3,0*%
G04 Aperture macros list end*
%ADD10C,0.001000*%
%ADD11C,0.750000*%
%ADD12RoundRect,0.150000X0.150000X-0.512500X0.150000X0.512500X-0.150000X0.512500X-0.150000X-0.512500X0*%
%ADD13R,0.221000X0.792000*%
%ADD14RoundRect,0.250000X-1.500000X-1.000000X1.500000X-1.000000X1.500000X1.000000X-1.500000X1.000000X0*%
%ADD15RoundRect,0.250000X-0.262500X-0.450000X0.262500X-0.450000X0.262500X0.450000X-0.262500X0.450000X0*%
%ADD16RoundRect,0.150000X-0.150000X0.512500X-0.150000X-0.512500X0.150000X-0.512500X0.150000X0.512500X0*%
%ADD17RoundRect,0.250000X-0.450000X0.262500X-0.450000X-0.262500X0.450000X-0.262500X0.450000X0.262500X0*%
%ADD18R,1.500000X4.000000*%
%ADD19RoundRect,0.250000X-0.325000X-0.650000X0.325000X-0.650000X0.325000X0.650000X-0.325000X0.650000X0*%
%ADD20RoundRect,0.150000X-0.150000X0.825000X-0.150000X-0.825000X0.150000X-0.825000X0.150000X0.825000X0*%
%ADD21RoundRect,0.250000X0.250000X0.475000X-0.250000X0.475000X-0.250000X-0.475000X0.250000X-0.475000X0*%
%ADD22RoundRect,0.250000X-0.250000X-0.475000X0.250000X-0.475000X0.250000X0.475000X-0.250000X0.475000X0*%
%ADD23RoundRect,0.250000X0.325000X0.650000X-0.325000X0.650000X-0.325000X-0.650000X0.325000X-0.650000X0*%
%ADD24RoundRect,0.250000X-0.450000X-0.800000X0.450000X-0.800000X0.450000X0.800000X-0.450000X0.800000X0*%
%ADD25RoundRect,0.250000X0.900000X-1.000000X0.900000X1.000000X-0.900000X1.000000X-0.900000X-1.000000X0*%
%ADD26RoundRect,0.250000X-0.375000X-0.625000X0.375000X-0.625000X0.375000X0.625000X-0.375000X0.625000X0*%
%ADD27RoundRect,0.050000X0.100000X-0.285000X0.100000X0.285000X-0.100000X0.285000X-0.100000X-0.285000X0*%
%ADD28RoundRect,0.250000X0.262500X0.450000X-0.262500X0.450000X-0.262500X-0.450000X0.262500X-0.450000X0*%
%ADD29RoundRect,0.250000X0.450000X-0.262500X0.450000X0.262500X-0.450000X0.262500X-0.450000X-0.262500X0*%
%ADD30RoundRect,0.250000X-0.475000X0.250000X-0.475000X-0.250000X0.475000X-0.250000X0.475000X0.250000X0*%
%ADD31R,2.760000X0.650000*%
%ADD32RoundRect,0.250000X0.475000X-0.250000X0.475000X0.250000X-0.475000X0.250000X-0.475000X-0.250000X0*%
%ADD33RoundRect,0.150000X-0.587500X-0.150000X0.587500X-0.150000X0.587500X0.150000X-0.587500X0.150000X0*%
%ADD34R,4.245000X3.810000*%
%ADD35RoundRect,0.150000X-0.512500X-0.150000X0.512500X-0.150000X0.512500X0.150000X-0.512500X0.150000X0*%
%ADD36RoundRect,0.150000X0.512500X0.150000X-0.512500X0.150000X-0.512500X-0.150000X0.512500X-0.150000X0*%
%ADD37R,0.900000X0.600000*%
%ADD38R,0.600000X0.900000*%
%ADD39R,0.600000X1.050000*%
%ADD40R,1.500000X2.000000*%
%ADD41R,3.800000X2.000000*%
%ADD42R,0.600000X1.150000*%
%ADD43R,0.300000X1.150000*%
%ADD44O,1.000000X2.100000*%
%ADD45O,1.000000X1.800000*%
%ADD46RoundRect,0.150000X-0.300000X0.150000X-0.300000X-0.150000X0.300000X-0.150000X0.300000X0.150000X0*%
%ADD47RoundRect,0.150000X0.150000X0.300000X-0.150000X0.300000X-0.150000X-0.300000X0.150000X-0.300000X0*%
%ADD48RoundRect,0.150000X0.150000X0.375000X-0.150000X0.375000X-0.150000X-0.375000X0.150000X-0.375000X0*%
%ADD49RoundRect,0.250000X0.650000X-0.325000X0.650000X0.325000X-0.650000X0.325000X-0.650000X-0.325000X0*%
%ADD50RoundRect,0.250000X-0.900000X1.000000X-0.900000X-1.000000X0.900000X-1.000000X0.900000X1.000000X0*%
%ADD51R,1.000000X0.900000*%
%ADD52R,0.650000X0.400000*%
%ADD53RoundRect,0.125000X-0.625000X-0.125000X0.625000X-0.125000X0.625000X0.125000X-0.625000X0.125000X0*%
%ADD54RoundRect,0.125000X-0.125000X-0.625000X0.125000X-0.625000X0.125000X0.625000X-0.125000X0.625000X0*%
G04 APERTURE END LIST*
D10*
X86019000Y-96353900D02*
X84679000Y-96353900D01*
X84679000Y-97553900D01*
X86019000Y-97553900D01*
X86019000Y-96353900D01*
G36*
X86019000Y-96353900D02*
G01*
X84679000Y-96353900D01*
X84679000Y-97553900D01*
X86019000Y-97553900D01*
X86019000Y-96353900D01*
G37*
X86024000Y-98703900D02*
X84684000Y-98703900D01*
X84684000Y-99903900D01*
X86024000Y-99903900D01*
X86024000Y-98703900D01*
G36*
X86024000Y-98703900D02*
G01*
X84684000Y-98703900D01*
X84684000Y-99903900D01*
X86024000Y-99903900D01*
X86024000Y-98703900D01*
G37*
X88499000Y-96353900D02*
X87209000Y-96353900D01*
X87209000Y-97553900D01*
X88499000Y-97553900D01*
X88499000Y-96353900D01*
G36*
X88499000Y-96353900D02*
G01*
X87209000Y-96353900D01*
X87209000Y-97553900D01*
X88499000Y-97553900D01*
X88499000Y-96353900D01*
G37*
X88504000Y-98703900D02*
X87214000Y-98703900D01*
X87214000Y-99903900D01*
X88504000Y-99903900D01*
X88504000Y-98703900D01*
G36*
X88504000Y-98703900D02*
G01*
X87214000Y-98703900D01*
X87214000Y-99903900D01*
X88504000Y-99903900D01*
X88504000Y-98703900D01*
G37*
X90579000Y-96403900D02*
X89789000Y-96403900D01*
X89789000Y-97603900D01*
X90579000Y-97603900D01*
X90579000Y-96403900D01*
G36*
X90579000Y-96403900D02*
G01*
X89789000Y-96403900D01*
X89789000Y-97603900D01*
X90579000Y-97603900D01*
X90579000Y-96403900D01*
G37*
X90584000Y-98603900D02*
X89794000Y-98603900D01*
X89794000Y-99803900D01*
X90584000Y-99803900D01*
X90584000Y-98603900D01*
G36*
X90584000Y-98603900D02*
G01*
X89794000Y-98603900D01*
X89794000Y-99803900D01*
X90584000Y-99803900D01*
X90584000Y-98603900D01*
G37*
D11*
X56875000Y-164000000D02*
G75*
G02*
X56125000Y-164000000I-375000J0D01*
G01*
X56125000Y-164000000D02*
G75*
G02*
X56875000Y-164000000I375000J0D01*
G01*
D10*
X86019000Y-144353900D02*
X84679000Y-144353900D01*
X84679000Y-145553900D01*
X86019000Y-145553900D01*
X86019000Y-144353900D01*
G36*
X86019000Y-144353900D02*
G01*
X84679000Y-144353900D01*
X84679000Y-145553900D01*
X86019000Y-145553900D01*
X86019000Y-144353900D01*
G37*
X86024000Y-146703900D02*
X84684000Y-146703900D01*
X84684000Y-147903900D01*
X86024000Y-147903900D01*
X86024000Y-146703900D01*
G36*
X86024000Y-146703900D02*
G01*
X84684000Y-146703900D01*
X84684000Y-147903900D01*
X86024000Y-147903900D01*
X86024000Y-146703900D01*
G37*
X88499000Y-144353900D02*
X87209000Y-144353900D01*
X87209000Y-145553900D01*
X88499000Y-145553900D01*
X88499000Y-144353900D01*
G36*
X88499000Y-144353900D02*
G01*
X87209000Y-144353900D01*
X87209000Y-145553900D01*
X88499000Y-145553900D01*
X88499000Y-144353900D01*
G37*
X88504000Y-146703900D02*
X87214000Y-146703900D01*
X87214000Y-147903900D01*
X88504000Y-147903900D01*
X88504000Y-146703900D01*
G36*
X88504000Y-146703900D02*
G01*
X87214000Y-146703900D01*
X87214000Y-147903900D01*
X88504000Y-147903900D01*
X88504000Y-146703900D01*
G37*
X90579000Y-144403900D02*
X89789000Y-144403900D01*
X89789000Y-145603900D01*
X90579000Y-145603900D01*
X90579000Y-144403900D01*
G36*
X90579000Y-144403900D02*
G01*
X89789000Y-144403900D01*
X89789000Y-145603900D01*
X90579000Y-145603900D01*
X90579000Y-144403900D01*
G37*
X90584000Y-146603900D02*
X89794000Y-146603900D01*
X89794000Y-147803900D01*
X90584000Y-147803900D01*
X90584000Y-146603900D01*
G36*
X90584000Y-146603900D02*
G01*
X89794000Y-146603900D01*
X89794000Y-147803900D01*
X90584000Y-147803900D01*
X90584000Y-146603900D01*
G37*
X72719000Y-96428900D02*
X71379000Y-96428900D01*
X71379000Y-97628900D01*
X72719000Y-97628900D01*
X72719000Y-96428900D01*
G36*
X72719000Y-96428900D02*
G01*
X71379000Y-96428900D01*
X71379000Y-97628900D01*
X72719000Y-97628900D01*
X72719000Y-96428900D01*
G37*
X72724000Y-98778900D02*
X71384000Y-98778900D01*
X71384000Y-99978900D01*
X72724000Y-99978900D01*
X72724000Y-98778900D01*
G36*
X72724000Y-98778900D02*
G01*
X71384000Y-98778900D01*
X71384000Y-99978900D01*
X72724000Y-99978900D01*
X72724000Y-98778900D01*
G37*
X75199000Y-96428900D02*
X73909000Y-96428900D01*
X73909000Y-97628900D01*
X75199000Y-97628900D01*
X75199000Y-96428900D01*
G36*
X75199000Y-96428900D02*
G01*
X73909000Y-96428900D01*
X73909000Y-97628900D01*
X75199000Y-97628900D01*
X75199000Y-96428900D01*
G37*
X75204000Y-98778900D02*
X73914000Y-98778900D01*
X73914000Y-99978900D01*
X75204000Y-99978900D01*
X75204000Y-98778900D01*
G36*
X75204000Y-98778900D02*
G01*
X73914000Y-98778900D01*
X73914000Y-99978900D01*
X75204000Y-99978900D01*
X75204000Y-98778900D01*
G37*
X77279000Y-96478900D02*
X76489000Y-96478900D01*
X76489000Y-97678900D01*
X77279000Y-97678900D01*
X77279000Y-96478900D01*
G36*
X77279000Y-96478900D02*
G01*
X76489000Y-96478900D01*
X76489000Y-97678900D01*
X77279000Y-97678900D01*
X77279000Y-96478900D01*
G37*
X77284000Y-98678900D02*
X76494000Y-98678900D01*
X76494000Y-99878900D01*
X77284000Y-99878900D01*
X77284000Y-98678900D01*
G36*
X77284000Y-98678900D02*
G01*
X76494000Y-98678900D01*
X76494000Y-99878900D01*
X77284000Y-99878900D01*
X77284000Y-98678900D01*
G37*
X72719000Y-128428900D02*
X71379000Y-128428900D01*
X71379000Y-129628900D01*
X72719000Y-129628900D01*
X72719000Y-128428900D01*
G36*
X72719000Y-128428900D02*
G01*
X71379000Y-128428900D01*
X71379000Y-129628900D01*
X72719000Y-129628900D01*
X72719000Y-128428900D01*
G37*
X72724000Y-130778900D02*
X71384000Y-130778900D01*
X71384000Y-131978900D01*
X72724000Y-131978900D01*
X72724000Y-130778900D01*
G36*
X72724000Y-130778900D02*
G01*
X71384000Y-130778900D01*
X71384000Y-131978900D01*
X72724000Y-131978900D01*
X72724000Y-130778900D01*
G37*
X75199000Y-128428900D02*
X73909000Y-128428900D01*
X73909000Y-129628900D01*
X75199000Y-129628900D01*
X75199000Y-128428900D01*
G36*
X75199000Y-128428900D02*
G01*
X73909000Y-128428900D01*
X73909000Y-129628900D01*
X75199000Y-129628900D01*
X75199000Y-128428900D01*
G37*
X75204000Y-130778900D02*
X73914000Y-130778900D01*
X73914000Y-131978900D01*
X75204000Y-131978900D01*
X75204000Y-130778900D01*
G36*
X75204000Y-130778900D02*
G01*
X73914000Y-130778900D01*
X73914000Y-131978900D01*
X75204000Y-131978900D01*
X75204000Y-130778900D01*
G37*
X77279000Y-128478900D02*
X76489000Y-128478900D01*
X76489000Y-129678900D01*
X77279000Y-129678900D01*
X77279000Y-128478900D01*
G36*
X77279000Y-128478900D02*
G01*
X76489000Y-128478900D01*
X76489000Y-129678900D01*
X77279000Y-129678900D01*
X77279000Y-128478900D01*
G37*
X77284000Y-130678900D02*
X76494000Y-130678900D01*
X76494000Y-131878900D01*
X77284000Y-131878900D01*
X77284000Y-130678900D01*
G36*
X77284000Y-130678900D02*
G01*
X76494000Y-130678900D01*
X76494000Y-131878900D01*
X77284000Y-131878900D01*
X77284000Y-130678900D01*
G37*
X112597000Y-112070900D02*
X111257000Y-112070900D01*
X111257000Y-113270900D01*
X112597000Y-113270900D01*
X112597000Y-112070900D01*
G36*
X112597000Y-112070900D02*
G01*
X111257000Y-112070900D01*
X111257000Y-113270900D01*
X112597000Y-113270900D01*
X112597000Y-112070900D01*
G37*
X112602000Y-114420900D02*
X111262000Y-114420900D01*
X111262000Y-115620900D01*
X112602000Y-115620900D01*
X112602000Y-114420900D01*
G36*
X112602000Y-114420900D02*
G01*
X111262000Y-114420900D01*
X111262000Y-115620900D01*
X112602000Y-115620900D01*
X112602000Y-114420900D01*
G37*
X115077000Y-112070900D02*
X113787000Y-112070900D01*
X113787000Y-113270900D01*
X115077000Y-113270900D01*
X115077000Y-112070900D01*
G36*
X115077000Y-112070900D02*
G01*
X113787000Y-112070900D01*
X113787000Y-113270900D01*
X115077000Y-113270900D01*
X115077000Y-112070900D01*
G37*
X115082000Y-114420900D02*
X113792000Y-114420900D01*
X113792000Y-115620900D01*
X115082000Y-115620900D01*
X115082000Y-114420900D01*
G36*
X115082000Y-114420900D02*
G01*
X113792000Y-114420900D01*
X113792000Y-115620900D01*
X115082000Y-115620900D01*
X115082000Y-114420900D01*
G37*
X117157000Y-112120900D02*
X116367000Y-112120900D01*
X116367000Y-113320900D01*
X117157000Y-113320900D01*
X117157000Y-112120900D01*
G36*
X117157000Y-112120900D02*
G01*
X116367000Y-112120900D01*
X116367000Y-113320900D01*
X117157000Y-113320900D01*
X117157000Y-112120900D01*
G37*
X117162000Y-114320900D02*
X116372000Y-114320900D01*
X116372000Y-115520900D01*
X117162000Y-115520900D01*
X117162000Y-114320900D01*
G36*
X117162000Y-114320900D02*
G01*
X116372000Y-114320900D01*
X116372000Y-115520900D01*
X117162000Y-115520900D01*
X117162000Y-114320900D01*
G37*
D11*
X56875000Y-79500000D02*
G75*
G02*
X56125000Y-79500000I-375000J0D01*
G01*
X56125000Y-79500000D02*
G75*
G02*
X56875000Y-79500000I375000J0D01*
G01*
D10*
X99358000Y-128199900D02*
X98018000Y-128199900D01*
X98018000Y-129399900D01*
X99358000Y-129399900D01*
X99358000Y-128199900D01*
G36*
X99358000Y-128199900D02*
G01*
X98018000Y-128199900D01*
X98018000Y-129399900D01*
X99358000Y-129399900D01*
X99358000Y-128199900D01*
G37*
X99363000Y-130549900D02*
X98023000Y-130549900D01*
X98023000Y-131749900D01*
X99363000Y-131749900D01*
X99363000Y-130549900D01*
G36*
X99363000Y-130549900D02*
G01*
X98023000Y-130549900D01*
X98023000Y-131749900D01*
X99363000Y-131749900D01*
X99363000Y-130549900D01*
G37*
X101838000Y-128199900D02*
X100548000Y-128199900D01*
X100548000Y-129399900D01*
X101838000Y-129399900D01*
X101838000Y-128199900D01*
G36*
X101838000Y-128199900D02*
G01*
X100548000Y-128199900D01*
X100548000Y-129399900D01*
X101838000Y-129399900D01*
X101838000Y-128199900D01*
G37*
X101843000Y-130549900D02*
X100553000Y-130549900D01*
X100553000Y-131749900D01*
X101843000Y-131749900D01*
X101843000Y-130549900D01*
G36*
X101843000Y-130549900D02*
G01*
X100553000Y-130549900D01*
X100553000Y-131749900D01*
X101843000Y-131749900D01*
X101843000Y-130549900D01*
G37*
X103918000Y-128249900D02*
X103128000Y-128249900D01*
X103128000Y-129449900D01*
X103918000Y-129449900D01*
X103918000Y-128249900D01*
G36*
X103918000Y-128249900D02*
G01*
X103128000Y-128249900D01*
X103128000Y-129449900D01*
X103918000Y-129449900D01*
X103918000Y-128249900D01*
G37*
X103923000Y-130449900D02*
X103133000Y-130449900D01*
X103133000Y-131649900D01*
X103923000Y-131649900D01*
X103923000Y-130449900D01*
G36*
X103923000Y-130449900D02*
G01*
X103133000Y-130449900D01*
X103133000Y-131649900D01*
X103923000Y-131649900D01*
X103923000Y-130449900D01*
G37*
X112597000Y-144070900D02*
X111257000Y-144070900D01*
X111257000Y-145270900D01*
X112597000Y-145270900D01*
X112597000Y-144070900D01*
G36*
X112597000Y-144070900D02*
G01*
X111257000Y-144070900D01*
X111257000Y-145270900D01*
X112597000Y-145270900D01*
X112597000Y-144070900D01*
G37*
X112602000Y-146420900D02*
X111262000Y-146420900D01*
X111262000Y-147620900D01*
X112602000Y-147620900D01*
X112602000Y-146420900D01*
G36*
X112602000Y-146420900D02*
G01*
X111262000Y-146420900D01*
X111262000Y-147620900D01*
X112602000Y-147620900D01*
X112602000Y-146420900D01*
G37*
X115077000Y-144070900D02*
X113787000Y-144070900D01*
X113787000Y-145270900D01*
X115077000Y-145270900D01*
X115077000Y-144070900D01*
G36*
X115077000Y-144070900D02*
G01*
X113787000Y-144070900D01*
X113787000Y-145270900D01*
X115077000Y-145270900D01*
X115077000Y-144070900D01*
G37*
X115082000Y-146420900D02*
X113792000Y-146420900D01*
X113792000Y-147620900D01*
X115082000Y-147620900D01*
X115082000Y-146420900D01*
G36*
X115082000Y-146420900D02*
G01*
X113792000Y-146420900D01*
X113792000Y-147620900D01*
X115082000Y-147620900D01*
X115082000Y-146420900D01*
G37*
X117157000Y-144120900D02*
X116367000Y-144120900D01*
X116367000Y-145320900D01*
X117157000Y-145320900D01*
X117157000Y-144120900D01*
G36*
X117157000Y-144120900D02*
G01*
X116367000Y-144120900D01*
X116367000Y-145320900D01*
X117157000Y-145320900D01*
X117157000Y-144120900D01*
G37*
X117162000Y-146320900D02*
X116372000Y-146320900D01*
X116372000Y-147520900D01*
X117162000Y-147520900D01*
X117162000Y-146320900D01*
G36*
X117162000Y-146320900D02*
G01*
X116372000Y-146320900D01*
X116372000Y-147520900D01*
X117162000Y-147520900D01*
X117162000Y-146320900D01*
G37*
X99358000Y-144199900D02*
X98018000Y-144199900D01*
X98018000Y-145399900D01*
X99358000Y-145399900D01*
X99358000Y-144199900D01*
G36*
X99358000Y-144199900D02*
G01*
X98018000Y-144199900D01*
X98018000Y-145399900D01*
X99358000Y-145399900D01*
X99358000Y-144199900D01*
G37*
X99363000Y-146549900D02*
X98023000Y-146549900D01*
X98023000Y-147749900D01*
X99363000Y-147749900D01*
X99363000Y-146549900D01*
G36*
X99363000Y-146549900D02*
G01*
X98023000Y-146549900D01*
X98023000Y-147749900D01*
X99363000Y-147749900D01*
X99363000Y-146549900D01*
G37*
X101838000Y-144199900D02*
X100548000Y-144199900D01*
X100548000Y-145399900D01*
X101838000Y-145399900D01*
X101838000Y-144199900D01*
G36*
X101838000Y-144199900D02*
G01*
X100548000Y-144199900D01*
X100548000Y-145399900D01*
X101838000Y-145399900D01*
X101838000Y-144199900D01*
G37*
X101843000Y-146549900D02*
X100553000Y-146549900D01*
X100553000Y-147749900D01*
X101843000Y-147749900D01*
X101843000Y-146549900D01*
G36*
X101843000Y-146549900D02*
G01*
X100553000Y-146549900D01*
X100553000Y-147749900D01*
X101843000Y-147749900D01*
X101843000Y-146549900D01*
G37*
X103918000Y-144249900D02*
X103128000Y-144249900D01*
X103128000Y-145449900D01*
X103918000Y-145449900D01*
X103918000Y-144249900D01*
G36*
X103918000Y-144249900D02*
G01*
X103128000Y-144249900D01*
X103128000Y-145449900D01*
X103918000Y-145449900D01*
X103918000Y-144249900D01*
G37*
X103923000Y-146449900D02*
X103133000Y-146449900D01*
X103133000Y-147649900D01*
X103923000Y-147649900D01*
X103923000Y-146449900D01*
G36*
X103923000Y-146449900D02*
G01*
X103133000Y-146449900D01*
X103133000Y-147649900D01*
X103923000Y-147649900D01*
X103923000Y-146449900D01*
G37*
D11*
X131875000Y-164000000D02*
G75*
G02*
X131125000Y-164000000I-375000J0D01*
G01*
X131125000Y-164000000D02*
G75*
G02*
X131875000Y-164000000I375000J0D01*
G01*
D10*
X72719000Y-112428900D02*
X71379000Y-112428900D01*
X71379000Y-113628900D01*
X72719000Y-113628900D01*
X72719000Y-112428900D01*
G36*
X72719000Y-112428900D02*
G01*
X71379000Y-112428900D01*
X71379000Y-113628900D01*
X72719000Y-113628900D01*
X72719000Y-112428900D01*
G37*
X72724000Y-114778900D02*
X71384000Y-114778900D01*
X71384000Y-115978900D01*
X72724000Y-115978900D01*
X72724000Y-114778900D01*
G36*
X72724000Y-114778900D02*
G01*
X71384000Y-114778900D01*
X71384000Y-115978900D01*
X72724000Y-115978900D01*
X72724000Y-114778900D01*
G37*
X75199000Y-112428900D02*
X73909000Y-112428900D01*
X73909000Y-113628900D01*
X75199000Y-113628900D01*
X75199000Y-112428900D01*
G36*
X75199000Y-112428900D02*
G01*
X73909000Y-112428900D01*
X73909000Y-113628900D01*
X75199000Y-113628900D01*
X75199000Y-112428900D01*
G37*
X75204000Y-114778900D02*
X73914000Y-114778900D01*
X73914000Y-115978900D01*
X75204000Y-115978900D01*
X75204000Y-114778900D01*
G36*
X75204000Y-114778900D02*
G01*
X73914000Y-114778900D01*
X73914000Y-115978900D01*
X75204000Y-115978900D01*
X75204000Y-114778900D01*
G37*
X77279000Y-112478900D02*
X76489000Y-112478900D01*
X76489000Y-113678900D01*
X77279000Y-113678900D01*
X77279000Y-112478900D01*
G36*
X77279000Y-112478900D02*
G01*
X76489000Y-112478900D01*
X76489000Y-113678900D01*
X77279000Y-113678900D01*
X77279000Y-112478900D01*
G37*
X77284000Y-114678900D02*
X76494000Y-114678900D01*
X76494000Y-115878900D01*
X77284000Y-115878900D01*
X77284000Y-114678900D01*
G36*
X77284000Y-114678900D02*
G01*
X76494000Y-114678900D01*
X76494000Y-115878900D01*
X77284000Y-115878900D01*
X77284000Y-114678900D01*
G37*
X86019000Y-128353900D02*
X84679000Y-128353900D01*
X84679000Y-129553900D01*
X86019000Y-129553900D01*
X86019000Y-128353900D01*
G36*
X86019000Y-128353900D02*
G01*
X84679000Y-128353900D01*
X84679000Y-129553900D01*
X86019000Y-129553900D01*
X86019000Y-128353900D01*
G37*
X86024000Y-130703900D02*
X84684000Y-130703900D01*
X84684000Y-131903900D01*
X86024000Y-131903900D01*
X86024000Y-130703900D01*
G36*
X86024000Y-130703900D02*
G01*
X84684000Y-130703900D01*
X84684000Y-131903900D01*
X86024000Y-131903900D01*
X86024000Y-130703900D01*
G37*
X88499000Y-128353900D02*
X87209000Y-128353900D01*
X87209000Y-129553900D01*
X88499000Y-129553900D01*
X88499000Y-128353900D01*
G36*
X88499000Y-128353900D02*
G01*
X87209000Y-128353900D01*
X87209000Y-129553900D01*
X88499000Y-129553900D01*
X88499000Y-128353900D01*
G37*
X88504000Y-130703900D02*
X87214000Y-130703900D01*
X87214000Y-131903900D01*
X88504000Y-131903900D01*
X88504000Y-130703900D01*
G36*
X88504000Y-130703900D02*
G01*
X87214000Y-130703900D01*
X87214000Y-131903900D01*
X88504000Y-131903900D01*
X88504000Y-130703900D01*
G37*
X90579000Y-128403900D02*
X89789000Y-128403900D01*
X89789000Y-129603900D01*
X90579000Y-129603900D01*
X90579000Y-128403900D01*
G36*
X90579000Y-128403900D02*
G01*
X89789000Y-128403900D01*
X89789000Y-129603900D01*
X90579000Y-129603900D01*
X90579000Y-128403900D01*
G37*
X90584000Y-130603900D02*
X89794000Y-130603900D01*
X89794000Y-131803900D01*
X90584000Y-131803900D01*
X90584000Y-130603900D01*
G36*
X90584000Y-130603900D02*
G01*
X89794000Y-130603900D01*
X89794000Y-131803900D01*
X90584000Y-131803900D01*
X90584000Y-130603900D01*
G37*
X99358000Y-112199900D02*
X98018000Y-112199900D01*
X98018000Y-113399900D01*
X99358000Y-113399900D01*
X99358000Y-112199900D01*
G36*
X99358000Y-112199900D02*
G01*
X98018000Y-112199900D01*
X98018000Y-113399900D01*
X99358000Y-113399900D01*
X99358000Y-112199900D01*
G37*
X99363000Y-114549900D02*
X98023000Y-114549900D01*
X98023000Y-115749900D01*
X99363000Y-115749900D01*
X99363000Y-114549900D01*
G36*
X99363000Y-114549900D02*
G01*
X98023000Y-114549900D01*
X98023000Y-115749900D01*
X99363000Y-115749900D01*
X99363000Y-114549900D01*
G37*
X101838000Y-112199900D02*
X100548000Y-112199900D01*
X100548000Y-113399900D01*
X101838000Y-113399900D01*
X101838000Y-112199900D01*
G36*
X101838000Y-112199900D02*
G01*
X100548000Y-112199900D01*
X100548000Y-113399900D01*
X101838000Y-113399900D01*
X101838000Y-112199900D01*
G37*
X101843000Y-114549900D02*
X100553000Y-114549900D01*
X100553000Y-115749900D01*
X101843000Y-115749900D01*
X101843000Y-114549900D01*
G36*
X101843000Y-114549900D02*
G01*
X100553000Y-114549900D01*
X100553000Y-115749900D01*
X101843000Y-115749900D01*
X101843000Y-114549900D01*
G37*
X103918000Y-112249900D02*
X103128000Y-112249900D01*
X103128000Y-113449900D01*
X103918000Y-113449900D01*
X103918000Y-112249900D01*
G36*
X103918000Y-112249900D02*
G01*
X103128000Y-112249900D01*
X103128000Y-113449900D01*
X103918000Y-113449900D01*
X103918000Y-112249900D01*
G37*
X103923000Y-114449900D02*
X103133000Y-114449900D01*
X103133000Y-115649900D01*
X103923000Y-115649900D01*
X103923000Y-114449900D01*
G36*
X103923000Y-114449900D02*
G01*
X103133000Y-114449900D01*
X103133000Y-115649900D01*
X103923000Y-115649900D01*
X103923000Y-114449900D01*
G37*
X99358000Y-96199900D02*
X98018000Y-96199900D01*
X98018000Y-97399900D01*
X99358000Y-97399900D01*
X99358000Y-96199900D01*
G36*
X99358000Y-96199900D02*
G01*
X98018000Y-96199900D01*
X98018000Y-97399900D01*
X99358000Y-97399900D01*
X99358000Y-96199900D01*
G37*
X99363000Y-98549900D02*
X98023000Y-98549900D01*
X98023000Y-99749900D01*
X99363000Y-99749900D01*
X99363000Y-98549900D01*
G36*
X99363000Y-98549900D02*
G01*
X98023000Y-98549900D01*
X98023000Y-99749900D01*
X99363000Y-99749900D01*
X99363000Y-98549900D01*
G37*
X101838000Y-96199900D02*
X100548000Y-96199900D01*
X100548000Y-97399900D01*
X101838000Y-97399900D01*
X101838000Y-96199900D01*
G36*
X101838000Y-96199900D02*
G01*
X100548000Y-96199900D01*
X100548000Y-97399900D01*
X101838000Y-97399900D01*
X101838000Y-96199900D01*
G37*
X101843000Y-98549900D02*
X100553000Y-98549900D01*
X100553000Y-99749900D01*
X101843000Y-99749900D01*
X101843000Y-98549900D01*
G36*
X101843000Y-98549900D02*
G01*
X100553000Y-98549900D01*
X100553000Y-99749900D01*
X101843000Y-99749900D01*
X101843000Y-98549900D01*
G37*
X103918000Y-96249900D02*
X103128000Y-96249900D01*
X103128000Y-97449900D01*
X103918000Y-97449900D01*
X103918000Y-96249900D01*
G36*
X103918000Y-96249900D02*
G01*
X103128000Y-96249900D01*
X103128000Y-97449900D01*
X103918000Y-97449900D01*
X103918000Y-96249900D01*
G37*
X103923000Y-98449900D02*
X103133000Y-98449900D01*
X103133000Y-99649900D01*
X103923000Y-99649900D01*
X103923000Y-98449900D01*
G36*
X103923000Y-98449900D02*
G01*
X103133000Y-98449900D01*
X103133000Y-99649900D01*
X103923000Y-99649900D01*
X103923000Y-98449900D01*
G37*
X112597000Y-128070900D02*
X111257000Y-128070900D01*
X111257000Y-129270900D01*
X112597000Y-129270900D01*
X112597000Y-128070900D01*
G36*
X112597000Y-128070900D02*
G01*
X111257000Y-128070900D01*
X111257000Y-129270900D01*
X112597000Y-129270900D01*
X112597000Y-128070900D01*
G37*
X112602000Y-130420900D02*
X111262000Y-130420900D01*
X111262000Y-131620900D01*
X112602000Y-131620900D01*
X112602000Y-130420900D01*
G36*
X112602000Y-130420900D02*
G01*
X111262000Y-130420900D01*
X111262000Y-131620900D01*
X112602000Y-131620900D01*
X112602000Y-130420900D01*
G37*
X115077000Y-128070900D02*
X113787000Y-128070900D01*
X113787000Y-129270900D01*
X115077000Y-129270900D01*
X115077000Y-128070900D01*
G36*
X115077000Y-128070900D02*
G01*
X113787000Y-128070900D01*
X113787000Y-129270900D01*
X115077000Y-129270900D01*
X115077000Y-128070900D01*
G37*
X115082000Y-130420900D02*
X113792000Y-130420900D01*
X113792000Y-131620900D01*
X115082000Y-131620900D01*
X115082000Y-130420900D01*
G36*
X115082000Y-130420900D02*
G01*
X113792000Y-130420900D01*
X113792000Y-131620900D01*
X115082000Y-131620900D01*
X115082000Y-130420900D01*
G37*
X117157000Y-128120900D02*
X116367000Y-128120900D01*
X116367000Y-129320900D01*
X117157000Y-129320900D01*
X117157000Y-128120900D01*
G36*
X117157000Y-128120900D02*
G01*
X116367000Y-128120900D01*
X116367000Y-129320900D01*
X117157000Y-129320900D01*
X117157000Y-128120900D01*
G37*
X117162000Y-130320900D02*
X116372000Y-130320900D01*
X116372000Y-131520900D01*
X117162000Y-131520900D01*
X117162000Y-130320900D01*
G36*
X117162000Y-130320900D02*
G01*
X116372000Y-130320900D01*
X116372000Y-131520900D01*
X117162000Y-131520900D01*
X117162000Y-130320900D01*
G37*
X72719000Y-144428900D02*
X71379000Y-144428900D01*
X71379000Y-145628900D01*
X72719000Y-145628900D01*
X72719000Y-144428900D01*
G36*
X72719000Y-144428900D02*
G01*
X71379000Y-144428900D01*
X71379000Y-145628900D01*
X72719000Y-145628900D01*
X72719000Y-144428900D01*
G37*
X72724000Y-146778900D02*
X71384000Y-146778900D01*
X71384000Y-147978900D01*
X72724000Y-147978900D01*
X72724000Y-146778900D01*
G36*
X72724000Y-146778900D02*
G01*
X71384000Y-146778900D01*
X71384000Y-147978900D01*
X72724000Y-147978900D01*
X72724000Y-146778900D01*
G37*
X75199000Y-144428900D02*
X73909000Y-144428900D01*
X73909000Y-145628900D01*
X75199000Y-145628900D01*
X75199000Y-144428900D01*
G36*
X75199000Y-144428900D02*
G01*
X73909000Y-144428900D01*
X73909000Y-145628900D01*
X75199000Y-145628900D01*
X75199000Y-144428900D01*
G37*
X75204000Y-146778900D02*
X73914000Y-146778900D01*
X73914000Y-147978900D01*
X75204000Y-147978900D01*
X75204000Y-146778900D01*
G36*
X75204000Y-146778900D02*
G01*
X73914000Y-146778900D01*
X73914000Y-147978900D01*
X75204000Y-147978900D01*
X75204000Y-146778900D01*
G37*
X77279000Y-144478900D02*
X76489000Y-144478900D01*
X76489000Y-145678900D01*
X77279000Y-145678900D01*
X77279000Y-144478900D01*
G36*
X77279000Y-144478900D02*
G01*
X76489000Y-144478900D01*
X76489000Y-145678900D01*
X77279000Y-145678900D01*
X77279000Y-144478900D01*
G37*
X77284000Y-146678900D02*
X76494000Y-146678900D01*
X76494000Y-147878900D01*
X77284000Y-147878900D01*
X77284000Y-146678900D01*
G36*
X77284000Y-146678900D02*
G01*
X76494000Y-146678900D01*
X76494000Y-147878900D01*
X77284000Y-147878900D01*
X77284000Y-146678900D01*
G37*
D11*
X131875000Y-79500000D02*
G75*
G02*
X131125000Y-79500000I-375000J0D01*
G01*
X131125000Y-79500000D02*
G75*
G02*
X131875000Y-79500000I375000J0D01*
G01*
D10*
X112597000Y-96070900D02*
X111257000Y-96070900D01*
X111257000Y-97270900D01*
X112597000Y-97270900D01*
X112597000Y-96070900D01*
G36*
X112597000Y-96070900D02*
G01*
X111257000Y-96070900D01*
X111257000Y-97270900D01*
X112597000Y-97270900D01*
X112597000Y-96070900D01*
G37*
X112602000Y-98420900D02*
X111262000Y-98420900D01*
X111262000Y-99620900D01*
X112602000Y-99620900D01*
X112602000Y-98420900D01*
G36*
X112602000Y-98420900D02*
G01*
X111262000Y-98420900D01*
X111262000Y-99620900D01*
X112602000Y-99620900D01*
X112602000Y-98420900D01*
G37*
X115077000Y-96070900D02*
X113787000Y-96070900D01*
X113787000Y-97270900D01*
X115077000Y-97270900D01*
X115077000Y-96070900D01*
G36*
X115077000Y-96070900D02*
G01*
X113787000Y-96070900D01*
X113787000Y-97270900D01*
X115077000Y-97270900D01*
X115077000Y-96070900D01*
G37*
X115082000Y-98420900D02*
X113792000Y-98420900D01*
X113792000Y-99620900D01*
X115082000Y-99620900D01*
X115082000Y-98420900D01*
G36*
X115082000Y-98420900D02*
G01*
X113792000Y-98420900D01*
X113792000Y-99620900D01*
X115082000Y-99620900D01*
X115082000Y-98420900D01*
G37*
X117157000Y-96120900D02*
X116367000Y-96120900D01*
X116367000Y-97320900D01*
X117157000Y-97320900D01*
X117157000Y-96120900D01*
G36*
X117157000Y-96120900D02*
G01*
X116367000Y-96120900D01*
X116367000Y-97320900D01*
X117157000Y-97320900D01*
X117157000Y-96120900D01*
G37*
X117162000Y-98320900D02*
X116372000Y-98320900D01*
X116372000Y-99520900D01*
X117162000Y-99520900D01*
X117162000Y-98320900D01*
G36*
X117162000Y-98320900D02*
G01*
X116372000Y-98320900D01*
X116372000Y-99520900D01*
X117162000Y-99520900D01*
X117162000Y-98320900D01*
G37*
X86019000Y-112353900D02*
X84679000Y-112353900D01*
X84679000Y-113553900D01*
X86019000Y-113553900D01*
X86019000Y-112353900D01*
G36*
X86019000Y-112353900D02*
G01*
X84679000Y-112353900D01*
X84679000Y-113553900D01*
X86019000Y-113553900D01*
X86019000Y-112353900D01*
G37*
X86024000Y-114703900D02*
X84684000Y-114703900D01*
X84684000Y-115903900D01*
X86024000Y-115903900D01*
X86024000Y-114703900D01*
G36*
X86024000Y-114703900D02*
G01*
X84684000Y-114703900D01*
X84684000Y-115903900D01*
X86024000Y-115903900D01*
X86024000Y-114703900D01*
G37*
X88499000Y-112353900D02*
X87209000Y-112353900D01*
X87209000Y-113553900D01*
X88499000Y-113553900D01*
X88499000Y-112353900D01*
G36*
X88499000Y-112353900D02*
G01*
X87209000Y-112353900D01*
X87209000Y-113553900D01*
X88499000Y-113553900D01*
X88499000Y-112353900D01*
G37*
X88504000Y-114703900D02*
X87214000Y-114703900D01*
X87214000Y-115903900D01*
X88504000Y-115903900D01*
X88504000Y-114703900D01*
G36*
X88504000Y-114703900D02*
G01*
X87214000Y-114703900D01*
X87214000Y-115903900D01*
X88504000Y-115903900D01*
X88504000Y-114703900D01*
G37*
X90579000Y-112403900D02*
X89789000Y-112403900D01*
X89789000Y-113603900D01*
X90579000Y-113603900D01*
X90579000Y-112403900D01*
G36*
X90579000Y-112403900D02*
G01*
X89789000Y-112403900D01*
X89789000Y-113603900D01*
X90579000Y-113603900D01*
X90579000Y-112403900D01*
G37*
X90584000Y-114603900D02*
X89794000Y-114603900D01*
X89794000Y-115803900D01*
X90584000Y-115803900D01*
X90584000Y-114603900D01*
G36*
X90584000Y-114603900D02*
G01*
X89794000Y-114603900D01*
X89794000Y-115803900D01*
X90584000Y-115803900D01*
X90584000Y-114603900D01*
G37*
D12*
X57912500Y-57437500D03*
X58862500Y-57437500D03*
X59812500Y-57437500D03*
X59812500Y-55162500D03*
X57912500Y-55162500D03*
D13*
X90937000Y-95187900D03*
X90435000Y-95187900D03*
X89933000Y-95187900D03*
X89431000Y-95187900D03*
X88929000Y-95187900D03*
X88427000Y-95187900D03*
X87925000Y-95187900D03*
X87423000Y-95187900D03*
X86921000Y-95187900D03*
X86419000Y-95187900D03*
X85917000Y-95187900D03*
X85415000Y-95187900D03*
X84913000Y-95187900D03*
X84411000Y-95187900D03*
X84424000Y-101019900D03*
X84924000Y-101019900D03*
X85424000Y-101019900D03*
X85924000Y-101019900D03*
X86424000Y-101019900D03*
X86921000Y-101019900D03*
X87424000Y-101019900D03*
X87925000Y-101019900D03*
X88427000Y-101019900D03*
X88929000Y-101019900D03*
X89431000Y-101019900D03*
X89924000Y-101019900D03*
X90435000Y-101019900D03*
X90924000Y-101019900D03*
D14*
X54350000Y-42475000D03*
X60850000Y-42475000D03*
D15*
X59687500Y-32917000D03*
X61512500Y-32917000D03*
D16*
X99100000Y-55125000D03*
X98150000Y-55125000D03*
X97200000Y-55125000D03*
X97200000Y-57400000D03*
X99100000Y-57400000D03*
D17*
X111407499Y-41146500D03*
X111407499Y-42971500D03*
D18*
X41925000Y-57925000D03*
X45525000Y-57925000D03*
D16*
X116900000Y-55125000D03*
X115950000Y-55125000D03*
X115000000Y-55125000D03*
X115000000Y-57400000D03*
X116900000Y-57400000D03*
D19*
X42772200Y-45308000D03*
X45722200Y-45308000D03*
D20*
X77610000Y-53075100D03*
X76340000Y-53075100D03*
X75070000Y-53075100D03*
X73800000Y-53075100D03*
X72530000Y-53075100D03*
X71260000Y-53075100D03*
X69990000Y-53075100D03*
X68720000Y-53075100D03*
X68720000Y-58025100D03*
X69990000Y-58025100D03*
X71260000Y-58025100D03*
X72530000Y-58025100D03*
X73800000Y-58025100D03*
X75070000Y-58025100D03*
X76340000Y-58025100D03*
X77610000Y-58025100D03*
D21*
X76431000Y-31097000D03*
X74531000Y-31097000D03*
D13*
X90937000Y-143187900D03*
X90435000Y-143187900D03*
X89933000Y-143187900D03*
X89431000Y-143187900D03*
X88929000Y-143187900D03*
X88427000Y-143187900D03*
X87925000Y-143187900D03*
X87423000Y-143187900D03*
X86921000Y-143187900D03*
X86419000Y-143187900D03*
X85917000Y-143187900D03*
X85415000Y-143187900D03*
X84913000Y-143187900D03*
X84411000Y-143187900D03*
X84424000Y-149019900D03*
X84924000Y-149019900D03*
X85424000Y-149019900D03*
X85924000Y-149019900D03*
X86424000Y-149019900D03*
X86921000Y-149019900D03*
X87424000Y-149019900D03*
X87925000Y-149019900D03*
X88427000Y-149019900D03*
X88929000Y-149019900D03*
X89431000Y-149019900D03*
X89924000Y-149019900D03*
X90435000Y-149019900D03*
X90924000Y-149019900D03*
D17*
X76500000Y-40984500D03*
X76500000Y-42809500D03*
D22*
X57912500Y-59350000D03*
X59812500Y-59350000D03*
D23*
X53775000Y-57025000D03*
X50825000Y-57025000D03*
D24*
X40993200Y-51577000D03*
X45393200Y-51577000D03*
D25*
X42988200Y-37003800D03*
X42988200Y-32703800D03*
D26*
X99712500Y-45000000D03*
X102512500Y-45000000D03*
D27*
X72700000Y-91540000D03*
X73200000Y-91540000D03*
X73700000Y-91540000D03*
X73700000Y-90060000D03*
X73200000Y-90060000D03*
X72700000Y-90060000D03*
D21*
X113427200Y-50741700D03*
X111527200Y-50741700D03*
X63250000Y-59400000D03*
X61350000Y-59400000D03*
D22*
X114350000Y-48200000D03*
X116250000Y-48200000D03*
D17*
X80800000Y-27584500D03*
X80800000Y-29409500D03*
D21*
X80400000Y-44197000D03*
X78500000Y-44197000D03*
D16*
X66812200Y-55201200D03*
X65862200Y-55201200D03*
X64912200Y-55201200D03*
X64912200Y-57476200D03*
X66812200Y-57476200D03*
D21*
X131639000Y-50757900D03*
X129739000Y-50757900D03*
X120479000Y-53153900D03*
X118579000Y-53153900D03*
X81150000Y-59500000D03*
X79250000Y-59500000D03*
D17*
X106957800Y-48787800D03*
X106957800Y-50612800D03*
X84800000Y-27584500D03*
X84800000Y-29409500D03*
D28*
X106025000Y-42500000D03*
X104200000Y-42500000D03*
D29*
X47511200Y-46357500D03*
X47511200Y-44532500D03*
D23*
X53775000Y-59525000D03*
X50825000Y-59525000D03*
D13*
X77637000Y-95262900D03*
X77135000Y-95262900D03*
X76633000Y-95262900D03*
X76131000Y-95262900D03*
X75629000Y-95262900D03*
X75127000Y-95262900D03*
X74625000Y-95262900D03*
X74123000Y-95262900D03*
X73621000Y-95262900D03*
X73119000Y-95262900D03*
X72617000Y-95262900D03*
X72115000Y-95262900D03*
X71613000Y-95262900D03*
X71111000Y-95262900D03*
X71124000Y-101094900D03*
X71624000Y-101094900D03*
X72124000Y-101094900D03*
X72624000Y-101094900D03*
X73124000Y-101094900D03*
X73621000Y-101094900D03*
X74124000Y-101094900D03*
X74625000Y-101094900D03*
X75127000Y-101094900D03*
X75629000Y-101094900D03*
X76131000Y-101094900D03*
X76624000Y-101094900D03*
X77135000Y-101094900D03*
X77624000Y-101094900D03*
D21*
X131574000Y-60236900D03*
X129674000Y-60236900D03*
D28*
X49173700Y-48195000D03*
X47348700Y-48195000D03*
D30*
X87800000Y-40447000D03*
X87800000Y-42347000D03*
D21*
X95790200Y-50842700D03*
X93890200Y-50842700D03*
D28*
X72762500Y-50900000D03*
X70937500Y-50900000D03*
D21*
X99183200Y-59390200D03*
X97283200Y-59390200D03*
D13*
X77637000Y-127262900D03*
X77135000Y-127262900D03*
X76633000Y-127262900D03*
X76131000Y-127262900D03*
X75629000Y-127262900D03*
X75127000Y-127262900D03*
X74625000Y-127262900D03*
X74123000Y-127262900D03*
X73621000Y-127262900D03*
X73119000Y-127262900D03*
X72617000Y-127262900D03*
X72115000Y-127262900D03*
X71613000Y-127262900D03*
X71111000Y-127262900D03*
X71124000Y-133094900D03*
X71624000Y-133094900D03*
X72124000Y-133094900D03*
X72624000Y-133094900D03*
X73124000Y-133094900D03*
X73621000Y-133094900D03*
X74124000Y-133094900D03*
X74625000Y-133094900D03*
X75127000Y-133094900D03*
X75629000Y-133094900D03*
X76131000Y-133094900D03*
X76624000Y-133094900D03*
X77135000Y-133094900D03*
X77624000Y-133094900D03*
D31*
X97279000Y-34855000D03*
X93239000Y-34855000D03*
X97279000Y-33585000D03*
X93239000Y-33585000D03*
X97279000Y-32315000D03*
X93239000Y-32315000D03*
X97279000Y-31045000D03*
X93239000Y-31045000D03*
X97279000Y-29775000D03*
X93239000Y-29775000D03*
D21*
X102616200Y-53137700D03*
X100716200Y-53137700D03*
D17*
X90500000Y-34987500D03*
X90500000Y-36812500D03*
D13*
X117515000Y-110904900D03*
X117013000Y-110904900D03*
X116511000Y-110904900D03*
X116009000Y-110904900D03*
X115507000Y-110904900D03*
X115005000Y-110904900D03*
X114503000Y-110904900D03*
X114001000Y-110904900D03*
X113499000Y-110904900D03*
X112997000Y-110904900D03*
X112495000Y-110904900D03*
X111993000Y-110904900D03*
X111491000Y-110904900D03*
X110989000Y-110904900D03*
X111002000Y-116736900D03*
X111502000Y-116736900D03*
X112002000Y-116736900D03*
X112502000Y-116736900D03*
X113002000Y-116736900D03*
X113499000Y-116736900D03*
X114002000Y-116736900D03*
X114503000Y-116736900D03*
X115005000Y-116736900D03*
X115507000Y-116736900D03*
X116009000Y-116736900D03*
X116502000Y-116736900D03*
X117013000Y-116736900D03*
X117502000Y-116736900D03*
D32*
X78700000Y-31147000D03*
X78700000Y-29247000D03*
D27*
X93574000Y-122793900D03*
X94074000Y-122793900D03*
X94574000Y-122793900D03*
X94574000Y-121313900D03*
X94074000Y-121313900D03*
X93574000Y-121313900D03*
D33*
X117454999Y-44397000D03*
X117454999Y-46297000D03*
X119329999Y-45347000D03*
D34*
X42812500Y-41200000D03*
X49187500Y-41200000D03*
D21*
X80400000Y-42197000D03*
X78500000Y-42197000D03*
D29*
X111209000Y-46348100D03*
X111209000Y-44523100D03*
D16*
X120461000Y-55116400D03*
X119511000Y-55116400D03*
X118561000Y-55116400D03*
X118561000Y-57391400D03*
X120461000Y-57391400D03*
D15*
X74587500Y-29097000D03*
X76412500Y-29097000D03*
D13*
X104276000Y-127033900D03*
X103774000Y-127033900D03*
X103272000Y-127033900D03*
X102770000Y-127033900D03*
X102268000Y-127033900D03*
X101766000Y-127033900D03*
X101264000Y-127033900D03*
X100762000Y-127033900D03*
X100260000Y-127033900D03*
X99758000Y-127033900D03*
X99256000Y-127033900D03*
X98754000Y-127033900D03*
X98252000Y-127033900D03*
X97750000Y-127033900D03*
X97763000Y-132865900D03*
X98263000Y-132865900D03*
X98763000Y-132865900D03*
X99263000Y-132865900D03*
X99763000Y-132865900D03*
X100260000Y-132865900D03*
X100763000Y-132865900D03*
X101264000Y-132865900D03*
X101766000Y-132865900D03*
X102268000Y-132865900D03*
X102770000Y-132865900D03*
X103263000Y-132865900D03*
X103774000Y-132865900D03*
X104263000Y-132865900D03*
D35*
X113125000Y-44493600D03*
X113125000Y-45443600D03*
X113125000Y-46393600D03*
X115400000Y-46393600D03*
X115400000Y-45443600D03*
X115400000Y-44493600D03*
D21*
X66830200Y-53238700D03*
X64930200Y-53238700D03*
X45413200Y-54117000D03*
X43513200Y-54117000D03*
X77745600Y-60321700D03*
X75845600Y-60321700D03*
D20*
X95570000Y-53075100D03*
X94300000Y-53075100D03*
X93030000Y-53075100D03*
X91760000Y-53075100D03*
X90490000Y-53075100D03*
X89220000Y-53075100D03*
X87950000Y-53075100D03*
X86680000Y-53075100D03*
X86680000Y-58025100D03*
X87950000Y-58025100D03*
X89220000Y-58025100D03*
X90490000Y-58025100D03*
X91760000Y-58025100D03*
X93030000Y-58025100D03*
X94300000Y-58025100D03*
X95570000Y-58025100D03*
D29*
X63350000Y-34579500D03*
X63350000Y-32754500D03*
D16*
X63250000Y-55162500D03*
X62300000Y-55162500D03*
X61350000Y-55162500D03*
X61350000Y-57437500D03*
X63250000Y-57437500D03*
D21*
X81150000Y-53300000D03*
X79250000Y-53300000D03*
D23*
X95753200Y-48700000D03*
X92803200Y-48700000D03*
D36*
X45600700Y-49225000D03*
X45600700Y-48275000D03*
X45600700Y-47325000D03*
X43325700Y-47325000D03*
X43325700Y-48275000D03*
X43325700Y-49225000D03*
D16*
X84684200Y-55201200D03*
X83734200Y-55201200D03*
X82784200Y-55201200D03*
X82784200Y-57476200D03*
X84684200Y-57476200D03*
D13*
X117515000Y-142904900D03*
X117013000Y-142904900D03*
X116511000Y-142904900D03*
X116009000Y-142904900D03*
X115507000Y-142904900D03*
X115005000Y-142904900D03*
X114503000Y-142904900D03*
X114001000Y-142904900D03*
X113499000Y-142904900D03*
X112997000Y-142904900D03*
X112495000Y-142904900D03*
X111993000Y-142904900D03*
X111491000Y-142904900D03*
X110989000Y-142904900D03*
X111002000Y-148736900D03*
X111502000Y-148736900D03*
X112002000Y-148736900D03*
X112502000Y-148736900D03*
X113002000Y-148736900D03*
X113499000Y-148736900D03*
X114002000Y-148736900D03*
X114503000Y-148736900D03*
X115005000Y-148736900D03*
X115507000Y-148736900D03*
X116009000Y-148736900D03*
X116502000Y-148736900D03*
X117013000Y-148736900D03*
X117502000Y-148736900D03*
X104276000Y-143033900D03*
X103774000Y-143033900D03*
X103272000Y-143033900D03*
X102770000Y-143033900D03*
X102268000Y-143033900D03*
X101766000Y-143033900D03*
X101264000Y-143033900D03*
X100762000Y-143033900D03*
X100260000Y-143033900D03*
X99758000Y-143033900D03*
X99256000Y-143033900D03*
X98754000Y-143033900D03*
X98252000Y-143033900D03*
X97750000Y-143033900D03*
X97763000Y-148865900D03*
X98263000Y-148865900D03*
X98763000Y-148865900D03*
X99263000Y-148865900D03*
X99763000Y-148865900D03*
X100260000Y-148865900D03*
X100763000Y-148865900D03*
X101264000Y-148865900D03*
X101766000Y-148865900D03*
X102268000Y-148865900D03*
X102770000Y-148865900D03*
X103263000Y-148865900D03*
X103774000Y-148865900D03*
X104263000Y-148865900D03*
D21*
X95779600Y-60321700D03*
X93879600Y-60321700D03*
X120479000Y-59353900D03*
X118579000Y-59353900D03*
X102616200Y-59337700D03*
X100716200Y-59337700D03*
D29*
X117376499Y-42772500D03*
X117376499Y-40947500D03*
D23*
X112775000Y-48400000D03*
X109825000Y-48400000D03*
D32*
X61850000Y-50200000D03*
X61850000Y-48300000D03*
D37*
X133114000Y-43247000D03*
X131964000Y-43247000D03*
X130814000Y-43247000D03*
X133114000Y-44097000D03*
X131964000Y-44097000D03*
X130814000Y-44097000D03*
X133114000Y-44947000D03*
X131964000Y-44947000D03*
X130814000Y-44947000D03*
D38*
X133844000Y-46797000D03*
X132564000Y-46797000D03*
X131364000Y-46797000D03*
X130084000Y-46797000D03*
D39*
X133874000Y-41077000D03*
X132604000Y-41077000D03*
X131324000Y-41077000D03*
X130054000Y-41077000D03*
D21*
X99150000Y-53200000D03*
X97250000Y-53200000D03*
D32*
X76500000Y-39384500D03*
X76500000Y-37484500D03*
D23*
X76400000Y-33351000D03*
X73450000Y-33351000D03*
D21*
X76431000Y-35597000D03*
X74531000Y-35597000D03*
D26*
X99712500Y-42500000D03*
X102512500Y-42500000D03*
D40*
X51250000Y-54425000D03*
X53550000Y-54425000D03*
D41*
X53550000Y-48125000D03*
D40*
X55850000Y-54425000D03*
D42*
X67550000Y-30097000D03*
X66750000Y-30097000D03*
D43*
X65600000Y-30097000D03*
X64600000Y-30097000D03*
X64100000Y-30097000D03*
X63100000Y-30097000D03*
D42*
X61950000Y-30097000D03*
X61150000Y-30097000D03*
X61150000Y-30097000D03*
X61950000Y-30097000D03*
D43*
X62600000Y-30097000D03*
X63600000Y-30097000D03*
X65100000Y-30097000D03*
X66100000Y-30097000D03*
D42*
X66750000Y-30097000D03*
X67550000Y-30097000D03*
D44*
X68670000Y-29522000D03*
D45*
X68670000Y-25342000D03*
D44*
X60030000Y-29522000D03*
D45*
X60030000Y-25342000D03*
D16*
X81150000Y-55262500D03*
X80200000Y-55262500D03*
X79250000Y-55262500D03*
X79250000Y-57537500D03*
X81150000Y-57537500D03*
D13*
X77637000Y-111262900D03*
X77135000Y-111262900D03*
X76633000Y-111262900D03*
X76131000Y-111262900D03*
X75629000Y-111262900D03*
X75127000Y-111262900D03*
X74625000Y-111262900D03*
X74123000Y-111262900D03*
X73621000Y-111262900D03*
X73119000Y-111262900D03*
X72617000Y-111262900D03*
X72115000Y-111262900D03*
X71613000Y-111262900D03*
X71111000Y-111262900D03*
X71124000Y-117094900D03*
X71624000Y-117094900D03*
X72124000Y-117094900D03*
X72624000Y-117094900D03*
X73124000Y-117094900D03*
X73621000Y-117094900D03*
X74124000Y-117094900D03*
X74625000Y-117094900D03*
X75127000Y-117094900D03*
X75629000Y-117094900D03*
X76131000Y-117094900D03*
X76624000Y-117094900D03*
X77135000Y-117094900D03*
X77624000Y-117094900D03*
D28*
X68952500Y-32922000D03*
X67127500Y-32922000D03*
D21*
X63350000Y-53200000D03*
X61450000Y-53200000D03*
D13*
X90937000Y-127187900D03*
X90435000Y-127187900D03*
X89933000Y-127187900D03*
X89431000Y-127187900D03*
X88929000Y-127187900D03*
X88427000Y-127187900D03*
X87925000Y-127187900D03*
X87423000Y-127187900D03*
X86921000Y-127187900D03*
X86419000Y-127187900D03*
X85917000Y-127187900D03*
X85415000Y-127187900D03*
X84913000Y-127187900D03*
X84411000Y-127187900D03*
X84424000Y-133019900D03*
X84924000Y-133019900D03*
X85424000Y-133019900D03*
X85924000Y-133019900D03*
X86424000Y-133019900D03*
X86921000Y-133019900D03*
X87424000Y-133019900D03*
X87925000Y-133019900D03*
X88427000Y-133019900D03*
X88929000Y-133019900D03*
X89431000Y-133019900D03*
X89924000Y-133019900D03*
X90435000Y-133019900D03*
X90924000Y-133019900D03*
D32*
X119306899Y-42810000D03*
X119306899Y-40910000D03*
D46*
X139305000Y-43263000D03*
X138155000Y-43263000D03*
X137005000Y-43263000D03*
X139305000Y-44113000D03*
X138155000Y-44113000D03*
X137005000Y-44113000D03*
X139305000Y-44963000D03*
X138155000Y-44963000D03*
X137005000Y-44963000D03*
D47*
X140035000Y-46813000D03*
X138755000Y-46813000D03*
X137555000Y-46813000D03*
X136275000Y-46813000D03*
D48*
X140065000Y-41093000D03*
X138795000Y-41093000D03*
X137515000Y-41093000D03*
X136245000Y-41093000D03*
D33*
X113390999Y-40982000D03*
X113390999Y-42882000D03*
X115265999Y-41932000D03*
D29*
X65277000Y-34579500D03*
X65277000Y-32754500D03*
D17*
X82800000Y-27584500D03*
X82800000Y-29409500D03*
D28*
X106025000Y-45000000D03*
X104200000Y-45000000D03*
D21*
X116950000Y-59314000D03*
X115050000Y-59314000D03*
D20*
X113290000Y-52974100D03*
X112020000Y-52974100D03*
X110750000Y-52974100D03*
X109480000Y-52974100D03*
X108210000Y-52974100D03*
X106940000Y-52974100D03*
X105670000Y-52974100D03*
X104400000Y-52974100D03*
X104400000Y-57924100D03*
X105670000Y-57924100D03*
X106940000Y-57924100D03*
X108210000Y-57924100D03*
X109480000Y-57924100D03*
X110750000Y-57924100D03*
X112020000Y-57924100D03*
X113290000Y-57924100D03*
D13*
X104276000Y-111033900D03*
X103774000Y-111033900D03*
X103272000Y-111033900D03*
X102770000Y-111033900D03*
X102268000Y-111033900D03*
X101766000Y-111033900D03*
X101264000Y-111033900D03*
X100762000Y-111033900D03*
X100260000Y-111033900D03*
X99758000Y-111033900D03*
X99256000Y-111033900D03*
X98754000Y-111033900D03*
X98252000Y-111033900D03*
X97750000Y-111033900D03*
X97763000Y-116865900D03*
X98263000Y-116865900D03*
X98763000Y-116865900D03*
X99263000Y-116865900D03*
X99763000Y-116865900D03*
X100260000Y-116865900D03*
X100763000Y-116865900D03*
X101264000Y-116865900D03*
X101766000Y-116865900D03*
X102268000Y-116865900D03*
X102770000Y-116865900D03*
X103263000Y-116865900D03*
X103774000Y-116865900D03*
X104263000Y-116865900D03*
D20*
X131309800Y-52990300D03*
X130039800Y-52990300D03*
X128769800Y-52990300D03*
X127499800Y-52990300D03*
X126229800Y-52990300D03*
X124959800Y-52990300D03*
X123689800Y-52990300D03*
X122419800Y-52990300D03*
X122419800Y-57940300D03*
X123689800Y-57940300D03*
X124959800Y-57940300D03*
X126229800Y-57940300D03*
X127499800Y-57940300D03*
X128769800Y-57940300D03*
X130039800Y-57940300D03*
X131309800Y-57940300D03*
D32*
X74500000Y-39384500D03*
X74500000Y-37484500D03*
D13*
X104276000Y-95033900D03*
X103774000Y-95033900D03*
X103272000Y-95033900D03*
X102770000Y-95033900D03*
X102268000Y-95033900D03*
X101766000Y-95033900D03*
X101264000Y-95033900D03*
X100762000Y-95033900D03*
X100260000Y-95033900D03*
X99758000Y-95033900D03*
X99256000Y-95033900D03*
X98754000Y-95033900D03*
X98252000Y-95033900D03*
X97750000Y-95033900D03*
X97763000Y-100865900D03*
X98263000Y-100865900D03*
X98763000Y-100865900D03*
X99263000Y-100865900D03*
X99763000Y-100865900D03*
X100260000Y-100865900D03*
X100763000Y-100865900D03*
X101264000Y-100865900D03*
X101766000Y-100865900D03*
X102268000Y-100865900D03*
X102770000Y-100865900D03*
X103263000Y-100865900D03*
X103774000Y-100865900D03*
X104263000Y-100865900D03*
D21*
X66830200Y-59438700D03*
X64930200Y-59438700D03*
X84702200Y-59438700D03*
X82802200Y-59438700D03*
X116850000Y-53200000D03*
X114950000Y-53200000D03*
D49*
X47511200Y-54195000D03*
X47511200Y-51245000D03*
D17*
X90512000Y-30392000D03*
X90512000Y-32217000D03*
D32*
X67350000Y-50200000D03*
X67350000Y-48300000D03*
D13*
X117515000Y-126904900D03*
X117013000Y-126904900D03*
X116511000Y-126904900D03*
X116009000Y-126904900D03*
X115507000Y-126904900D03*
X115005000Y-126904900D03*
X114503000Y-126904900D03*
X114001000Y-126904900D03*
X113499000Y-126904900D03*
X112997000Y-126904900D03*
X112495000Y-126904900D03*
X111993000Y-126904900D03*
X111491000Y-126904900D03*
X110989000Y-126904900D03*
X111002000Y-132736900D03*
X111502000Y-132736900D03*
X112002000Y-132736900D03*
X112502000Y-132736900D03*
X113002000Y-132736900D03*
X113499000Y-132736900D03*
X114002000Y-132736900D03*
X114503000Y-132736900D03*
X115005000Y-132736900D03*
X115507000Y-132736900D03*
X116009000Y-132736900D03*
X116502000Y-132736900D03*
X117013000Y-132736900D03*
X117502000Y-132736900D03*
D16*
X102598200Y-55100200D03*
X101648200Y-55100200D03*
X100698200Y-55100200D03*
X100698200Y-57375200D03*
X102598200Y-57375200D03*
D21*
X77747200Y-50842700D03*
X75847200Y-50842700D03*
D15*
X82025000Y-42247000D03*
X83850000Y-42247000D03*
D21*
X84702200Y-53238700D03*
X82802200Y-53238700D03*
D50*
X143500000Y-41700000D03*
X143500000Y-46000000D03*
D51*
X94500000Y-45650000D03*
X94500000Y-41550000D03*
X96100000Y-45650000D03*
X96100000Y-41550000D03*
D13*
X77637000Y-143262900D03*
X77135000Y-143262900D03*
X76633000Y-143262900D03*
X76131000Y-143262900D03*
X75629000Y-143262900D03*
X75127000Y-143262900D03*
X74625000Y-143262900D03*
X74123000Y-143262900D03*
X73621000Y-143262900D03*
X73119000Y-143262900D03*
X72617000Y-143262900D03*
X72115000Y-143262900D03*
X71613000Y-143262900D03*
X71111000Y-143262900D03*
X71124000Y-149094900D03*
X71624000Y-149094900D03*
X72124000Y-149094900D03*
X72624000Y-149094900D03*
X73124000Y-149094900D03*
X73621000Y-149094900D03*
X74124000Y-149094900D03*
X74625000Y-149094900D03*
X75127000Y-149094900D03*
X75629000Y-149094900D03*
X76131000Y-149094900D03*
X76624000Y-149094900D03*
X77135000Y-149094900D03*
X77624000Y-149094900D03*
D15*
X82012500Y-44247000D03*
X83837500Y-44247000D03*
D23*
X78586200Y-48375800D03*
X75636200Y-48375800D03*
D17*
X74500000Y-40984500D03*
X74500000Y-42809500D03*
D21*
X113534200Y-60152200D03*
X111634200Y-60152200D03*
D22*
X57912500Y-53250000D03*
X59812500Y-53250000D03*
D17*
X89252200Y-49015800D03*
X89252200Y-50840800D03*
D29*
X121550400Y-42548100D03*
X121550400Y-40723100D03*
D13*
X117515000Y-94904900D03*
X117013000Y-94904900D03*
X116511000Y-94904900D03*
X116009000Y-94904900D03*
X115507000Y-94904900D03*
X115005000Y-94904900D03*
X114503000Y-94904900D03*
X114001000Y-94904900D03*
X113499000Y-94904900D03*
X112997000Y-94904900D03*
X112495000Y-94904900D03*
X111993000Y-94904900D03*
X111491000Y-94904900D03*
X110989000Y-94904900D03*
X111002000Y-100736900D03*
X111502000Y-100736900D03*
X112002000Y-100736900D03*
X112502000Y-100736900D03*
X113002000Y-100736900D03*
X113499000Y-100736900D03*
X114002000Y-100736900D03*
X114503000Y-100736900D03*
X115005000Y-100736900D03*
X115507000Y-100736900D03*
X116009000Y-100736900D03*
X116502000Y-100736900D03*
X117013000Y-100736900D03*
X117502000Y-100736900D03*
D52*
X65550000Y-49900000D03*
X65550000Y-49250000D03*
X65550000Y-48600000D03*
X63650000Y-48600000D03*
X63650000Y-49250000D03*
X63650000Y-49900000D03*
D13*
X90937000Y-111187900D03*
X90435000Y-111187900D03*
X89933000Y-111187900D03*
X89431000Y-111187900D03*
X88929000Y-111187900D03*
X88427000Y-111187900D03*
X87925000Y-111187900D03*
X87423000Y-111187900D03*
X86921000Y-111187900D03*
X86419000Y-111187900D03*
X85917000Y-111187900D03*
X85415000Y-111187900D03*
X84913000Y-111187900D03*
X84411000Y-111187900D03*
X84424000Y-117019900D03*
X84924000Y-117019900D03*
X85424000Y-117019900D03*
X85924000Y-117019900D03*
X86424000Y-117019900D03*
X86921000Y-117019900D03*
X87424000Y-117019900D03*
X87925000Y-117019900D03*
X88427000Y-117019900D03*
X88929000Y-117019900D03*
X89431000Y-117019900D03*
X89924000Y-117019900D03*
X90435000Y-117019900D03*
X90924000Y-117019900D03*
D53*
X79025000Y-33022000D03*
X79025000Y-33822000D03*
X79025000Y-34622000D03*
X79025000Y-35422000D03*
X79025000Y-36222000D03*
X79025000Y-37022000D03*
X79025000Y-37822000D03*
X79025000Y-38622000D03*
D54*
X80400000Y-39997000D03*
X81200000Y-39997000D03*
X82000000Y-39997000D03*
X82800000Y-39997000D03*
X83600000Y-39997000D03*
X84400000Y-39997000D03*
X85200000Y-39997000D03*
X86000000Y-39997000D03*
D53*
X87375000Y-38622000D03*
X87375000Y-37822000D03*
X87375000Y-37022000D03*
X87375000Y-36222000D03*
X87375000Y-35422000D03*
X87375000Y-34622000D03*
X87375000Y-33822000D03*
X87375000Y-33022000D03*
D54*
X86000000Y-31647000D03*
X85200000Y-31647000D03*
X84400000Y-31647000D03*
X83600000Y-31647000D03*
X82800000Y-31647000D03*
X82000000Y-31647000D03*
X81200000Y-31647000D03*
X80400000Y-31647000D03*
D37*
X126902000Y-43247000D03*
X125752000Y-43247000D03*
X124602000Y-43247000D03*
X126902000Y-44097000D03*
X125752000Y-44097000D03*
X124602000Y-44097000D03*
X126902000Y-44947000D03*
X125752000Y-44947000D03*
X124602000Y-44947000D03*
D38*
X127632000Y-46797000D03*
X126352000Y-46797000D03*
X125152000Y-46797000D03*
X123872000Y-46797000D03*
D39*
X127662000Y-41077000D03*
X126392000Y-41077000D03*
X125112000Y-41077000D03*
X123842000Y-41077000D03*
M02*
