M48
; DRILL file {KiCad 8.0.1-8.0.1-1~ubuntu22.04.1} date 2024-04-20T17:10:01+0200
; FORMAT={-:-/ absolute / metric / decimal}
; #@! TF.CreationDate,2024-04-20T17:10:01+02:00
; #@! TF.GenerationSoftware,Kicad,Pcbnew,8.0.1-8.0.1-1~ubuntu22.04.1
; #@! TF.FileFunction,Plated,1,4,PTH
FMAT,2
METRIC
; #@! TA.AperFunction,Plated,PTH,ViaDrill
T1C0.400
; #@! TA.AperFunction,Plated,PTH,ComponentDrill
T2C0.500
; #@! TA.AperFunction,Plated,PTH,ComponentDrill
T3C0.600
; #@! TA.AperFunction,Plated,PTH,ViaDrill
T4C0.800
; #@! TA.AperFunction,Plated,PTH,ComponentDrill
T5C1.000
; #@! TA.AperFunction,Plated,PTH,ComponentDrill
T6C1.020
; #@! TA.AperFunction,Plated,PTH,ComponentDrill
T7C1.600
; #@! TA.AperFunction,Plated,PTH,ComponentDrill
T8C2.000
; #@! TA.AperFunction,Plated,PTH,ComponentDrill
T9C3.200
%
G90
G05
T1
X42.772Y-44.075
X44.663Y-48.263
X45.981Y-51.427
X46.632Y-45.411
X49.7Y-60.775
X50.198Y-57.496
X50.825Y-55.623
X51.547Y-50.273
X51.547Y-51.273
X51.547Y-52.273
X52.025Y-44.275
X52.547Y-50.273
X52.547Y-51.273
X52.547Y-52.273
X53.547Y-51.273
X53.547Y-52.273
X53.55Y-50.273
X54.547Y-50.273
X54.547Y-51.273
X54.547Y-52.273
X55.547Y-50.273
X55.547Y-51.273
X55.547Y-52.273
X58.787Y-32.771
X59.069Y-58.606
X59.7Y-52.2
X60.9Y-44.2
X61.429Y-60.432
X62.114Y-54.023
X62.171Y-47.484
X63.308Y-51.745
X65.202Y-60.597
X65.998Y-54.265
X66.363Y-50.024
X66.413Y-48.975
X68.368Y-52.692
X68.602Y-59.425
X69.328Y-91.572
X69.622Y-108.913
X69.724Y-102.995
X69.724Y-119.195
X69.724Y-124.995
X69.724Y-135.195
X69.724Y-140.995
X69.836Y-32.898
X70.126Y-149.377
X70.226Y-94.767
X70.226Y-101.131
X70.526Y-110.986
X70.546Y-117.312
X70.562Y-137.029
X70.562Y-142.838
X70.613Y-121.451
X70.613Y-126.887
X70.622Y-150.683
X70.625Y-133.34
X70.676Y-105.157
X71.379Y-96.429
X71.379Y-97.629
X71.379Y-112.429
X71.379Y-113.629
X71.379Y-128.429
X71.379Y-129.629
X71.379Y-144.429
X71.379Y-145.629
X71.384Y-98.779
X71.384Y-99.979
X71.384Y-114.779
X71.384Y-115.979
X71.384Y-130.779
X71.384Y-131.979
X71.384Y-146.779
X71.384Y-147.979
X71.477Y-90.108
X71.562Y-94.433
X71.568Y-110.437
X71.574Y-92.709
X71.613Y-102.149
X71.618Y-133.888
X71.629Y-117.895
X71.629Y-126.43
X71.629Y-142.381
X71.995Y-39.756
X72.2Y-139.305
X72.278Y-140.375
X72.296Y-138.295
X72.374Y-107.603
X72.374Y-108.603
X72.391Y-106.595
X72.591Y-54.399
X72.65Y-92.6
X72.719Y-96.429
X72.719Y-97.629
X72.719Y-112.429
X72.719Y-113.629
X72.719Y-128.429
X72.719Y-129.629
X72.719Y-144.429
X72.719Y-145.629
X72.724Y-98.779
X72.724Y-99.979
X72.724Y-114.779
X72.724Y-115.979
X72.724Y-130.779
X72.724Y-131.979
X72.724Y-146.779
X72.724Y-147.979
X73.025Y-49.8
X73.105Y-88.463
X73.204Y-94.121
X73.237Y-151.012
X73.4Y-35.1
X73.6Y-92.5
X73.909Y-96.429
X73.909Y-97.629
X73.909Y-128.429
X73.909Y-129.629
X73.914Y-114.779
X73.914Y-115.979
X73.914Y-130.779
X73.914Y-131.979
X73.914Y-146.779
X73.914Y-147.979
X73.974Y-98.729
X73.974Y-99.729
X73.974Y-112.729
X73.974Y-113.729
X73.974Y-144.729
X73.974Y-145.729
X74.1Y-88.7
X74.2Y-46.582
X74.357Y-104.291
X74.531Y-32.27
X74.531Y-34.223
X74.606Y-137.148
X74.616Y-122.77
X74.838Y-138.698
X74.845Y-139.677
X74.845Y-140.693
X74.861Y-86.196
X75.004Y-54.526
X75.174Y-112.629
X75.174Y-113.729
X75.184Y-144.629
X75.184Y-145.729
X75.199Y-96.429
X75.199Y-97.629
X75.199Y-128.429
X75.199Y-129.629
X75.204Y-114.779
X75.204Y-115.979
X75.204Y-130.779
X75.204Y-131.979
X75.204Y-146.779
X75.204Y-147.979
X75.236Y-106.73
X75.236Y-107.71
X75.236Y-108.726
X75.258Y-152.771
X75.264Y-99.729
X75.274Y-98.729
X75.424Y-37.484
X75.6Y-46.5
X75.626Y-90.673
X75.655Y-84.654
X75.773Y-62.459
X76.06Y-150.737
X76.117Y-135.421
X76.217Y-59.3
X76.274Y-96.629
X76.274Y-97.729
X76.274Y-98.729
X76.274Y-99.729
X76.274Y-112.629
X76.274Y-113.729
X76.274Y-114.729
X76.274Y-115.729
X76.274Y-128.629
X76.274Y-129.729
X76.274Y-130.729
X76.274Y-131.729
X76.274Y-144.629
X76.274Y-145.729
X76.274Y-146.729
X76.274Y-147.729
X76.308Y-93.891
X76.34Y-51.732
X76.623Y-62.015
X76.765Y-119.332
X76.821Y-86.111
X76.894Y-103.181
X76.945Y-121.268
X77.01Y-137.253
X77.194Y-123.128
X77.202Y-29.215
X77.236Y-104.906
X77.319Y-94.019
X77.325Y-89.6
X77.4Y-67.56
X77.423Y-138.9
X77.499Y-106.798
X77.574Y-96.629
X77.574Y-97.729
X77.574Y-98.729
X77.574Y-99.729
X77.574Y-112.629
X77.574Y-113.729
X77.574Y-114.729
X77.574Y-115.729
X77.574Y-128.629
X77.574Y-129.729
X77.574Y-130.729
X77.574Y-131.729
X77.574Y-144.629
X77.574Y-145.729
X77.574Y-146.729
X77.574Y-147.729
X78.081Y-150.763
X78.182Y-148.883
X78.487Y-94.68
X78.5Y-43.185
X78.726Y-28.326
X78.774Y-141.929
X78.792Y-140.146
X78.874Y-109.329
X78.974Y-125.829
X79.025Y-31.867
X79.046Y-123.991
X79.402Y-96.661
X79.776Y-30.323
X79.8Y-88.7
X79.854Y-147.298
X79.9Y-60.2
X79.93Y-28.25
X79.975Y-54.025
X80.0Y-86.4
X80.123Y-46.106
X80.58Y-47.732
X80.631Y-38.613
X81.18Y-33.98
X81.62Y-33.11
X82.028Y-152.151
X82.456Y-151.272
X82.64Y-33.04
X82.777Y-103.056
X82.924Y-108.92
X82.924Y-140.62
X83.024Y-119.22
X83.024Y-124.62
X83.024Y-135.22
X83.074Y-60.597
X83.171Y-91.445
X83.283Y-149.302
X83.552Y-35.169
X83.626Y-94.692
X83.626Y-101.056
X83.679Y-27.584
X83.708Y-32.863
X83.8Y-37.59
X83.826Y-110.911
X83.846Y-117.237
X83.853Y-133.273
X83.862Y-136.954
X83.862Y-142.763
X83.87Y-54.265
X83.913Y-121.376
X83.913Y-126.812
X83.949Y-150.59
X83.976Y-105.082
X84.187Y-83.444
X84.403Y-36.835
X84.419Y-155.094
X84.679Y-96.354
X84.679Y-97.554
X84.679Y-112.354
X84.679Y-113.554
X84.679Y-128.354
X84.679Y-129.554
X84.679Y-144.354
X84.679Y-145.554
X84.684Y-98.704
X84.684Y-99.904
X84.684Y-114.704
X84.684Y-115.904
X84.684Y-130.704
X84.684Y-131.904
X84.684Y-146.704
X84.684Y-147.904
X84.737Y-38.063
X84.74Y-33.02
X84.833Y-89.978
X84.862Y-94.358
X84.868Y-110.362
X84.913Y-102.074
X84.918Y-133.813
X84.929Y-117.82
X84.929Y-126.355
X84.929Y-142.306
X85.142Y-154.239
X85.264Y-38.972
X85.269Y-151.978
X85.5Y-139.33
X85.578Y-140.4
X85.596Y-138.32
X85.668Y-92.417
X85.674Y-107.528
X85.674Y-108.528
X85.691Y-106.52
X85.965Y-36.708
X86.019Y-96.354
X86.019Y-97.554
X86.019Y-112.354
X86.019Y-113.554
X86.019Y-128.354
X86.019Y-129.554
X86.019Y-144.354
X86.019Y-145.554
X86.024Y-98.704
X86.024Y-99.904
X86.024Y-114.704
X86.024Y-115.904
X86.024Y-130.704
X86.024Y-131.904
X86.024Y-146.704
X86.024Y-147.904
X86.24Y-52.575
X86.504Y-94.046
X86.539Y-150.81
X86.541Y-41.868
X86.6Y-44.665
X86.6Y-46.0
X86.6Y-156.342
X86.777Y-59.234
X87.174Y-154.239
X87.209Y-96.354
X87.209Y-97.554
X87.209Y-112.354
X87.209Y-113.554
X87.209Y-128.354
X87.209Y-129.554
X87.209Y-144.354
X87.209Y-145.554
X87.214Y-98.704
X87.214Y-99.904
X87.214Y-114.704
X87.214Y-115.904
X87.214Y-130.704
X87.214Y-131.904
X87.214Y-146.704
X87.214Y-147.904
X87.489Y-43.439
X87.563Y-39.345
X87.657Y-104.216
X87.906Y-137.073
X87.908Y-51.302
X87.916Y-122.695
X88.083Y-89.013
X88.138Y-138.623
X88.145Y-139.602
X88.145Y-140.618
X88.378Y-32.737
X88.378Y-33.787
X88.49Y-86.365
X88.499Y-96.354
X88.499Y-97.554
X88.499Y-112.354
X88.499Y-113.554
X88.499Y-128.354
X88.499Y-129.554
X88.499Y-144.354
X88.499Y-145.554
X88.504Y-98.704
X88.504Y-99.904
X88.504Y-114.704
X88.504Y-115.904
X88.504Y-130.704
X88.504Y-131.904
X88.504Y-146.704
X88.504Y-147.904
X88.536Y-106.655
X88.536Y-107.635
X88.536Y-108.651
X88.558Y-152.696
X88.651Y-36.469
X88.698Y-90.398
X89.074Y-84.841
X89.14Y-38.232
X89.14Y-75.189
X89.14Y-79.126
X89.26Y-37.217
X89.36Y-150.662
X89.417Y-135.346
X89.574Y-96.554
X89.574Y-97.654
X89.574Y-98.654
X89.574Y-99.654
X89.574Y-112.554
X89.574Y-113.654
X89.574Y-114.654
X89.574Y-115.654
X89.574Y-128.554
X89.574Y-129.654
X89.574Y-130.654
X89.574Y-131.654
X89.574Y-144.554
X89.574Y-145.654
X89.574Y-146.654
X89.574Y-147.654
X89.608Y-93.816
X89.921Y-86.264
X90.065Y-119.257
X90.194Y-103.106
X90.2Y-73.3
X90.245Y-121.193
X90.31Y-137.178
X90.342Y-48.882
X90.494Y-123.053
X90.536Y-104.831
X90.537Y-29.469
X90.619Y-93.944
X90.723Y-138.825
X90.775Y-54.08
X90.791Y-37.597
X90.799Y-106.723
X90.8Y-67.1
X90.874Y-96.554
X90.874Y-97.654
X90.874Y-98.654
X90.874Y-99.654
X90.874Y-112.554
X90.874Y-113.654
X90.874Y-114.654
X90.874Y-115.654
X90.874Y-128.554
X90.874Y-129.654
X90.874Y-130.654
X90.874Y-131.654
X90.874Y-144.554
X90.874Y-145.654
X90.874Y-146.654
X90.874Y-147.654
X91.1Y-70.2
X91.381Y-150.688
X91.482Y-148.808
X91.553Y-32.315
X91.676Y-48.994
X91.704Y-58.992
X91.787Y-94.605
X91.797Y-34.738
X91.872Y-109.254
X91.913Y-96.143
X92.0Y-88.1
X92.074Y-141.854
X92.092Y-140.071
X92.274Y-125.754
X92.346Y-123.916
X92.5Y-146.5
X92.743Y-62.155
X92.791Y-61.009
X92.935Y-54.358
X92.983Y-68.6
X93.0Y-63.5
X93.056Y-88.7
X93.585Y-87.477
X93.9Y-62.4
X94.0Y-70.5
X94.0Y-123.75
X94.009Y-120.4
X94.3Y-51.732
X94.7Y-61.8
X95.287Y-33.585
X95.7Y-61.7
X95.958Y-134.772
X95.963Y-140.866
X96.1Y-43.693
X96.189Y-108.86
X96.212Y-102.708
X96.259Y-118.939
X96.307Y-96.714
X96.434Y-124.744
X96.76Y-91.191
X96.863Y-149.054
X97.046Y-94.615
X97.063Y-110.757
X97.185Y-117.083
X97.192Y-133.119
X97.201Y-136.8
X97.201Y-142.609
X97.252Y-121.222
X97.252Y-126.658
X97.261Y-150.454
X97.3Y-60.4
X97.315Y-104.928
X97.417Y-101.177
X97.424Y-81.474
X97.776Y-151.262
X97.776Y-154.945
X98.018Y-96.2
X98.018Y-97.4
X98.018Y-112.2
X98.018Y-113.4
X98.018Y-128.2
X98.018Y-129.4
X98.018Y-144.2
X98.018Y-145.4
X98.023Y-98.55
X98.023Y-99.75
X98.023Y-114.55
X98.023Y-115.75
X98.023Y-130.55
X98.023Y-131.75
X98.023Y-146.55
X98.023Y-147.75
X98.076Y-54.174
X98.116Y-89.879
X98.201Y-94.204
X98.207Y-110.208
X98.252Y-101.92
X98.257Y-133.659
X98.268Y-117.666
X98.268Y-126.201
X98.268Y-142.152
X98.839Y-139.561
X98.842Y-154.085
X98.917Y-140.63
X98.935Y-138.551
X98.97Y-47.732
X99.007Y-92.263
X99.013Y-107.6
X99.013Y-108.6
X99.03Y-106.592
X99.046Y-34.93
X99.358Y-96.2
X99.358Y-97.4
X99.358Y-112.2
X99.358Y-113.4
X99.358Y-128.2
X99.358Y-129.4
X99.358Y-144.2
X99.358Y-145.4
X99.363Y-98.55
X99.363Y-99.75
X99.363Y-114.55
X99.363Y-115.75
X99.363Y-130.55
X99.363Y-131.75
X99.363Y-146.55
X99.363Y-147.75
X99.843Y-93.892
X100.189Y-83.698
X100.278Y-60.459
X100.443Y-155.961
X100.548Y-96.2
X100.548Y-97.4
X100.548Y-112.2
X100.548Y-113.4
X100.548Y-128.2
X100.548Y-129.4
X100.548Y-144.2
X100.548Y-145.4
X100.553Y-98.55
X100.553Y-99.75
X100.553Y-114.55
X100.553Y-115.75
X100.553Y-130.55
X100.553Y-131.75
X100.553Y-146.55
X100.553Y-147.75
X100.57Y-150.656
X100.747Y-154.085
X100.996Y-104.062
X101.245Y-136.919
X101.255Y-122.541
X101.477Y-138.469
X101.484Y-139.448
X101.484Y-140.464
X101.586Y-86.326
X101.784Y-54.164
X101.838Y-96.2
X101.838Y-97.4
X101.838Y-112.2
X101.838Y-113.4
X101.838Y-128.2
X101.838Y-129.4
X101.838Y-144.2
X101.838Y-145.4
X101.843Y-98.55
X101.843Y-99.75
X101.843Y-114.55
X101.843Y-115.75
X101.843Y-130.55
X101.843Y-131.75
X101.843Y-146.55
X101.843Y-147.75
X101.875Y-106.501
X101.875Y-107.481
X101.875Y-108.497
X101.897Y-152.542
X102.133Y-90.125
X102.348Y-84.714
X102.699Y-150.508
X102.756Y-135.192
X102.913Y-96.4
X102.913Y-97.5
X102.913Y-98.5
X102.913Y-99.5
X102.913Y-112.4
X102.913Y-113.5
X102.913Y-114.5
X102.913Y-115.5
X102.913Y-128.4
X102.913Y-129.5
X102.913Y-130.5
X102.913Y-131.5
X102.913Y-144.4
X102.913Y-145.5
X102.913Y-146.5
X102.913Y-147.5
X102.947Y-93.662
X103.0Y-49.646
X103.11Y-86.326
X103.404Y-119.103
X103.533Y-102.952
X103.584Y-121.039
X103.618Y-77.856
X103.618Y-81.539
X103.636Y-50.482
X103.649Y-137.024
X103.8Y-61.5
X103.833Y-122.899
X103.875Y-104.677
X103.958Y-93.79
X104.062Y-138.671
X104.138Y-106.569
X104.213Y-96.4
X104.213Y-97.5
X104.213Y-98.5
X104.213Y-99.5
X104.213Y-112.4
X104.213Y-113.5
X104.213Y-114.5
X104.213Y-115.5
X104.213Y-128.4
X104.213Y-129.5
X104.213Y-130.5
X104.213Y-131.5
X104.213Y-144.4
X104.213Y-145.5
X104.213Y-146.5
X104.213Y-147.5
X104.422Y-51.678
X104.577Y-59.234
X104.72Y-150.534
X104.821Y-148.654
X105.126Y-94.451
X105.413Y-141.7
X105.431Y-139.917
X105.513Y-109.1
X105.613Y-125.6
X105.685Y-123.762
X105.874Y-41.326
X106.041Y-96.432
X106.2Y-147.283
X106.587Y-88.282
X107.364Y-49.548
X108.356Y-51.528
X108.72Y-45.195
X109.48Y-59.378
X109.57Y-134.817
X109.589Y-118.819
X109.593Y-108.731
X109.602Y-102.637
X109.602Y-124.637
X109.602Y-140.637
X109.841Y-91.191
X109.861Y-149.019
X110.083Y-94.34
X110.285Y-50.742
X110.349Y-82.936
X110.404Y-100.737
X110.404Y-110.628
X110.424Y-116.954
X110.431Y-132.99
X110.44Y-136.671
X110.44Y-142.48
X110.491Y-121.093
X110.491Y-126.529
X110.5Y-150.325
X110.554Y-104.799
X110.7Y-61.8
X110.75Y-151.25
X110.75Y-155.0
X110.832Y-54.13
X111.257Y-96.071
X111.257Y-97.271
X111.257Y-112.071
X111.257Y-113.271
X111.257Y-128.071
X111.257Y-129.271
X111.257Y-144.071
X111.257Y-145.271
X111.262Y-98.421
X111.262Y-99.621
X111.262Y-114.421
X111.262Y-115.621
X111.262Y-130.421
X111.262Y-131.621
X111.262Y-146.421
X111.262Y-147.621
X111.355Y-89.75
X111.44Y-94.075
X111.446Y-110.079
X111.491Y-101.791
X111.496Y-133.53
X111.507Y-117.537
X111.507Y-126.072
X111.507Y-142.023
X111.702Y-153.956
X112.0Y-43.5
X112.02Y-51.631
X112.078Y-139.198
X112.156Y-140.267
X112.174Y-138.188
X112.246Y-92.134
X112.252Y-107.245
X112.252Y-108.245
X112.269Y-106.237
X112.271Y-45.398
X112.451Y-61.734
X112.508Y-40.982
X112.597Y-96.071
X112.597Y-97.271
X112.597Y-112.071
X112.597Y-113.271
X112.597Y-128.071
X112.597Y-129.271
X112.597Y-144.071
X112.597Y-145.271
X112.602Y-98.421
X112.602Y-99.621
X112.602Y-114.421
X112.602Y-115.621
X112.602Y-130.421
X112.602Y-131.621
X112.602Y-146.421
X112.602Y-147.621
X113.0Y-155.75
X113.082Y-93.763
X113.099Y-150.504
X113.48Y-153.956
X113.787Y-96.071
X113.787Y-97.271
X113.787Y-112.071
X113.787Y-113.271
X113.787Y-128.071
X113.787Y-129.271
X113.787Y-144.071
X113.787Y-145.271
X113.792Y-98.421
X113.792Y-99.621
X113.792Y-114.421
X113.792Y-115.621
X113.792Y-130.421
X113.792Y-131.621
X113.792Y-146.421
X113.792Y-147.621
X114.1Y-61.9
X114.235Y-103.933
X114.331Y-45.705
X114.484Y-136.79
X114.494Y-122.412
X114.501Y-43.72
X114.716Y-138.34
X114.723Y-139.319
X114.723Y-140.335
X114.794Y-86.238
X115.077Y-96.071
X115.077Y-97.271
X115.077Y-112.071
X115.077Y-113.271
X115.077Y-128.071
X115.077Y-129.271
X115.077Y-144.071
X115.077Y-145.271
X115.082Y-98.421
X115.082Y-99.621
X115.082Y-114.421
X115.082Y-115.621
X115.082Y-130.421
X115.082Y-131.621
X115.082Y-146.421
X115.082Y-147.621
X115.114Y-106.372
X115.114Y-107.352
X115.114Y-108.368
X115.136Y-152.413
X115.266Y-90.105
X115.448Y-84.825
X115.564Y-54.036
X115.7Y-58.8
X115.938Y-150.379
X115.995Y-135.063
X116.152Y-96.271
X116.152Y-97.371
X116.152Y-98.371
X116.152Y-99.371
X116.152Y-112.271
X116.152Y-113.371
X116.152Y-114.371
X116.152Y-115.371
X116.152Y-128.271
X116.152Y-129.371
X116.152Y-130.371
X116.152Y-131.371
X116.152Y-144.271
X116.152Y-145.371
X116.152Y-146.371
X116.152Y-147.371
X116.186Y-93.533
X116.191Y-86.238
X116.5Y-40.5
X116.601Y-44.784
X116.643Y-118.974
X116.772Y-102.823
X116.775Y-49.103
X116.823Y-120.91
X116.888Y-136.895
X117.072Y-122.77
X117.114Y-104.548
X117.197Y-93.661
X117.22Y-45.589
X117.301Y-138.542
X117.377Y-106.44
X117.452Y-96.271
X117.452Y-97.371
X117.452Y-98.371
X117.452Y-99.371
X117.452Y-112.271
X117.452Y-113.371
X117.452Y-114.371
X117.452Y-115.371
X117.452Y-128.271
X117.452Y-129.371
X117.452Y-130.371
X117.452Y-131.371
X117.452Y-144.271
X117.452Y-145.371
X117.452Y-146.371
X117.452Y-147.371
X117.613Y-47.732
X117.959Y-150.405
X118.06Y-148.525
X118.365Y-94.322
X118.652Y-141.571
X118.67Y-139.788
X118.752Y-108.971
X118.754Y-60.416
X118.852Y-125.471
X118.924Y-123.633
X119.28Y-96.303
X119.366Y-40.01
X119.647Y-54.18
X120.092Y-147.154
X121.017Y-88.651
X121.5Y-46.5
X122.414Y-54.234
X122.82Y-57.053
X123.752Y-43.047
X123.752Y-44.047
X123.752Y-45.047
X123.752Y-46.047
X124.752Y-45.547
X124.954Y-54.107
X125.002Y-43.547
X125.002Y-44.547
X125.752Y-45.547
X126.224Y-54.107
X126.502Y-43.547
X126.502Y-44.547
X126.752Y-45.547
X127.449Y-59.267
X127.494Y-54.107
X127.752Y-43.047
X127.752Y-44.047
X127.752Y-45.047
X127.752Y-46.047
X128.764Y-54.107
X129.944Y-51.917
X130.064Y-42.997
X130.064Y-43.997
X130.064Y-44.997
X130.064Y-45.997
X131.064Y-45.497
X131.118Y-53.916
X131.314Y-43.497
X131.314Y-44.497
X132.064Y-45.497
X132.814Y-43.497
X132.814Y-44.497
X133.064Y-45.497
X134.064Y-42.997
X134.064Y-43.997
X134.064Y-44.997
X134.064Y-45.997
X136.194Y-42.997
X136.194Y-43.997
X136.194Y-44.997
X136.194Y-45.997
X137.194Y-45.497
X137.444Y-43.497
X137.444Y-44.497
X138.194Y-45.497
X138.944Y-43.497
X138.944Y-44.497
X139.194Y-45.497
X140.194Y-42.997
X140.194Y-43.997
X140.194Y-44.997
X140.194Y-45.997
X142.484Y-47.905
X143.5Y-47.905
X144.516Y-47.905
T2
X40.6Y-26.2
X40.6Y-178.2
X41.303Y-24.503
X41.303Y-27.897
X41.303Y-176.503
X41.303Y-179.897
X43.0Y-23.8
X43.0Y-28.6
X43.0Y-175.8
X43.0Y-180.6
X44.697Y-24.503
X44.697Y-27.897
X44.697Y-176.503
X44.697Y-179.897
X45.4Y-26.2
X45.4Y-178.2
X142.6Y-26.2
X142.6Y-178.2
X143.303Y-24.503
X143.303Y-27.897
X143.303Y-176.503
X143.303Y-179.897
X145.0Y-23.8
X145.0Y-28.6
X145.0Y-175.8
X145.0Y-180.6
X146.697Y-24.503
X146.697Y-27.897
X146.697Y-176.503
X146.697Y-179.897
X147.4Y-26.2
X147.4Y-178.2
T4
X105.75Y-34.547
X105.75Y-36.547
X105.75Y-38.547
X107.75Y-34.547
X107.75Y-36.547
X107.75Y-38.547
X109.75Y-34.547
X109.75Y-36.547
X109.75Y-38.547
X111.75Y-34.547
X111.75Y-36.547
X111.75Y-38.547
X113.75Y-34.547
X113.75Y-36.547
X113.75Y-38.547
X115.75Y-34.547
X115.75Y-36.547
X115.75Y-38.547
X117.75Y-34.547
X117.75Y-36.547
X117.75Y-38.547
X123.991Y-47.725
X123.991Y-49.225
X124.0Y-34.547
X124.0Y-36.547
X124.0Y-38.547
X125.893Y-47.725
X125.893Y-49.225
X126.0Y-34.547
X126.0Y-36.547
X126.0Y-38.547
X127.893Y-47.725
X127.893Y-49.225
X128.0Y-34.547
X128.0Y-36.547
X128.0Y-38.547
X129.991Y-47.725
X129.991Y-49.225
X130.0Y-34.547
X130.0Y-36.547
X130.0Y-38.547
X131.991Y-47.725
X131.991Y-49.225
X132.0Y-34.547
X132.0Y-36.547
X132.0Y-38.547
X133.991Y-47.725
X133.991Y-49.225
X134.0Y-34.547
X134.0Y-36.547
X134.0Y-38.547
X135.991Y-47.725
X135.991Y-49.225
X136.0Y-34.547
X136.0Y-36.547
X136.0Y-38.547
X137.95Y-47.725
X137.95Y-49.225
X138.0Y-34.547
X138.0Y-36.547
X138.0Y-38.547
X139.982Y-47.725
X139.982Y-49.225
T5
X74.635Y-24.8
X77.175Y-24.8
X79.715Y-24.8
X82.255Y-24.8
X84.795Y-24.8
X87.335Y-24.8
X89.875Y-24.8
T6
X67.15Y-37.6
X67.15Y-40.14
X67.15Y-42.68
X67.15Y-45.22
T7
X47.3Y-33.797
X52.0Y-30.797
X52.0Y-36.797
T8
X107.142Y-31.361
X116.642Y-31.361
X126.142Y-31.361
X135.642Y-31.361
T9
X43.0Y-26.2
X43.0Y-178.2
X145.0Y-26.2
X145.0Y-178.2
T3
X60.03Y-25.742G85X60.03Y-24.942
G05
X60.03Y-30.072G85X60.03Y-28.972
G05
X68.67Y-25.742G85X68.67Y-24.942
G05
X68.67Y-30.072G85X68.67Y-28.972
G05
M30
