G04 #@! TF.GenerationSoftware,KiCad,Pcbnew,8.0.1-8.0.1-1~ubuntu22.04.1*
G04 #@! TF.CreationDate,2024-04-29T17:17:20+02:00*
G04 #@! TF.ProjectId,0xaxe,30786178-652e-46b6-9963-61645f706362,302*
G04 #@! TF.SameCoordinates,Original*
G04 #@! TF.FileFunction,Soldermask,Top*
G04 #@! TF.FilePolarity,Negative*
%FSLAX46Y46*%
G04 Gerber Fmt 4.6, Leading zero omitted, Abs format (unit mm)*
G04 Created by KiCad (PCBNEW 8.0.1-8.0.1-1~ubuntu22.04.1) date 2024-04-29 17:17:20*
%MOMM*%
%LPD*%
G01*
G04 APERTURE LIST*
G04 Aperture macros list*
%AMRoundRect*
0 Rectangle with rounded corners*
0 $1 Rounding radius*
0 $2 $3 $4 $5 $6 $7 $8 $9 X,Y pos of 4 corners*
0 Add a 4 corners polygon primitive as box body*
4,1,4,$2,$3,$4,$5,$6,$7,$8,$9,$2,$3,0*
0 Add four circle primitives for the rounded corners*
1,1,$1+$1,$2,$3*
1,1,$1+$1,$4,$5*
1,1,$1+$1,$6,$7*
1,1,$1+$1,$8,$9*
0 Add four rect primitives between the rounded corners*
20,1,$1+$1,$2,$3,$4,$5,0*
20,1,$1+$1,$4,$5,$6,$7,0*
20,1,$1+$1,$6,$7,$8,$9,0*
20,1,$1+$1,$8,$9,$2,$3,0*%
%AMFreePoly0*
4,1,19,0.500000,-0.750000,0.000000,-0.750000,0.000000,-0.744911,-0.071157,-0.744911,-0.207708,-0.704816,-0.327430,-0.627875,-0.420627,-0.520320,-0.479746,-0.390866,-0.500000,-0.250000,-0.500000,0.250000,-0.479746,0.390866,-0.420627,0.520320,-0.327430,0.627875,-0.207708,0.704816,-0.071157,0.744911,0.000000,0.744911,0.000000,0.750000,0.500000,0.750000,0.500000,-0.750000,0.500000,-0.750000,
$1*%
%AMFreePoly1*
4,1,19,0.000000,0.744911,0.071157,0.744911,0.207708,0.704816,0.327430,0.627875,0.420627,0.520320,0.479746,0.390866,0.500000,0.250000,0.500000,-0.250000,0.479746,-0.390866,0.420627,-0.520320,0.327430,-0.627875,0.207708,-0.704816,0.071157,-0.744911,0.000000,-0.744911,0.000000,-0.750000,-0.500000,-0.750000,-0.500000,0.750000,0.000000,0.750000,0.000000,0.744911,0.000000,0.744911,
$1*%
%AMFreePoly2*
4,1,9,2.975000,-2.350000,1.425000,-2.350000,1.425000,-2.100000,-1.650000,-2.100000,-1.650000,2.100000,1.425000,2.100000,1.425000,2.350000,2.975000,2.350000,2.975000,-2.350000,2.975000,-2.350000,$1*%
G04 Aperture macros list end*
%ADD10C,0.120000*%
%ADD11C,4.300000*%
%ADD12RoundRect,0.150000X0.150000X-0.512500X0.150000X0.512500X-0.150000X0.512500X-0.150000X-0.512500X0*%
%ADD13R,0.221000X0.792000*%
%ADD14C,1.500000*%
%ADD15RoundRect,0.250000X-1.500000X-1.000000X1.500000X-1.000000X1.500000X1.000000X-1.500000X1.000000X0*%
%ADD16RoundRect,0.250000X0.250000X0.475000X-0.250000X0.475000X-0.250000X-0.475000X0.250000X-0.475000X0*%
%ADD17RoundRect,0.250000X-0.262500X-0.450000X0.262500X-0.450000X0.262500X0.450000X-0.262500X0.450000X0*%
%ADD18RoundRect,0.150000X-0.150000X0.512500X-0.150000X-0.512500X0.150000X-0.512500X0.150000X0.512500X0*%
%ADD19RoundRect,0.250000X-0.450000X0.262500X-0.450000X-0.262500X0.450000X-0.262500X0.450000X0.262500X0*%
%ADD20R,1.500000X4.000000*%
%ADD21C,3.500000*%
%ADD22RoundRect,0.250000X-0.475000X0.250000X-0.475000X-0.250000X0.475000X-0.250000X0.475000X0.250000X0*%
%ADD23RoundRect,0.250000X-0.325000X-0.650000X0.325000X-0.650000X0.325000X0.650000X-0.325000X0.650000X0*%
%ADD24FreePoly0,0.000000*%
%ADD25FreePoly1,0.000000*%
%ADD26RoundRect,0.250000X-0.250000X-0.475000X0.250000X-0.475000X0.250000X0.475000X-0.250000X0.475000X0*%
%ADD27RoundRect,0.250000X0.325000X0.650000X-0.325000X0.650000X-0.325000X-0.650000X0.325000X-0.650000X0*%
%ADD28C,0.800000*%
%ADD29C,6.400000*%
%ADD30C,3.600000*%
%ADD31RoundRect,0.250000X-0.450000X-0.800000X0.450000X-0.800000X0.450000X0.800000X-0.450000X0.800000X0*%
%ADD32RoundRect,0.250000X0.900000X-1.000000X0.900000X1.000000X-0.900000X1.000000X-0.900000X-1.000000X0*%
%ADD33RoundRect,0.250000X-0.375000X-0.625000X0.375000X-0.625000X0.375000X0.625000X-0.375000X0.625000X0*%
%ADD34O,2.030000X1.730000*%
%ADD35R,2.030000X1.730000*%
%ADD36C,1.100000*%
%ADD37RoundRect,0.250000X0.450000X-0.262500X0.450000X0.262500X-0.450000X0.262500X-0.450000X-0.262500X0*%
%ADD38FreePoly0,90.000000*%
%ADD39FreePoly1,90.000000*%
%ADD40RoundRect,0.250000X0.262500X0.450000X-0.262500X0.450000X-0.262500X-0.450000X0.262500X-0.450000X0*%
%ADD41RoundRect,0.150000X0.150000X-0.825000X0.150000X0.825000X-0.150000X0.825000X-0.150000X-0.825000X0*%
%ADD42R,2.760000X0.650000*%
%ADD43R,2.000000X2.000000*%
%ADD44RoundRect,0.250000X0.475000X-0.250000X0.475000X0.250000X-0.475000X0.250000X-0.475000X-0.250000X0*%
%ADD45RoundRect,0.050000X0.100000X-0.285000X0.100000X0.285000X-0.100000X0.285000X-0.100000X-0.285000X0*%
%ADD46RoundRect,0.150000X-0.587500X-0.150000X0.587500X-0.150000X0.587500X0.150000X-0.587500X0.150000X0*%
%ADD47R,4.245000X3.810000*%
%ADD48RoundRect,0.150000X-0.512500X-0.150000X0.512500X-0.150000X0.512500X0.150000X-0.512500X0.150000X0*%
%ADD49RoundRect,0.150000X0.512500X0.150000X-0.512500X0.150000X-0.512500X-0.150000X0.512500X-0.150000X0*%
%ADD50FreePoly2,270.000000*%
%ADD51RoundRect,0.175000X0.175000X0.400000X-0.175000X0.400000X-0.175000X-0.400000X0.175000X-0.400000X0*%
%ADD52RoundRect,0.375000X0.375000X-0.625000X0.375000X0.625000X-0.375000X0.625000X-0.375000X-0.625000X0*%
%ADD53RoundRect,0.500000X1.400000X-0.500000X1.400000X0.500000X-1.400000X0.500000X-1.400000X-0.500000X0*%
%ADD54O,1.000000X1.800000*%
%ADD55O,1.000000X2.100000*%
%ADD56RoundRect,0.150000X0.150000X0.425000X-0.150000X0.425000X-0.150000X-0.425000X0.150000X-0.425000X0*%
%ADD57RoundRect,0.075000X0.075000X0.500000X-0.075000X0.500000X-0.075000X-0.500000X0.075000X-0.500000X0*%
%ADD58C,0.650000*%
%ADD59RoundRect,0.100000X-0.100000X0.637500X-0.100000X-0.637500X0.100000X-0.637500X0.100000X0.637500X0*%
%ADD60R,2.600000X2.600000*%
%ADD61C,2.600000*%
%ADD62RoundRect,0.250000X0.650000X-0.325000X0.650000X0.325000X-0.650000X0.325000X-0.650000X-0.325000X0*%
%ADD63RoundRect,0.250000X-0.900000X1.000000X-0.900000X-1.000000X0.900000X-1.000000X0.900000X1.000000X0*%
%ADD64R,1.000000X0.900000*%
%ADD65RoundRect,0.100000X0.225000X0.100000X-0.225000X0.100000X-0.225000X-0.100000X0.225000X-0.100000X0*%
%ADD66RoundRect,0.125000X-0.625000X-0.125000X0.625000X-0.125000X0.625000X0.125000X-0.625000X0.125000X0*%
%ADD67RoundRect,0.125000X-0.125000X-0.625000X0.125000X-0.625000X0.125000X0.625000X-0.125000X0.625000X0*%
G04 APERTURE END LIST*
D10*
X84374000Y-97823900D02*
X86344000Y-97823900D01*
X86344000Y-96033900D01*
X84374000Y-96033900D01*
X84374000Y-97823900D01*
G36*
X84374000Y-97823900D02*
G01*
X86344000Y-97823900D01*
X86344000Y-96033900D01*
X84374000Y-96033900D01*
X84374000Y-97823900D01*
G37*
X84374000Y-100173900D02*
X86344000Y-100173900D01*
X86344000Y-98383900D01*
X84374000Y-98383900D01*
X84374000Y-100173900D01*
G36*
X84374000Y-100173900D02*
G01*
X86344000Y-100173900D01*
X86344000Y-98383900D01*
X84374000Y-98383900D01*
X84374000Y-100173900D01*
G37*
X86804000Y-97823900D02*
X88764000Y-97823900D01*
X88764000Y-96033900D01*
X86804000Y-96033900D01*
X86804000Y-97823900D01*
G36*
X86804000Y-97823900D02*
G01*
X88764000Y-97823900D01*
X88764000Y-96033900D01*
X86804000Y-96033900D01*
X86804000Y-97823900D01*
G37*
X86814000Y-100173900D02*
X88774000Y-100173900D01*
X88774000Y-98383900D01*
X86814000Y-98383900D01*
X86814000Y-100173900D01*
G36*
X86814000Y-100173900D02*
G01*
X88774000Y-100173900D01*
X88774000Y-98383900D01*
X86814000Y-98383900D01*
X86814000Y-100173900D01*
G37*
X89304000Y-97793900D02*
X90984000Y-97793900D01*
X90984000Y-96223900D01*
X89304000Y-96223900D01*
X89304000Y-97793900D01*
G36*
X89304000Y-97793900D02*
G01*
X90984000Y-97793900D01*
X90984000Y-96223900D01*
X89304000Y-96223900D01*
X89304000Y-97793900D01*
G37*
X89304000Y-99983900D02*
X90984000Y-99983900D01*
X90984000Y-98403900D01*
X89304000Y-98403900D01*
X89304000Y-99983900D01*
G36*
X89304000Y-99983900D02*
G01*
X90984000Y-99983900D01*
X90984000Y-98403900D01*
X89304000Y-98403900D01*
X89304000Y-99983900D01*
G37*
X84374000Y-145823900D02*
X86344000Y-145823900D01*
X86344000Y-144033900D01*
X84374000Y-144033900D01*
X84374000Y-145823900D01*
G36*
X84374000Y-145823900D02*
G01*
X86344000Y-145823900D01*
X86344000Y-144033900D01*
X84374000Y-144033900D01*
X84374000Y-145823900D01*
G37*
X84374000Y-148173900D02*
X86344000Y-148173900D01*
X86344000Y-146383900D01*
X84374000Y-146383900D01*
X84374000Y-148173900D01*
G36*
X84374000Y-148173900D02*
G01*
X86344000Y-148173900D01*
X86344000Y-146383900D01*
X84374000Y-146383900D01*
X84374000Y-148173900D01*
G37*
X86804000Y-145823900D02*
X88764000Y-145823900D01*
X88764000Y-144033900D01*
X86804000Y-144033900D01*
X86804000Y-145823900D01*
G36*
X86804000Y-145823900D02*
G01*
X88764000Y-145823900D01*
X88764000Y-144033900D01*
X86804000Y-144033900D01*
X86804000Y-145823900D01*
G37*
X86814000Y-148173900D02*
X88774000Y-148173900D01*
X88774000Y-146383900D01*
X86814000Y-146383900D01*
X86814000Y-148173900D01*
G36*
X86814000Y-148173900D02*
G01*
X88774000Y-148173900D01*
X88774000Y-146383900D01*
X86814000Y-146383900D01*
X86814000Y-148173900D01*
G37*
X89304000Y-145793900D02*
X90984000Y-145793900D01*
X90984000Y-144223900D01*
X89304000Y-144223900D01*
X89304000Y-145793900D01*
G36*
X89304000Y-145793900D02*
G01*
X90984000Y-145793900D01*
X90984000Y-144223900D01*
X89304000Y-144223900D01*
X89304000Y-145793900D01*
G37*
X89304000Y-147983900D02*
X90984000Y-147983900D01*
X90984000Y-146403900D01*
X89304000Y-146403900D01*
X89304000Y-147983900D01*
G36*
X89304000Y-147983900D02*
G01*
X90984000Y-147983900D01*
X90984000Y-146403900D01*
X89304000Y-146403900D01*
X89304000Y-147983900D01*
G37*
X71074000Y-97898900D02*
X73044000Y-97898900D01*
X73044000Y-96108900D01*
X71074000Y-96108900D01*
X71074000Y-97898900D01*
G36*
X71074000Y-97898900D02*
G01*
X73044000Y-97898900D01*
X73044000Y-96108900D01*
X71074000Y-96108900D01*
X71074000Y-97898900D01*
G37*
X71074000Y-100248900D02*
X73044000Y-100248900D01*
X73044000Y-98458900D01*
X71074000Y-98458900D01*
X71074000Y-100248900D01*
G36*
X71074000Y-100248900D02*
G01*
X73044000Y-100248900D01*
X73044000Y-98458900D01*
X71074000Y-98458900D01*
X71074000Y-100248900D01*
G37*
X73504000Y-97898900D02*
X75464000Y-97898900D01*
X75464000Y-96108900D01*
X73504000Y-96108900D01*
X73504000Y-97898900D01*
G36*
X73504000Y-97898900D02*
G01*
X75464000Y-97898900D01*
X75464000Y-96108900D01*
X73504000Y-96108900D01*
X73504000Y-97898900D01*
G37*
X73514000Y-100248900D02*
X75474000Y-100248900D01*
X75474000Y-98458900D01*
X73514000Y-98458900D01*
X73514000Y-100248900D01*
G36*
X73514000Y-100248900D02*
G01*
X75474000Y-100248900D01*
X75474000Y-98458900D01*
X73514000Y-98458900D01*
X73514000Y-100248900D01*
G37*
X76004000Y-97868900D02*
X77684000Y-97868900D01*
X77684000Y-96298900D01*
X76004000Y-96298900D01*
X76004000Y-97868900D01*
G36*
X76004000Y-97868900D02*
G01*
X77684000Y-97868900D01*
X77684000Y-96298900D01*
X76004000Y-96298900D01*
X76004000Y-97868900D01*
G37*
X76004000Y-100058900D02*
X77684000Y-100058900D01*
X77684000Y-98478900D01*
X76004000Y-98478900D01*
X76004000Y-100058900D01*
G36*
X76004000Y-100058900D02*
G01*
X77684000Y-100058900D01*
X77684000Y-98478900D01*
X76004000Y-98478900D01*
X76004000Y-100058900D01*
G37*
X71074000Y-129898900D02*
X73044000Y-129898900D01*
X73044000Y-128108900D01*
X71074000Y-128108900D01*
X71074000Y-129898900D01*
G36*
X71074000Y-129898900D02*
G01*
X73044000Y-129898900D01*
X73044000Y-128108900D01*
X71074000Y-128108900D01*
X71074000Y-129898900D01*
G37*
X71074000Y-132248900D02*
X73044000Y-132248900D01*
X73044000Y-130458900D01*
X71074000Y-130458900D01*
X71074000Y-132248900D01*
G36*
X71074000Y-132248900D02*
G01*
X73044000Y-132248900D01*
X73044000Y-130458900D01*
X71074000Y-130458900D01*
X71074000Y-132248900D01*
G37*
X73504000Y-129898900D02*
X75464000Y-129898900D01*
X75464000Y-128108900D01*
X73504000Y-128108900D01*
X73504000Y-129898900D01*
G36*
X73504000Y-129898900D02*
G01*
X75464000Y-129898900D01*
X75464000Y-128108900D01*
X73504000Y-128108900D01*
X73504000Y-129898900D01*
G37*
X73514000Y-132248900D02*
X75474000Y-132248900D01*
X75474000Y-130458900D01*
X73514000Y-130458900D01*
X73514000Y-132248900D01*
G36*
X73514000Y-132248900D02*
G01*
X75474000Y-132248900D01*
X75474000Y-130458900D01*
X73514000Y-130458900D01*
X73514000Y-132248900D01*
G37*
X76004000Y-129868900D02*
X77684000Y-129868900D01*
X77684000Y-128298900D01*
X76004000Y-128298900D01*
X76004000Y-129868900D01*
G36*
X76004000Y-129868900D02*
G01*
X77684000Y-129868900D01*
X77684000Y-128298900D01*
X76004000Y-128298900D01*
X76004000Y-129868900D01*
G37*
X76004000Y-132058900D02*
X77684000Y-132058900D01*
X77684000Y-130478900D01*
X76004000Y-130478900D01*
X76004000Y-132058900D01*
G36*
X76004000Y-132058900D02*
G01*
X77684000Y-132058900D01*
X77684000Y-130478900D01*
X76004000Y-130478900D01*
X76004000Y-132058900D01*
G37*
X110952000Y-113540900D02*
X112922000Y-113540900D01*
X112922000Y-111750900D01*
X110952000Y-111750900D01*
X110952000Y-113540900D01*
G36*
X110952000Y-113540900D02*
G01*
X112922000Y-113540900D01*
X112922000Y-111750900D01*
X110952000Y-111750900D01*
X110952000Y-113540900D01*
G37*
X110952000Y-115890900D02*
X112922000Y-115890900D01*
X112922000Y-114100900D01*
X110952000Y-114100900D01*
X110952000Y-115890900D01*
G36*
X110952000Y-115890900D02*
G01*
X112922000Y-115890900D01*
X112922000Y-114100900D01*
X110952000Y-114100900D01*
X110952000Y-115890900D01*
G37*
X113382000Y-113540900D02*
X115342000Y-113540900D01*
X115342000Y-111750900D01*
X113382000Y-111750900D01*
X113382000Y-113540900D01*
G36*
X113382000Y-113540900D02*
G01*
X115342000Y-113540900D01*
X115342000Y-111750900D01*
X113382000Y-111750900D01*
X113382000Y-113540900D01*
G37*
X113392000Y-115890900D02*
X115352000Y-115890900D01*
X115352000Y-114100900D01*
X113392000Y-114100900D01*
X113392000Y-115890900D01*
G36*
X113392000Y-115890900D02*
G01*
X115352000Y-115890900D01*
X115352000Y-114100900D01*
X113392000Y-114100900D01*
X113392000Y-115890900D01*
G37*
X115882000Y-113510900D02*
X117562000Y-113510900D01*
X117562000Y-111940900D01*
X115882000Y-111940900D01*
X115882000Y-113510900D01*
G36*
X115882000Y-113510900D02*
G01*
X117562000Y-113510900D01*
X117562000Y-111940900D01*
X115882000Y-111940900D01*
X115882000Y-113510900D01*
G37*
X115882000Y-115700900D02*
X117562000Y-115700900D01*
X117562000Y-114120900D01*
X115882000Y-114120900D01*
X115882000Y-115700900D01*
G36*
X115882000Y-115700900D02*
G01*
X117562000Y-115700900D01*
X117562000Y-114120900D01*
X115882000Y-114120900D01*
X115882000Y-115700900D01*
G37*
X97713000Y-129669900D02*
X99683000Y-129669900D01*
X99683000Y-127879900D01*
X97713000Y-127879900D01*
X97713000Y-129669900D01*
G36*
X97713000Y-129669900D02*
G01*
X99683000Y-129669900D01*
X99683000Y-127879900D01*
X97713000Y-127879900D01*
X97713000Y-129669900D01*
G37*
X97713000Y-132019900D02*
X99683000Y-132019900D01*
X99683000Y-130229900D01*
X97713000Y-130229900D01*
X97713000Y-132019900D01*
G36*
X97713000Y-132019900D02*
G01*
X99683000Y-132019900D01*
X99683000Y-130229900D01*
X97713000Y-130229900D01*
X97713000Y-132019900D01*
G37*
X100143000Y-129669900D02*
X102103000Y-129669900D01*
X102103000Y-127879900D01*
X100143000Y-127879900D01*
X100143000Y-129669900D01*
G36*
X100143000Y-129669900D02*
G01*
X102103000Y-129669900D01*
X102103000Y-127879900D01*
X100143000Y-127879900D01*
X100143000Y-129669900D01*
G37*
X100153000Y-132019900D02*
X102113000Y-132019900D01*
X102113000Y-130229900D01*
X100153000Y-130229900D01*
X100153000Y-132019900D01*
G36*
X100153000Y-132019900D02*
G01*
X102113000Y-132019900D01*
X102113000Y-130229900D01*
X100153000Y-130229900D01*
X100153000Y-132019900D01*
G37*
X102643000Y-129639900D02*
X104323000Y-129639900D01*
X104323000Y-128069900D01*
X102643000Y-128069900D01*
X102643000Y-129639900D01*
G36*
X102643000Y-129639900D02*
G01*
X104323000Y-129639900D01*
X104323000Y-128069900D01*
X102643000Y-128069900D01*
X102643000Y-129639900D01*
G37*
X102643000Y-131829900D02*
X104323000Y-131829900D01*
X104323000Y-130249900D01*
X102643000Y-130249900D01*
X102643000Y-131829900D01*
G36*
X102643000Y-131829900D02*
G01*
X104323000Y-131829900D01*
X104323000Y-130249900D01*
X102643000Y-130249900D01*
X102643000Y-131829900D01*
G37*
X110952000Y-145540900D02*
X112922000Y-145540900D01*
X112922000Y-143750900D01*
X110952000Y-143750900D01*
X110952000Y-145540900D01*
G36*
X110952000Y-145540900D02*
G01*
X112922000Y-145540900D01*
X112922000Y-143750900D01*
X110952000Y-143750900D01*
X110952000Y-145540900D01*
G37*
X110952000Y-147890900D02*
X112922000Y-147890900D01*
X112922000Y-146100900D01*
X110952000Y-146100900D01*
X110952000Y-147890900D01*
G36*
X110952000Y-147890900D02*
G01*
X112922000Y-147890900D01*
X112922000Y-146100900D01*
X110952000Y-146100900D01*
X110952000Y-147890900D01*
G37*
X113382000Y-145540900D02*
X115342000Y-145540900D01*
X115342000Y-143750900D01*
X113382000Y-143750900D01*
X113382000Y-145540900D01*
G36*
X113382000Y-145540900D02*
G01*
X115342000Y-145540900D01*
X115342000Y-143750900D01*
X113382000Y-143750900D01*
X113382000Y-145540900D01*
G37*
X113392000Y-147890900D02*
X115352000Y-147890900D01*
X115352000Y-146100900D01*
X113392000Y-146100900D01*
X113392000Y-147890900D01*
G36*
X113392000Y-147890900D02*
G01*
X115352000Y-147890900D01*
X115352000Y-146100900D01*
X113392000Y-146100900D01*
X113392000Y-147890900D01*
G37*
X115882000Y-145510900D02*
X117562000Y-145510900D01*
X117562000Y-143940900D01*
X115882000Y-143940900D01*
X115882000Y-145510900D01*
G36*
X115882000Y-145510900D02*
G01*
X117562000Y-145510900D01*
X117562000Y-143940900D01*
X115882000Y-143940900D01*
X115882000Y-145510900D01*
G37*
X115882000Y-147700900D02*
X117562000Y-147700900D01*
X117562000Y-146120900D01*
X115882000Y-146120900D01*
X115882000Y-147700900D01*
G36*
X115882000Y-147700900D02*
G01*
X117562000Y-147700900D01*
X117562000Y-146120900D01*
X115882000Y-146120900D01*
X115882000Y-147700900D01*
G37*
X97713000Y-145669900D02*
X99683000Y-145669900D01*
X99683000Y-143879900D01*
X97713000Y-143879900D01*
X97713000Y-145669900D01*
G36*
X97713000Y-145669900D02*
G01*
X99683000Y-145669900D01*
X99683000Y-143879900D01*
X97713000Y-143879900D01*
X97713000Y-145669900D01*
G37*
X97713000Y-148019900D02*
X99683000Y-148019900D01*
X99683000Y-146229900D01*
X97713000Y-146229900D01*
X97713000Y-148019900D01*
G36*
X97713000Y-148019900D02*
G01*
X99683000Y-148019900D01*
X99683000Y-146229900D01*
X97713000Y-146229900D01*
X97713000Y-148019900D01*
G37*
X100143000Y-145669900D02*
X102103000Y-145669900D01*
X102103000Y-143879900D01*
X100143000Y-143879900D01*
X100143000Y-145669900D01*
G36*
X100143000Y-145669900D02*
G01*
X102103000Y-145669900D01*
X102103000Y-143879900D01*
X100143000Y-143879900D01*
X100143000Y-145669900D01*
G37*
X100153000Y-148019900D02*
X102113000Y-148019900D01*
X102113000Y-146229900D01*
X100153000Y-146229900D01*
X100153000Y-148019900D01*
G36*
X100153000Y-148019900D02*
G01*
X102113000Y-148019900D01*
X102113000Y-146229900D01*
X100153000Y-146229900D01*
X100153000Y-148019900D01*
G37*
X102643000Y-145639900D02*
X104323000Y-145639900D01*
X104323000Y-144069900D01*
X102643000Y-144069900D01*
X102643000Y-145639900D01*
G36*
X102643000Y-145639900D02*
G01*
X104323000Y-145639900D01*
X104323000Y-144069900D01*
X102643000Y-144069900D01*
X102643000Y-145639900D01*
G37*
X102643000Y-147829900D02*
X104323000Y-147829900D01*
X104323000Y-146249900D01*
X102643000Y-146249900D01*
X102643000Y-147829900D01*
G36*
X102643000Y-147829900D02*
G01*
X104323000Y-147829900D01*
X104323000Y-146249900D01*
X102643000Y-146249900D01*
X102643000Y-147829900D01*
G37*
X71074000Y-113898900D02*
X73044000Y-113898900D01*
X73044000Y-112108900D01*
X71074000Y-112108900D01*
X71074000Y-113898900D01*
G36*
X71074000Y-113898900D02*
G01*
X73044000Y-113898900D01*
X73044000Y-112108900D01*
X71074000Y-112108900D01*
X71074000Y-113898900D01*
G37*
X71074000Y-116248900D02*
X73044000Y-116248900D01*
X73044000Y-114458900D01*
X71074000Y-114458900D01*
X71074000Y-116248900D01*
G36*
X71074000Y-116248900D02*
G01*
X73044000Y-116248900D01*
X73044000Y-114458900D01*
X71074000Y-114458900D01*
X71074000Y-116248900D01*
G37*
X73504000Y-113898900D02*
X75464000Y-113898900D01*
X75464000Y-112108900D01*
X73504000Y-112108900D01*
X73504000Y-113898900D01*
G36*
X73504000Y-113898900D02*
G01*
X75464000Y-113898900D01*
X75464000Y-112108900D01*
X73504000Y-112108900D01*
X73504000Y-113898900D01*
G37*
X73514000Y-116248900D02*
X75474000Y-116248900D01*
X75474000Y-114458900D01*
X73514000Y-114458900D01*
X73514000Y-116248900D01*
G36*
X73514000Y-116248900D02*
G01*
X75474000Y-116248900D01*
X75474000Y-114458900D01*
X73514000Y-114458900D01*
X73514000Y-116248900D01*
G37*
X76004000Y-113868900D02*
X77684000Y-113868900D01*
X77684000Y-112298900D01*
X76004000Y-112298900D01*
X76004000Y-113868900D01*
G36*
X76004000Y-113868900D02*
G01*
X77684000Y-113868900D01*
X77684000Y-112298900D01*
X76004000Y-112298900D01*
X76004000Y-113868900D01*
G37*
X76004000Y-116058900D02*
X77684000Y-116058900D01*
X77684000Y-114478900D01*
X76004000Y-114478900D01*
X76004000Y-116058900D01*
G36*
X76004000Y-116058900D02*
G01*
X77684000Y-116058900D01*
X77684000Y-114478900D01*
X76004000Y-114478900D01*
X76004000Y-116058900D01*
G37*
X84374000Y-129823900D02*
X86344000Y-129823900D01*
X86344000Y-128033900D01*
X84374000Y-128033900D01*
X84374000Y-129823900D01*
G36*
X84374000Y-129823900D02*
G01*
X86344000Y-129823900D01*
X86344000Y-128033900D01*
X84374000Y-128033900D01*
X84374000Y-129823900D01*
G37*
X84374000Y-132173900D02*
X86344000Y-132173900D01*
X86344000Y-130383900D01*
X84374000Y-130383900D01*
X84374000Y-132173900D01*
G36*
X84374000Y-132173900D02*
G01*
X86344000Y-132173900D01*
X86344000Y-130383900D01*
X84374000Y-130383900D01*
X84374000Y-132173900D01*
G37*
X86804000Y-129823900D02*
X88764000Y-129823900D01*
X88764000Y-128033900D01*
X86804000Y-128033900D01*
X86804000Y-129823900D01*
G36*
X86804000Y-129823900D02*
G01*
X88764000Y-129823900D01*
X88764000Y-128033900D01*
X86804000Y-128033900D01*
X86804000Y-129823900D01*
G37*
X86814000Y-132173900D02*
X88774000Y-132173900D01*
X88774000Y-130383900D01*
X86814000Y-130383900D01*
X86814000Y-132173900D01*
G36*
X86814000Y-132173900D02*
G01*
X88774000Y-132173900D01*
X88774000Y-130383900D01*
X86814000Y-130383900D01*
X86814000Y-132173900D01*
G37*
X89304000Y-129793900D02*
X90984000Y-129793900D01*
X90984000Y-128223900D01*
X89304000Y-128223900D01*
X89304000Y-129793900D01*
G36*
X89304000Y-129793900D02*
G01*
X90984000Y-129793900D01*
X90984000Y-128223900D01*
X89304000Y-128223900D01*
X89304000Y-129793900D01*
G37*
X89304000Y-131983900D02*
X90984000Y-131983900D01*
X90984000Y-130403900D01*
X89304000Y-130403900D01*
X89304000Y-131983900D01*
G36*
X89304000Y-131983900D02*
G01*
X90984000Y-131983900D01*
X90984000Y-130403900D01*
X89304000Y-130403900D01*
X89304000Y-131983900D01*
G37*
X97713000Y-113669900D02*
X99683000Y-113669900D01*
X99683000Y-111879900D01*
X97713000Y-111879900D01*
X97713000Y-113669900D01*
G36*
X97713000Y-113669900D02*
G01*
X99683000Y-113669900D01*
X99683000Y-111879900D01*
X97713000Y-111879900D01*
X97713000Y-113669900D01*
G37*
X97713000Y-116019900D02*
X99683000Y-116019900D01*
X99683000Y-114229900D01*
X97713000Y-114229900D01*
X97713000Y-116019900D01*
G36*
X97713000Y-116019900D02*
G01*
X99683000Y-116019900D01*
X99683000Y-114229900D01*
X97713000Y-114229900D01*
X97713000Y-116019900D01*
G37*
X100143000Y-113669900D02*
X102103000Y-113669900D01*
X102103000Y-111879900D01*
X100143000Y-111879900D01*
X100143000Y-113669900D01*
G36*
X100143000Y-113669900D02*
G01*
X102103000Y-113669900D01*
X102103000Y-111879900D01*
X100143000Y-111879900D01*
X100143000Y-113669900D01*
G37*
X100153000Y-116019900D02*
X102113000Y-116019900D01*
X102113000Y-114229900D01*
X100153000Y-114229900D01*
X100153000Y-116019900D01*
G36*
X100153000Y-116019900D02*
G01*
X102113000Y-116019900D01*
X102113000Y-114229900D01*
X100153000Y-114229900D01*
X100153000Y-116019900D01*
G37*
X102643000Y-113639900D02*
X104323000Y-113639900D01*
X104323000Y-112069900D01*
X102643000Y-112069900D01*
X102643000Y-113639900D01*
G36*
X102643000Y-113639900D02*
G01*
X104323000Y-113639900D01*
X104323000Y-112069900D01*
X102643000Y-112069900D01*
X102643000Y-113639900D01*
G37*
X102643000Y-115829900D02*
X104323000Y-115829900D01*
X104323000Y-114249900D01*
X102643000Y-114249900D01*
X102643000Y-115829900D01*
G36*
X102643000Y-115829900D02*
G01*
X104323000Y-115829900D01*
X104323000Y-114249900D01*
X102643000Y-114249900D01*
X102643000Y-115829900D01*
G37*
X97713000Y-97669900D02*
X99683000Y-97669900D01*
X99683000Y-95879900D01*
X97713000Y-95879900D01*
X97713000Y-97669900D01*
G36*
X97713000Y-97669900D02*
G01*
X99683000Y-97669900D01*
X99683000Y-95879900D01*
X97713000Y-95879900D01*
X97713000Y-97669900D01*
G37*
X97713000Y-100019900D02*
X99683000Y-100019900D01*
X99683000Y-98229900D01*
X97713000Y-98229900D01*
X97713000Y-100019900D01*
G36*
X97713000Y-100019900D02*
G01*
X99683000Y-100019900D01*
X99683000Y-98229900D01*
X97713000Y-98229900D01*
X97713000Y-100019900D01*
G37*
X100143000Y-97669900D02*
X102103000Y-97669900D01*
X102103000Y-95879900D01*
X100143000Y-95879900D01*
X100143000Y-97669900D01*
G36*
X100143000Y-97669900D02*
G01*
X102103000Y-97669900D01*
X102103000Y-95879900D01*
X100143000Y-95879900D01*
X100143000Y-97669900D01*
G37*
X100153000Y-100019900D02*
X102113000Y-100019900D01*
X102113000Y-98229900D01*
X100153000Y-98229900D01*
X100153000Y-100019900D01*
G36*
X100153000Y-100019900D02*
G01*
X102113000Y-100019900D01*
X102113000Y-98229900D01*
X100153000Y-98229900D01*
X100153000Y-100019900D01*
G37*
X102643000Y-97639900D02*
X104323000Y-97639900D01*
X104323000Y-96069900D01*
X102643000Y-96069900D01*
X102643000Y-97639900D01*
G36*
X102643000Y-97639900D02*
G01*
X104323000Y-97639900D01*
X104323000Y-96069900D01*
X102643000Y-96069900D01*
X102643000Y-97639900D01*
G37*
X102643000Y-99829900D02*
X104323000Y-99829900D01*
X104323000Y-98249900D01*
X102643000Y-98249900D01*
X102643000Y-99829900D01*
G36*
X102643000Y-99829900D02*
G01*
X104323000Y-99829900D01*
X104323000Y-98249900D01*
X102643000Y-98249900D01*
X102643000Y-99829900D01*
G37*
X110952000Y-129540900D02*
X112922000Y-129540900D01*
X112922000Y-127750900D01*
X110952000Y-127750900D01*
X110952000Y-129540900D01*
G36*
X110952000Y-129540900D02*
G01*
X112922000Y-129540900D01*
X112922000Y-127750900D01*
X110952000Y-127750900D01*
X110952000Y-129540900D01*
G37*
X110952000Y-131890900D02*
X112922000Y-131890900D01*
X112922000Y-130100900D01*
X110952000Y-130100900D01*
X110952000Y-131890900D01*
G36*
X110952000Y-131890900D02*
G01*
X112922000Y-131890900D01*
X112922000Y-130100900D01*
X110952000Y-130100900D01*
X110952000Y-131890900D01*
G37*
X113382000Y-129540900D02*
X115342000Y-129540900D01*
X115342000Y-127750900D01*
X113382000Y-127750900D01*
X113382000Y-129540900D01*
G36*
X113382000Y-129540900D02*
G01*
X115342000Y-129540900D01*
X115342000Y-127750900D01*
X113382000Y-127750900D01*
X113382000Y-129540900D01*
G37*
X113392000Y-131890900D02*
X115352000Y-131890900D01*
X115352000Y-130100900D01*
X113392000Y-130100900D01*
X113392000Y-131890900D01*
G36*
X113392000Y-131890900D02*
G01*
X115352000Y-131890900D01*
X115352000Y-130100900D01*
X113392000Y-130100900D01*
X113392000Y-131890900D01*
G37*
X115882000Y-129510900D02*
X117562000Y-129510900D01*
X117562000Y-127940900D01*
X115882000Y-127940900D01*
X115882000Y-129510900D01*
G36*
X115882000Y-129510900D02*
G01*
X117562000Y-129510900D01*
X117562000Y-127940900D01*
X115882000Y-127940900D01*
X115882000Y-129510900D01*
G37*
X115882000Y-131700900D02*
X117562000Y-131700900D01*
X117562000Y-130120900D01*
X115882000Y-130120900D01*
X115882000Y-131700900D01*
G36*
X115882000Y-131700900D02*
G01*
X117562000Y-131700900D01*
X117562000Y-130120900D01*
X115882000Y-130120900D01*
X115882000Y-131700900D01*
G37*
X71074000Y-145898900D02*
X73044000Y-145898900D01*
X73044000Y-144108900D01*
X71074000Y-144108900D01*
X71074000Y-145898900D01*
G36*
X71074000Y-145898900D02*
G01*
X73044000Y-145898900D01*
X73044000Y-144108900D01*
X71074000Y-144108900D01*
X71074000Y-145898900D01*
G37*
X71074000Y-148248900D02*
X73044000Y-148248900D01*
X73044000Y-146458900D01*
X71074000Y-146458900D01*
X71074000Y-148248900D01*
G36*
X71074000Y-148248900D02*
G01*
X73044000Y-148248900D01*
X73044000Y-146458900D01*
X71074000Y-146458900D01*
X71074000Y-148248900D01*
G37*
X73504000Y-145898900D02*
X75464000Y-145898900D01*
X75464000Y-144108900D01*
X73504000Y-144108900D01*
X73504000Y-145898900D01*
G36*
X73504000Y-145898900D02*
G01*
X75464000Y-145898900D01*
X75464000Y-144108900D01*
X73504000Y-144108900D01*
X73504000Y-145898900D01*
G37*
X73514000Y-148248900D02*
X75474000Y-148248900D01*
X75474000Y-146458900D01*
X73514000Y-146458900D01*
X73514000Y-148248900D01*
G36*
X73514000Y-148248900D02*
G01*
X75474000Y-148248900D01*
X75474000Y-146458900D01*
X73514000Y-146458900D01*
X73514000Y-148248900D01*
G37*
X76004000Y-145868900D02*
X77684000Y-145868900D01*
X77684000Y-144298900D01*
X76004000Y-144298900D01*
X76004000Y-145868900D01*
G36*
X76004000Y-145868900D02*
G01*
X77684000Y-145868900D01*
X77684000Y-144298900D01*
X76004000Y-144298900D01*
X76004000Y-145868900D01*
G37*
X76004000Y-148058900D02*
X77684000Y-148058900D01*
X77684000Y-146478900D01*
X76004000Y-146478900D01*
X76004000Y-148058900D01*
G36*
X76004000Y-148058900D02*
G01*
X77684000Y-148058900D01*
X77684000Y-146478900D01*
X76004000Y-146478900D01*
X76004000Y-148058900D01*
G37*
X110952000Y-97540900D02*
X112922000Y-97540900D01*
X112922000Y-95750900D01*
X110952000Y-95750900D01*
X110952000Y-97540900D01*
G36*
X110952000Y-97540900D02*
G01*
X112922000Y-97540900D01*
X112922000Y-95750900D01*
X110952000Y-95750900D01*
X110952000Y-97540900D01*
G37*
X110952000Y-99890900D02*
X112922000Y-99890900D01*
X112922000Y-98100900D01*
X110952000Y-98100900D01*
X110952000Y-99890900D01*
G36*
X110952000Y-99890900D02*
G01*
X112922000Y-99890900D01*
X112922000Y-98100900D01*
X110952000Y-98100900D01*
X110952000Y-99890900D01*
G37*
X113382000Y-97540900D02*
X115342000Y-97540900D01*
X115342000Y-95750900D01*
X113382000Y-95750900D01*
X113382000Y-97540900D01*
G36*
X113382000Y-97540900D02*
G01*
X115342000Y-97540900D01*
X115342000Y-95750900D01*
X113382000Y-95750900D01*
X113382000Y-97540900D01*
G37*
X113392000Y-99890900D02*
X115352000Y-99890900D01*
X115352000Y-98100900D01*
X113392000Y-98100900D01*
X113392000Y-99890900D01*
G36*
X113392000Y-99890900D02*
G01*
X115352000Y-99890900D01*
X115352000Y-98100900D01*
X113392000Y-98100900D01*
X113392000Y-99890900D01*
G37*
X115882000Y-97510900D02*
X117562000Y-97510900D01*
X117562000Y-95940900D01*
X115882000Y-95940900D01*
X115882000Y-97510900D01*
G36*
X115882000Y-97510900D02*
G01*
X117562000Y-97510900D01*
X117562000Y-95940900D01*
X115882000Y-95940900D01*
X115882000Y-97510900D01*
G37*
X115882000Y-99700900D02*
X117562000Y-99700900D01*
X117562000Y-98120900D01*
X115882000Y-98120900D01*
X115882000Y-99700900D01*
G36*
X115882000Y-99700900D02*
G01*
X117562000Y-99700900D01*
X117562000Y-98120900D01*
X115882000Y-98120900D01*
X115882000Y-99700900D01*
G37*
X84374000Y-113823900D02*
X86344000Y-113823900D01*
X86344000Y-112033900D01*
X84374000Y-112033900D01*
X84374000Y-113823900D01*
G36*
X84374000Y-113823900D02*
G01*
X86344000Y-113823900D01*
X86344000Y-112033900D01*
X84374000Y-112033900D01*
X84374000Y-113823900D01*
G37*
X84374000Y-116173900D02*
X86344000Y-116173900D01*
X86344000Y-114383900D01*
X84374000Y-114383900D01*
X84374000Y-116173900D01*
G36*
X84374000Y-116173900D02*
G01*
X86344000Y-116173900D01*
X86344000Y-114383900D01*
X84374000Y-114383900D01*
X84374000Y-116173900D01*
G37*
X86804000Y-113823900D02*
X88764000Y-113823900D01*
X88764000Y-112033900D01*
X86804000Y-112033900D01*
X86804000Y-113823900D01*
G36*
X86804000Y-113823900D02*
G01*
X88764000Y-113823900D01*
X88764000Y-112033900D01*
X86804000Y-112033900D01*
X86804000Y-113823900D01*
G37*
X86814000Y-116173900D02*
X88774000Y-116173900D01*
X88774000Y-114383900D01*
X86814000Y-114383900D01*
X86814000Y-116173900D01*
G36*
X86814000Y-116173900D02*
G01*
X88774000Y-116173900D01*
X88774000Y-114383900D01*
X86814000Y-114383900D01*
X86814000Y-116173900D01*
G37*
X89304000Y-113793900D02*
X90984000Y-113793900D01*
X90984000Y-112223900D01*
X89304000Y-112223900D01*
X89304000Y-113793900D01*
G36*
X89304000Y-113793900D02*
G01*
X90984000Y-113793900D01*
X90984000Y-112223900D01*
X89304000Y-112223900D01*
X89304000Y-113793900D01*
G37*
X89304000Y-115983900D02*
X90984000Y-115983900D01*
X90984000Y-114403900D01*
X89304000Y-114403900D01*
X89304000Y-115983900D01*
G36*
X89304000Y-115983900D02*
G01*
X90984000Y-115983900D01*
X90984000Y-114403900D01*
X89304000Y-114403900D01*
X89304000Y-115983900D01*
G37*
D11*
X54000000Y-162000000D03*
X134000000Y-162000000D03*
X134000000Y-82000000D03*
X54000000Y-82000000D03*
D12*
X57912500Y-57437500D03*
X58862500Y-57437500D03*
X59812500Y-57437500D03*
X59812500Y-55162500D03*
X57912500Y-55162500D03*
D13*
X90937000Y-95187900D03*
X90435000Y-95187900D03*
X89933000Y-95187900D03*
X89431000Y-95187900D03*
X88929000Y-95187900D03*
X88427000Y-95187900D03*
X87925000Y-95187900D03*
X87423000Y-95187900D03*
X86921000Y-95187900D03*
X86419000Y-95187900D03*
X85917000Y-95187900D03*
X85415000Y-95187900D03*
X84913000Y-95187900D03*
X84411000Y-95187900D03*
X84424000Y-101019900D03*
X84924000Y-101019900D03*
X85424000Y-101019900D03*
X85924000Y-101019900D03*
X86424000Y-101019900D03*
X86921000Y-101019900D03*
X87424000Y-101019900D03*
X87925000Y-101019900D03*
X88427000Y-101019900D03*
X88929000Y-101019900D03*
X89431000Y-101019900D03*
X89924000Y-101019900D03*
X90435000Y-101019900D03*
X90924000Y-101019900D03*
D14*
X58500000Y-166000000D03*
D15*
X54350000Y-42475000D03*
X60850000Y-42475000D03*
D16*
X87250000Y-59000000D03*
X89150000Y-59000000D03*
D17*
X59687500Y-32917000D03*
X61512500Y-32917000D03*
D18*
X99100000Y-55125000D03*
X98150000Y-55125000D03*
X97200000Y-55125000D03*
X97200000Y-57400000D03*
X99100000Y-57400000D03*
D19*
X111407499Y-41146500D03*
X111407499Y-42971500D03*
D20*
X41925000Y-57925000D03*
X45525000Y-57925000D03*
D21*
X135642500Y-31361000D03*
X126142500Y-31361000D03*
X116642500Y-31361000D03*
X107142500Y-31361000D03*
D22*
X69000000Y-59400000D03*
X69000000Y-57500000D03*
D18*
X118350000Y-55125000D03*
X117400000Y-55125000D03*
X116450000Y-55125000D03*
X116450000Y-57400000D03*
X118350000Y-57400000D03*
D16*
X87300000Y-49600000D03*
X89200000Y-49600000D03*
D23*
X42772200Y-45308000D03*
X45722200Y-45308000D03*
D16*
X76431000Y-31097000D03*
X74531000Y-31097000D03*
D24*
X47525000Y-59675000D03*
D25*
X48825000Y-59675000D03*
D13*
X90937000Y-143187900D03*
X90435000Y-143187900D03*
X89933000Y-143187900D03*
X89431000Y-143187900D03*
X88929000Y-143187900D03*
X88427000Y-143187900D03*
X87925000Y-143187900D03*
X87423000Y-143187900D03*
X86921000Y-143187900D03*
X86419000Y-143187900D03*
X85917000Y-143187900D03*
X85415000Y-143187900D03*
X84913000Y-143187900D03*
X84411000Y-143187900D03*
X84424000Y-149019900D03*
X84924000Y-149019900D03*
X85424000Y-149019900D03*
X85924000Y-149019900D03*
X86424000Y-149019900D03*
X86921000Y-149019900D03*
X87424000Y-149019900D03*
X87925000Y-149019900D03*
X88427000Y-149019900D03*
X88929000Y-149019900D03*
X89431000Y-149019900D03*
X89924000Y-149019900D03*
X90435000Y-149019900D03*
X90924000Y-149019900D03*
D19*
X76500000Y-40984500D03*
X76500000Y-42809500D03*
D26*
X57912500Y-59350000D03*
X59812500Y-59350000D03*
D22*
X124000000Y-54500000D03*
X124000000Y-52600000D03*
D27*
X53775000Y-57025000D03*
X50825000Y-57025000D03*
D28*
X40600000Y-178200000D03*
X41302944Y-176502944D03*
X41302944Y-179897056D03*
X43000000Y-175800000D03*
D29*
X43000000Y-178200000D03*
D28*
X43000000Y-180600000D03*
X44697056Y-176502944D03*
X44697056Y-179897056D03*
X45400000Y-178200000D03*
D30*
X61400000Y-122000000D03*
D31*
X40993200Y-51577000D03*
X45393200Y-51577000D03*
D32*
X42988200Y-37003800D03*
X42988200Y-32703800D03*
D22*
X69000000Y-54550000D03*
X69000000Y-52650000D03*
D33*
X99712500Y-45000000D03*
X102512500Y-45000000D03*
D34*
X67150000Y-45220000D03*
X67150000Y-42680000D03*
X67150000Y-40140000D03*
D35*
X67150000Y-37600000D03*
D36*
X69310000Y-42680000D03*
D26*
X94800000Y-59000000D03*
X92900000Y-59000000D03*
D16*
X63250000Y-59400000D03*
X61350000Y-59400000D03*
D26*
X115850000Y-48200000D03*
X117750000Y-48200000D03*
D30*
X126600000Y-122000000D03*
D19*
X80800000Y-27737500D03*
X80800000Y-29562500D03*
D16*
X80400000Y-44197000D03*
X78500000Y-44197000D03*
D18*
X66812200Y-57476200D03*
X64912200Y-57476200D03*
X64912200Y-55201200D03*
X65862200Y-55201200D03*
X66812200Y-55201200D03*
D16*
X121929000Y-53153900D03*
X120029000Y-53153900D03*
X79047800Y-59250300D03*
X77147800Y-59250300D03*
D37*
X135153400Y-60907300D03*
X135153400Y-59082300D03*
D19*
X84800000Y-27737500D03*
X84800000Y-29562500D03*
D38*
X121575400Y-45785600D03*
D39*
X121575400Y-44485600D03*
D40*
X106025000Y-42500000D03*
X104200000Y-42500000D03*
D37*
X47511200Y-46357500D03*
X47511200Y-44532500D03*
D27*
X53775000Y-59525000D03*
X50825000Y-59525000D03*
D16*
X125800000Y-50800000D03*
X127700000Y-50800000D03*
D13*
X77637000Y-95262900D03*
X77135000Y-95262900D03*
X76633000Y-95262900D03*
X76131000Y-95262900D03*
X75629000Y-95262900D03*
X75127000Y-95262900D03*
X74625000Y-95262900D03*
X74123000Y-95262900D03*
X73621000Y-95262900D03*
X73119000Y-95262900D03*
X72617000Y-95262900D03*
X72115000Y-95262900D03*
X71613000Y-95262900D03*
X71111000Y-95262900D03*
X71124000Y-101094900D03*
X71624000Y-101094900D03*
X72124000Y-101094900D03*
X72624000Y-101094900D03*
X73124000Y-101094900D03*
X73621000Y-101094900D03*
X74124000Y-101094900D03*
X74625000Y-101094900D03*
X75127000Y-101094900D03*
X75629000Y-101094900D03*
X76131000Y-101094900D03*
X76624000Y-101094900D03*
X77135000Y-101094900D03*
X77624000Y-101094900D03*
D40*
X49173700Y-48195000D03*
X47348700Y-48195000D03*
D22*
X87800000Y-40447000D03*
X87800000Y-42347000D03*
D41*
X87240000Y-51837500D03*
X88510000Y-51837500D03*
X89780000Y-51837500D03*
X91050000Y-51837500D03*
X92320000Y-51837500D03*
X93590000Y-51837500D03*
X94860000Y-51837500D03*
X94860000Y-56787500D03*
X93590000Y-56787500D03*
X92320000Y-56787500D03*
X91050000Y-56787500D03*
X89780000Y-56787500D03*
X88510000Y-56787500D03*
X87240000Y-56787500D03*
D17*
X92915100Y-60934600D03*
X94740100Y-60934600D03*
D16*
X99183200Y-59390200D03*
X97283200Y-59390200D03*
D13*
X77637000Y-127262900D03*
X77135000Y-127262900D03*
X76633000Y-127262900D03*
X76131000Y-127262900D03*
X75629000Y-127262900D03*
X75127000Y-127262900D03*
X74625000Y-127262900D03*
X74123000Y-127262900D03*
X73621000Y-127262900D03*
X73119000Y-127262900D03*
X72617000Y-127262900D03*
X72115000Y-127262900D03*
X71613000Y-127262900D03*
X71111000Y-127262900D03*
X71124000Y-133094900D03*
X71624000Y-133094900D03*
X72124000Y-133094900D03*
X72624000Y-133094900D03*
X73124000Y-133094900D03*
X73621000Y-133094900D03*
X74124000Y-133094900D03*
X74625000Y-133094900D03*
X75127000Y-133094900D03*
X75629000Y-133094900D03*
X76131000Y-133094900D03*
X76624000Y-133094900D03*
X77135000Y-133094900D03*
X77624000Y-133094900D03*
D42*
X97279000Y-34855000D03*
X93239000Y-34855000D03*
X97279000Y-33585000D03*
X93239000Y-33585000D03*
X97279000Y-32315000D03*
X93239000Y-32315000D03*
X97279000Y-31045000D03*
X93239000Y-31045000D03*
X97279000Y-29775000D03*
X93239000Y-29775000D03*
D28*
X142600000Y-178200000D03*
X143302944Y-176502944D03*
X143302944Y-179897056D03*
X145000000Y-175800000D03*
D29*
X145000000Y-178200000D03*
D28*
X145000000Y-180600000D03*
X146697056Y-176502944D03*
X146697056Y-179897056D03*
X147400000Y-178200000D03*
D16*
X102616200Y-53137700D03*
X100716200Y-53137700D03*
D19*
X90500000Y-34987500D03*
X90500000Y-36812500D03*
D43*
X48025000Y-56865000D03*
D13*
X117515000Y-110904900D03*
X117013000Y-110904900D03*
X116511000Y-110904900D03*
X116009000Y-110904900D03*
X115507000Y-110904900D03*
X115005000Y-110904900D03*
X114503000Y-110904900D03*
X114001000Y-110904900D03*
X113499000Y-110904900D03*
X112997000Y-110904900D03*
X112495000Y-110904900D03*
X111993000Y-110904900D03*
X111491000Y-110904900D03*
X110989000Y-110904900D03*
X111002000Y-116736900D03*
X111502000Y-116736900D03*
X112002000Y-116736900D03*
X112502000Y-116736900D03*
X113002000Y-116736900D03*
X113499000Y-116736900D03*
X114002000Y-116736900D03*
X114503000Y-116736900D03*
X115005000Y-116736900D03*
X115507000Y-116736900D03*
X116009000Y-116736900D03*
X116502000Y-116736900D03*
X117013000Y-116736900D03*
X117502000Y-116736900D03*
D30*
X126600000Y-69500000D03*
X117100000Y-174500000D03*
X70900000Y-174500000D03*
X61400000Y-69500000D03*
D44*
X78700000Y-31147000D03*
X78700000Y-29247000D03*
D28*
X40600000Y-26200000D03*
X41302944Y-24502944D03*
X41302944Y-27897056D03*
X43000000Y-23800000D03*
D29*
X43000000Y-26200000D03*
D28*
X43000000Y-28600000D03*
X44697056Y-24502944D03*
X44697056Y-27897056D03*
X45400000Y-26200000D03*
D45*
X93574000Y-122793900D03*
X94074000Y-122793900D03*
X94574000Y-122793900D03*
X94574000Y-121313900D03*
X94074000Y-121313900D03*
X93574000Y-121313900D03*
D46*
X117454999Y-44397000D03*
X117454999Y-46297000D03*
X119329999Y-45347000D03*
D47*
X42812500Y-41200000D03*
X49187500Y-41200000D03*
D26*
X114350000Y-59000000D03*
X112450000Y-59000000D03*
D14*
X58500000Y-77500000D03*
D16*
X80400000Y-42197000D03*
X78500000Y-42197000D03*
D37*
X111209000Y-46348100D03*
X111209000Y-44523100D03*
D18*
X121911000Y-57391400D03*
X120011000Y-57391400D03*
X120011000Y-55116400D03*
X120961000Y-55116400D03*
X121911000Y-55116400D03*
D17*
X74737500Y-29097000D03*
X76562500Y-29097000D03*
D26*
X133450000Y-60300000D03*
X131550000Y-60300000D03*
D13*
X104276000Y-127033900D03*
X103774000Y-127033900D03*
X103272000Y-127033900D03*
X102770000Y-127033900D03*
X102268000Y-127033900D03*
X101766000Y-127033900D03*
X101264000Y-127033900D03*
X100762000Y-127033900D03*
X100260000Y-127033900D03*
X99758000Y-127033900D03*
X99256000Y-127033900D03*
X98754000Y-127033900D03*
X98252000Y-127033900D03*
X97750000Y-127033900D03*
X97763000Y-132865900D03*
X98263000Y-132865900D03*
X98763000Y-132865900D03*
X99263000Y-132865900D03*
X99763000Y-132865900D03*
X100260000Y-132865900D03*
X100763000Y-132865900D03*
X101264000Y-132865900D03*
X101766000Y-132865900D03*
X102268000Y-132865900D03*
X102770000Y-132865900D03*
X103263000Y-132865900D03*
X103774000Y-132865900D03*
X104263000Y-132865900D03*
D48*
X113125000Y-44493600D03*
X113125000Y-45443600D03*
X113125000Y-46393600D03*
X115400000Y-46393600D03*
X115400000Y-45443600D03*
X115400000Y-44493600D03*
D16*
X66830200Y-53238700D03*
X64930200Y-53238700D03*
X45413200Y-54117000D03*
X43513200Y-54117000D03*
D37*
X63350000Y-34579500D03*
X63350000Y-32754500D03*
D18*
X63250000Y-55162500D03*
X62300000Y-55162500D03*
X61350000Y-55162500D03*
X61350000Y-57437500D03*
X63250000Y-57437500D03*
D16*
X79047800Y-53050300D03*
X77147800Y-53050300D03*
D49*
X45600700Y-49225000D03*
X45600700Y-48275000D03*
X45600700Y-47325000D03*
X43325700Y-47325000D03*
X43325700Y-48275000D03*
X43325700Y-49225000D03*
D26*
X94800000Y-49600000D03*
X92900000Y-49600000D03*
D18*
X82582000Y-57226500D03*
X80682000Y-57226500D03*
X80682000Y-54951500D03*
X81632000Y-54951500D03*
X82582000Y-54951500D03*
D16*
X106898400Y-49600000D03*
X108798400Y-49600000D03*
D13*
X117515000Y-142904900D03*
X117013000Y-142904900D03*
X116511000Y-142904900D03*
X116009000Y-142904900D03*
X115507000Y-142904900D03*
X115005000Y-142904900D03*
X114503000Y-142904900D03*
X114001000Y-142904900D03*
X113499000Y-142904900D03*
X112997000Y-142904900D03*
X112495000Y-142904900D03*
X111993000Y-142904900D03*
X111491000Y-142904900D03*
X110989000Y-142904900D03*
X111002000Y-148736900D03*
X111502000Y-148736900D03*
X112002000Y-148736900D03*
X112502000Y-148736900D03*
X113002000Y-148736900D03*
X113499000Y-148736900D03*
X114002000Y-148736900D03*
X114503000Y-148736900D03*
X115005000Y-148736900D03*
X115507000Y-148736900D03*
X116009000Y-148736900D03*
X116502000Y-148736900D03*
X117013000Y-148736900D03*
X117502000Y-148736900D03*
X104276000Y-143033900D03*
X103774000Y-143033900D03*
X103272000Y-143033900D03*
X102770000Y-143033900D03*
X102268000Y-143033900D03*
X101766000Y-143033900D03*
X101264000Y-143033900D03*
X100762000Y-143033900D03*
X100260000Y-143033900D03*
X99758000Y-143033900D03*
X99256000Y-143033900D03*
X98754000Y-143033900D03*
X98252000Y-143033900D03*
X97750000Y-143033900D03*
X97763000Y-148865900D03*
X98263000Y-148865900D03*
X98763000Y-148865900D03*
X99263000Y-148865900D03*
X99763000Y-148865900D03*
X100260000Y-148865900D03*
X100763000Y-148865900D03*
X101264000Y-148865900D03*
X101766000Y-148865900D03*
X102268000Y-148865900D03*
X102770000Y-148865900D03*
X103263000Y-148865900D03*
X103774000Y-148865900D03*
X104263000Y-148865900D03*
D44*
X124000000Y-56600000D03*
X124000000Y-58500000D03*
D16*
X121929000Y-59353900D03*
X120029000Y-59353900D03*
X102616200Y-59337700D03*
X100716200Y-59337700D03*
D37*
X117376499Y-42772500D03*
X117376499Y-40947500D03*
D28*
X142600000Y-26200000D03*
X143302944Y-24502944D03*
X143302944Y-27897056D03*
X145000000Y-23800000D03*
D29*
X145000000Y-26200000D03*
D28*
X145000000Y-28600000D03*
X146697056Y-24502944D03*
X146697056Y-27897056D03*
X147400000Y-26200000D03*
D44*
X61850000Y-50200000D03*
X61850000Y-48300000D03*
D14*
X129500000Y-166000000D03*
D50*
X131964000Y-44347000D03*
D51*
X130054000Y-41077000D03*
X131324000Y-41077000D03*
X132604000Y-41077000D03*
X133874000Y-41077000D03*
D44*
X105000000Y-55250000D03*
X105000000Y-57150000D03*
D16*
X99150000Y-53200000D03*
X97250000Y-53200000D03*
D22*
X85369400Y-53350000D03*
X85369400Y-51450000D03*
D44*
X76500000Y-39384500D03*
X76500000Y-37484500D03*
D27*
X76400000Y-33351000D03*
X73450000Y-33351000D03*
D22*
X105000000Y-53385800D03*
X105000000Y-51485800D03*
D16*
X76431000Y-35597000D03*
X74531000Y-35597000D03*
D33*
X99712500Y-42500000D03*
X102512500Y-42500000D03*
D52*
X51250000Y-54425000D03*
X53550000Y-54425000D03*
D53*
X53550000Y-48125000D03*
D52*
X55850000Y-54425000D03*
D54*
X60030000Y-25342000D03*
D55*
X60030000Y-29522000D03*
D54*
X68670000Y-25342000D03*
D55*
X68670000Y-29522000D03*
D56*
X67550000Y-30097000D03*
X66750000Y-30097000D03*
D57*
X66100000Y-30097000D03*
X65100000Y-30097000D03*
X63600000Y-30097000D03*
X62600000Y-30097000D03*
D56*
X61950000Y-30097000D03*
X61150000Y-30097000D03*
X61150000Y-30097000D03*
X61950000Y-30097000D03*
D57*
X63100000Y-30097000D03*
X64100000Y-30097000D03*
X64600000Y-30097000D03*
X65600000Y-30097000D03*
D56*
X66750000Y-30097000D03*
X67550000Y-30097000D03*
D58*
X61460000Y-29022000D03*
X67240000Y-29022000D03*
D18*
X79047800Y-55012800D03*
X78097800Y-55012800D03*
X77147800Y-55012800D03*
X77147800Y-57287800D03*
X79047800Y-57287800D03*
D13*
X77637000Y-111262900D03*
X77135000Y-111262900D03*
X76633000Y-111262900D03*
X76131000Y-111262900D03*
X75629000Y-111262900D03*
X75127000Y-111262900D03*
X74625000Y-111262900D03*
X74123000Y-111262900D03*
X73621000Y-111262900D03*
X73119000Y-111262900D03*
X72617000Y-111262900D03*
X72115000Y-111262900D03*
X71613000Y-111262900D03*
X71111000Y-111262900D03*
X71124000Y-117094900D03*
X71624000Y-117094900D03*
X72124000Y-117094900D03*
X72624000Y-117094900D03*
X73124000Y-117094900D03*
X73621000Y-117094900D03*
X74124000Y-117094900D03*
X74625000Y-117094900D03*
X75127000Y-117094900D03*
X75629000Y-117094900D03*
X76131000Y-117094900D03*
X76624000Y-117094900D03*
X77135000Y-117094900D03*
X77624000Y-117094900D03*
D40*
X68952500Y-32922000D03*
X67127500Y-32922000D03*
D59*
X75150000Y-59262500D03*
X74500000Y-59262500D03*
X73850000Y-59262500D03*
X73200000Y-59262500D03*
X72550000Y-59262500D03*
X71900000Y-59262500D03*
X71250000Y-59262500D03*
X70600000Y-59262500D03*
X70600000Y-53537500D03*
X71250000Y-53537500D03*
X71900000Y-53537500D03*
X72550000Y-53537500D03*
X73200000Y-53537500D03*
X73850000Y-53537500D03*
X74500000Y-53537500D03*
X75150000Y-53537500D03*
D16*
X63350000Y-53200000D03*
X61450000Y-53200000D03*
D13*
X90937000Y-127187900D03*
X90435000Y-127187900D03*
X89933000Y-127187900D03*
X89431000Y-127187900D03*
X88929000Y-127187900D03*
X88427000Y-127187900D03*
X87925000Y-127187900D03*
X87423000Y-127187900D03*
X86921000Y-127187900D03*
X86419000Y-127187900D03*
X85917000Y-127187900D03*
X85415000Y-127187900D03*
X84913000Y-127187900D03*
X84411000Y-127187900D03*
X84424000Y-133019900D03*
X84924000Y-133019900D03*
X85424000Y-133019900D03*
X85924000Y-133019900D03*
X86424000Y-133019900D03*
X86921000Y-133019900D03*
X87424000Y-133019900D03*
X87925000Y-133019900D03*
X88427000Y-133019900D03*
X88929000Y-133019900D03*
X89431000Y-133019900D03*
X89924000Y-133019900D03*
X90435000Y-133019900D03*
X90924000Y-133019900D03*
D44*
X85450000Y-55250000D03*
X85450000Y-57150000D03*
X119306899Y-42810000D03*
X119306899Y-40910000D03*
D50*
X138155000Y-44363000D03*
D51*
X136245000Y-41093000D03*
X137515000Y-41093000D03*
X138795000Y-41093000D03*
X140065000Y-41093000D03*
D46*
X113390999Y-40982000D03*
X113390999Y-42882000D03*
X115265999Y-41932000D03*
D37*
X65277000Y-34579500D03*
X65277000Y-32754500D03*
D19*
X82800000Y-27737500D03*
X82800000Y-29562500D03*
D40*
X106025000Y-45000000D03*
X104200000Y-45000000D03*
D16*
X118400000Y-59314000D03*
X116500000Y-59314000D03*
D60*
X52000000Y-36797000D03*
D61*
X52000000Y-30797000D03*
X47300000Y-33797000D03*
D13*
X104276000Y-111033900D03*
X103774000Y-111033900D03*
X103272000Y-111033900D03*
X102770000Y-111033900D03*
X102268000Y-111033900D03*
X101766000Y-111033900D03*
X101264000Y-111033900D03*
X100762000Y-111033900D03*
X100260000Y-111033900D03*
X99758000Y-111033900D03*
X99256000Y-111033900D03*
X98754000Y-111033900D03*
X98252000Y-111033900D03*
X97750000Y-111033900D03*
X97763000Y-116865900D03*
X98263000Y-116865900D03*
X98763000Y-116865900D03*
X99263000Y-116865900D03*
X99763000Y-116865900D03*
X100260000Y-116865900D03*
X100763000Y-116865900D03*
X101264000Y-116865900D03*
X101766000Y-116865900D03*
X102268000Y-116865900D03*
X102770000Y-116865900D03*
X103263000Y-116865900D03*
X103774000Y-116865900D03*
X104263000Y-116865900D03*
D44*
X74500000Y-39384500D03*
X74500000Y-37484500D03*
D13*
X104276000Y-95033900D03*
X103774000Y-95033900D03*
X103272000Y-95033900D03*
X102770000Y-95033900D03*
X102268000Y-95033900D03*
X101766000Y-95033900D03*
X101264000Y-95033900D03*
X100762000Y-95033900D03*
X100260000Y-95033900D03*
X99758000Y-95033900D03*
X99256000Y-95033900D03*
X98754000Y-95033900D03*
X98252000Y-95033900D03*
X97750000Y-95033900D03*
X97763000Y-100865900D03*
X98263000Y-100865900D03*
X98763000Y-100865900D03*
X99263000Y-100865900D03*
X99763000Y-100865900D03*
X100260000Y-100865900D03*
X100763000Y-100865900D03*
X101264000Y-100865900D03*
X101766000Y-100865900D03*
X102268000Y-100865900D03*
X102770000Y-100865900D03*
X103263000Y-100865900D03*
X103774000Y-100865900D03*
X104263000Y-100865900D03*
D16*
X66830200Y-59438700D03*
X64930200Y-59438700D03*
X82600000Y-59189000D03*
X80700000Y-59189000D03*
X118300000Y-53200000D03*
X116400000Y-53200000D03*
D26*
X114350000Y-49600000D03*
X112450000Y-49600000D03*
D62*
X47511200Y-54195000D03*
X47511200Y-51245000D03*
D19*
X90512000Y-30392000D03*
X90512000Y-32217000D03*
D44*
X67350000Y-50200000D03*
X67350000Y-48300000D03*
D13*
X117515000Y-126904900D03*
X117013000Y-126904900D03*
X116511000Y-126904900D03*
X116009000Y-126904900D03*
X115507000Y-126904900D03*
X115005000Y-126904900D03*
X114503000Y-126904900D03*
X114001000Y-126904900D03*
X113499000Y-126904900D03*
X112997000Y-126904900D03*
X112495000Y-126904900D03*
X111993000Y-126904900D03*
X111491000Y-126904900D03*
X110989000Y-126904900D03*
X111002000Y-132736900D03*
X111502000Y-132736900D03*
X112002000Y-132736900D03*
X112502000Y-132736900D03*
X113002000Y-132736900D03*
X113499000Y-132736900D03*
X114002000Y-132736900D03*
X114503000Y-132736900D03*
X115005000Y-132736900D03*
X115507000Y-132736900D03*
X116009000Y-132736900D03*
X116502000Y-132736900D03*
X117013000Y-132736900D03*
X117502000Y-132736900D03*
D18*
X102598200Y-57375200D03*
X100698200Y-57375200D03*
X100698200Y-55100200D03*
X101648200Y-55100200D03*
X102598200Y-55100200D03*
D16*
X125800000Y-60300000D03*
X127700000Y-60300000D03*
D17*
X82025000Y-42247000D03*
X83850000Y-42247000D03*
D16*
X82600000Y-52989000D03*
X80700000Y-52989000D03*
D63*
X143500000Y-41700000D03*
X143500000Y-46000000D03*
D64*
X94500000Y-45650000D03*
X94500000Y-41550000D03*
X96100000Y-45650000D03*
X96100000Y-41550000D03*
D13*
X77637000Y-143262900D03*
X77135000Y-143262900D03*
X76633000Y-143262900D03*
X76131000Y-143262900D03*
X75629000Y-143262900D03*
X75127000Y-143262900D03*
X74625000Y-143262900D03*
X74123000Y-143262900D03*
X73621000Y-143262900D03*
X73119000Y-143262900D03*
X72617000Y-143262900D03*
X72115000Y-143262900D03*
X71613000Y-143262900D03*
X71111000Y-143262900D03*
X71124000Y-149094900D03*
X71624000Y-149094900D03*
X72124000Y-149094900D03*
X72624000Y-149094900D03*
X73124000Y-149094900D03*
X73621000Y-149094900D03*
X74124000Y-149094900D03*
X74625000Y-149094900D03*
X75127000Y-149094900D03*
X75629000Y-149094900D03*
X76131000Y-149094900D03*
X76624000Y-149094900D03*
X77135000Y-149094900D03*
X77624000Y-149094900D03*
D17*
X82012500Y-44247000D03*
X83837500Y-44247000D03*
D14*
X129500000Y-77500000D03*
D19*
X74500000Y-40984500D03*
X74500000Y-42809500D03*
D41*
X106790000Y-51837500D03*
X108060000Y-51837500D03*
X109330000Y-51837500D03*
X110600000Y-51837500D03*
X111870000Y-51837500D03*
X113140000Y-51837500D03*
X114410000Y-51837500D03*
X114410000Y-56787500D03*
X113140000Y-56787500D03*
X111870000Y-56787500D03*
X110600000Y-56787500D03*
X109330000Y-56787500D03*
X108060000Y-56787500D03*
X106790000Y-56787500D03*
D26*
X57912500Y-53250000D03*
X59812500Y-53250000D03*
D17*
X112447700Y-60934600D03*
X114272700Y-60934600D03*
D37*
X121550400Y-42548100D03*
X121550400Y-40723100D03*
D38*
X109121499Y-42582000D03*
D39*
X109121499Y-41282000D03*
D13*
X117515000Y-94904900D03*
X117013000Y-94904900D03*
X116511000Y-94904900D03*
X116009000Y-94904900D03*
X115507000Y-94904900D03*
X115005000Y-94904900D03*
X114503000Y-94904900D03*
X114001000Y-94904900D03*
X113499000Y-94904900D03*
X112997000Y-94904900D03*
X112495000Y-94904900D03*
X111993000Y-94904900D03*
X111491000Y-94904900D03*
X110989000Y-94904900D03*
X111002000Y-100736900D03*
X111502000Y-100736900D03*
X112002000Y-100736900D03*
X112502000Y-100736900D03*
X113002000Y-100736900D03*
X113499000Y-100736900D03*
X114002000Y-100736900D03*
X114503000Y-100736900D03*
X115005000Y-100736900D03*
X115507000Y-100736900D03*
X116009000Y-100736900D03*
X116502000Y-100736900D03*
X117013000Y-100736900D03*
X117502000Y-100736900D03*
D65*
X65550000Y-49900000D03*
X65550000Y-49250000D03*
X65550000Y-48600000D03*
X63650000Y-48600000D03*
X63650000Y-49250000D03*
X63650000Y-49900000D03*
D16*
X106850000Y-59000000D03*
X108750000Y-59000000D03*
D26*
X133450000Y-50800000D03*
X131550000Y-50800000D03*
D13*
X90937000Y-111187900D03*
X90435000Y-111187900D03*
X89933000Y-111187900D03*
X89431000Y-111187900D03*
X88929000Y-111187900D03*
X88427000Y-111187900D03*
X87925000Y-111187900D03*
X87423000Y-111187900D03*
X86921000Y-111187900D03*
X86419000Y-111187900D03*
X85917000Y-111187900D03*
X85415000Y-111187900D03*
X84913000Y-111187900D03*
X84411000Y-111187900D03*
X84424000Y-117019900D03*
X84924000Y-117019900D03*
X85424000Y-117019900D03*
X85924000Y-117019900D03*
X86424000Y-117019900D03*
X86921000Y-117019900D03*
X87424000Y-117019900D03*
X87925000Y-117019900D03*
X88427000Y-117019900D03*
X88929000Y-117019900D03*
X89431000Y-117019900D03*
X89924000Y-117019900D03*
X90435000Y-117019900D03*
X90924000Y-117019900D03*
D41*
X125790000Y-53037500D03*
X127060000Y-53037500D03*
X128330000Y-53037500D03*
X129600000Y-53037500D03*
X130870000Y-53037500D03*
X132140000Y-53037500D03*
X133410000Y-53037500D03*
X133410000Y-57987500D03*
X132140000Y-57987500D03*
X130870000Y-57987500D03*
X129600000Y-57987500D03*
X128330000Y-57987500D03*
X127060000Y-57987500D03*
X125790000Y-57987500D03*
D66*
X79025000Y-33022000D03*
X79025000Y-33822000D03*
X79025000Y-34622000D03*
X79025000Y-35422000D03*
X79025000Y-36222000D03*
X79025000Y-37022000D03*
X79025000Y-37822000D03*
X79025000Y-38622000D03*
D67*
X80400000Y-39997000D03*
X81200000Y-39997000D03*
X82000000Y-39997000D03*
X82800000Y-39997000D03*
X83600000Y-39997000D03*
X84400000Y-39997000D03*
X85200000Y-39997000D03*
X86000000Y-39997000D03*
D66*
X87375000Y-38622000D03*
X87375000Y-37822000D03*
X87375000Y-37022000D03*
X87375000Y-36222000D03*
X87375000Y-35422000D03*
X87375000Y-34622000D03*
X87375000Y-33822000D03*
X87375000Y-33022000D03*
D67*
X86000000Y-31647000D03*
X85200000Y-31647000D03*
X84400000Y-31647000D03*
X83600000Y-31647000D03*
X82800000Y-31647000D03*
X82000000Y-31647000D03*
X81200000Y-31647000D03*
X80400000Y-31647000D03*
D50*
X125752000Y-44347000D03*
D51*
X123842000Y-41077000D03*
X125112000Y-41077000D03*
X126392000Y-41077000D03*
X127662000Y-41077000D03*
G36*
X77668039Y-112094685D02*
G01*
X77713794Y-112147489D01*
X77725000Y-112199000D01*
X77725000Y-113801000D01*
X77705315Y-113868039D01*
X77652511Y-113913794D01*
X77601000Y-113925000D01*
X76599000Y-113925000D01*
X76531961Y-113905315D01*
X76486206Y-113852511D01*
X76475000Y-113801000D01*
X76475000Y-112199000D01*
X76494685Y-112131961D01*
X76547489Y-112086206D01*
X76599000Y-112075000D01*
X77601000Y-112075000D01*
X77668039Y-112094685D01*
G37*
G36*
X90993039Y-143919685D02*
G01*
X91038794Y-143972489D01*
X91050000Y-144024000D01*
X91050000Y-145726000D01*
X91030315Y-145793039D01*
X90977511Y-145838794D01*
X90926000Y-145850000D01*
X89924000Y-145850000D01*
X89856961Y-145830315D01*
X89811206Y-145777511D01*
X89800000Y-145726000D01*
X89800000Y-144024000D01*
X89819685Y-143956961D01*
X89872489Y-143911206D01*
X89924000Y-143900000D01*
X90926000Y-143900000D01*
X90993039Y-143919685D01*
G37*
G36*
X77693039Y-146419685D02*
G01*
X77738794Y-146472489D01*
X77750000Y-146524000D01*
X77750000Y-148176000D01*
X77730315Y-148243039D01*
X77677511Y-148288794D01*
X77626000Y-148300000D01*
X76624000Y-148300000D01*
X76556961Y-148280315D01*
X76511206Y-148227511D01*
X76500000Y-148176000D01*
X76500000Y-146524000D01*
X76519685Y-146456961D01*
X76572489Y-146411206D01*
X76624000Y-146400000D01*
X77626000Y-146400000D01*
X77693039Y-146419685D01*
G37*
G36*
X117569681Y-98094685D02*
G01*
X117615436Y-98147489D01*
X117626631Y-98197347D01*
X117648325Y-99824347D01*
X117629536Y-99891643D01*
X117577347Y-99938098D01*
X117524336Y-99950000D01*
X116522358Y-99950000D01*
X116455319Y-99930315D01*
X116409564Y-99877511D01*
X116398369Y-99827653D01*
X116376675Y-98200653D01*
X116395464Y-98133357D01*
X116447653Y-98086902D01*
X116500664Y-98075000D01*
X117502642Y-98075000D01*
X117569681Y-98094685D01*
G37*
G36*
X104343039Y-146194685D02*
G01*
X104388794Y-146247489D01*
X104400000Y-146299000D01*
X104400000Y-147926000D01*
X104380315Y-147993039D01*
X104327511Y-148038794D01*
X104276000Y-148050000D01*
X103274000Y-148050000D01*
X103206961Y-148030315D01*
X103161206Y-147977511D01*
X103150000Y-147926000D01*
X103150000Y-146299000D01*
X103169685Y-146231961D01*
X103222489Y-146186206D01*
X103274000Y-146175000D01*
X104276000Y-146175000D01*
X104343039Y-146194685D01*
G37*
G36*
X77693039Y-128069685D02*
G01*
X77738794Y-128122489D01*
X77750000Y-128174000D01*
X77750000Y-129801000D01*
X77730315Y-129868039D01*
X77677511Y-129913794D01*
X77626000Y-129925000D01*
X76624000Y-129925000D01*
X76556961Y-129905315D01*
X76511206Y-129852511D01*
X76500000Y-129801000D01*
X76500000Y-128174000D01*
X76519685Y-128106961D01*
X76572489Y-128061206D01*
X76624000Y-128050000D01*
X77626000Y-128050000D01*
X77693039Y-128069685D01*
G37*
G36*
X90993039Y-114369685D02*
G01*
X91038794Y-114422489D01*
X91050000Y-114474000D01*
X91050000Y-116176000D01*
X91030315Y-116243039D01*
X90977511Y-116288794D01*
X90926000Y-116300000D01*
X89924000Y-116300000D01*
X89856961Y-116280315D01*
X89811206Y-116227511D01*
X89800000Y-116176000D01*
X89800000Y-114474000D01*
X89819685Y-114406961D01*
X89872489Y-114361206D01*
X89924000Y-114350000D01*
X90926000Y-114350000D01*
X90993039Y-114369685D01*
G37*
G36*
X117543039Y-146069685D02*
G01*
X117588794Y-146122489D01*
X117600000Y-146174000D01*
X117600000Y-147776000D01*
X117580315Y-147843039D01*
X117527511Y-147888794D01*
X117476000Y-147900000D01*
X116474000Y-147900000D01*
X116406961Y-147880315D01*
X116361206Y-147827511D01*
X116350000Y-147776000D01*
X116350000Y-146174000D01*
X116369685Y-146106961D01*
X116422489Y-146061206D01*
X116474000Y-146050000D01*
X117476000Y-146050000D01*
X117543039Y-146069685D01*
G37*
G36*
X117543039Y-143719685D02*
G01*
X117588794Y-143772489D01*
X117600000Y-143824000D01*
X117600000Y-145426000D01*
X117580315Y-145493039D01*
X117527511Y-145538794D01*
X117476000Y-145550000D01*
X116474000Y-145550000D01*
X116406961Y-145530315D01*
X116361206Y-145477511D01*
X116350000Y-145426000D01*
X116350000Y-143824000D01*
X116369685Y-143756961D01*
X116422489Y-143711206D01*
X116474000Y-143700000D01*
X117476000Y-143700000D01*
X117543039Y-143719685D01*
G37*
G36*
X77693039Y-98419685D02*
G01*
X77738794Y-98472489D01*
X77750000Y-98524000D01*
X77750000Y-100176000D01*
X77730315Y-100243039D01*
X77677511Y-100288794D01*
X77626000Y-100300000D01*
X76624000Y-100300000D01*
X76556961Y-100280315D01*
X76511206Y-100227511D01*
X76500000Y-100176000D01*
X76500000Y-98524000D01*
X76519685Y-98456961D01*
X76572489Y-98411206D01*
X76624000Y-98400000D01*
X77626000Y-98400000D01*
X77693039Y-98419685D01*
G37*
G36*
X117568039Y-111669685D02*
G01*
X117613794Y-111722489D01*
X117625000Y-111774000D01*
X117625000Y-113426000D01*
X117605315Y-113493039D01*
X117552511Y-113538794D01*
X117501000Y-113550000D01*
X116499000Y-113550000D01*
X116431961Y-113530315D01*
X116386206Y-113477511D01*
X116375000Y-113426000D01*
X116375000Y-111774000D01*
X116394685Y-111706961D01*
X116447489Y-111661206D01*
X116499000Y-111650000D01*
X117501000Y-111650000D01*
X117568039Y-111669685D01*
G37*
G36*
X90993039Y-128069685D02*
G01*
X91038794Y-128122489D01*
X91050000Y-128174000D01*
X91050000Y-132176000D01*
X91030315Y-132243039D01*
X90977511Y-132288794D01*
X90926000Y-132300000D01*
X89924000Y-132300000D01*
X89856961Y-132280315D01*
X89811206Y-132227511D01*
X89800000Y-132176000D01*
X89800000Y-128174000D01*
X89819685Y-128106961D01*
X89872489Y-128061206D01*
X89924000Y-128050000D01*
X90926000Y-128050000D01*
X90993039Y-128069685D01*
G37*
G36*
X77693039Y-130444685D02*
G01*
X77738794Y-130497489D01*
X77750000Y-130549000D01*
X77750000Y-132176000D01*
X77730315Y-132243039D01*
X77677511Y-132288794D01*
X77626000Y-132300000D01*
X76624000Y-132300000D01*
X76556961Y-132280315D01*
X76511206Y-132227511D01*
X76500000Y-132176000D01*
X76500000Y-130549000D01*
X76519685Y-130481961D01*
X76572489Y-130436206D01*
X76624000Y-130425000D01*
X77626000Y-130425000D01*
X77693039Y-130444685D01*
G37*
G36*
X117568039Y-127694685D02*
G01*
X117613794Y-127747489D01*
X117625000Y-127799000D01*
X117625000Y-129451000D01*
X117605315Y-129518039D01*
X117552511Y-129563794D01*
X117501000Y-129575000D01*
X116499000Y-129575000D01*
X116431961Y-129555315D01*
X116386206Y-129502511D01*
X116375000Y-129451000D01*
X116375000Y-127799000D01*
X116394685Y-127731961D01*
X116447489Y-127686206D01*
X116499000Y-127675000D01*
X117501000Y-127675000D01*
X117568039Y-127694685D01*
G37*
G36*
X77668039Y-144044685D02*
G01*
X77713794Y-144097489D01*
X77725000Y-144149000D01*
X77725000Y-145801000D01*
X77705315Y-145868039D01*
X77652511Y-145913794D01*
X77601000Y-145925000D01*
X76599000Y-145925000D01*
X76531961Y-145905315D01*
X76486206Y-145852511D01*
X76475000Y-145801000D01*
X76475000Y-144149000D01*
X76494685Y-144081961D01*
X76547489Y-144036206D01*
X76599000Y-144025000D01*
X77601000Y-144025000D01*
X77668039Y-144044685D01*
G37*
G36*
X117543039Y-130069685D02*
G01*
X117588794Y-130122489D01*
X117600000Y-130174000D01*
X117600000Y-131826000D01*
X117580315Y-131893039D01*
X117527511Y-131938794D01*
X117476000Y-131950000D01*
X116474000Y-131950000D01*
X116406961Y-131930315D01*
X116361206Y-131877511D01*
X116350000Y-131826000D01*
X116350000Y-130174000D01*
X116369685Y-130106961D01*
X116422489Y-130061206D01*
X116474000Y-130050000D01*
X117476000Y-130050000D01*
X117543039Y-130069685D01*
G37*
G36*
X56712039Y-49390685D02*
G01*
X56757794Y-49443489D01*
X56769000Y-49495000D01*
X56769000Y-52997000D01*
X56749315Y-53064039D01*
X56696511Y-53109794D01*
X56645000Y-53121000D01*
X50393000Y-53121000D01*
X50325961Y-53101315D01*
X50280206Y-53048511D01*
X50269000Y-52997000D01*
X50269000Y-49495000D01*
X50288685Y-49427961D01*
X50341489Y-49382206D01*
X50393000Y-49371000D01*
X56645000Y-49371000D01*
X56712039Y-49390685D01*
G37*
G36*
X104318039Y-95869685D02*
G01*
X104363794Y-95922489D01*
X104375000Y-95974000D01*
X104375000Y-97576000D01*
X104355315Y-97643039D01*
X104302511Y-97688794D01*
X104251000Y-97700000D01*
X103249000Y-97700000D01*
X103181961Y-97680315D01*
X103136206Y-97627511D01*
X103125000Y-97576000D01*
X103125000Y-95974000D01*
X103144685Y-95906961D01*
X103197489Y-95861206D01*
X103249000Y-95850000D01*
X104251000Y-95850000D01*
X104318039Y-95869685D01*
G37*
G36*
X90993039Y-95919685D02*
G01*
X91038794Y-95972489D01*
X91050000Y-96024000D01*
X91050000Y-97726000D01*
X91030315Y-97793039D01*
X90977511Y-97838794D01*
X90926000Y-97850000D01*
X89924000Y-97850000D01*
X89856961Y-97830315D01*
X89811206Y-97777511D01*
X89800000Y-97726000D01*
X89800000Y-96024000D01*
X89819685Y-95956961D01*
X89872489Y-95911206D01*
X89924000Y-95900000D01*
X90926000Y-95900000D01*
X90993039Y-95919685D01*
G37*
G36*
X104343039Y-114194685D02*
G01*
X104388794Y-114247489D01*
X104400000Y-114299000D01*
X104400000Y-115926000D01*
X104380315Y-115993039D01*
X104327511Y-116038794D01*
X104276000Y-116050000D01*
X103274000Y-116050000D01*
X103206961Y-116030315D01*
X103161206Y-115977511D01*
X103150000Y-115926000D01*
X103150000Y-114299000D01*
X103169685Y-114231961D01*
X103222489Y-114186206D01*
X103274000Y-114175000D01*
X104276000Y-114175000D01*
X104343039Y-114194685D01*
G37*
G36*
X90993039Y-146369685D02*
G01*
X91038794Y-146422489D01*
X91050000Y-146474000D01*
X91050000Y-148176000D01*
X91030315Y-148243039D01*
X90977511Y-148288794D01*
X90926000Y-148300000D01*
X89924000Y-148300000D01*
X89856961Y-148280315D01*
X89811206Y-148227511D01*
X89800000Y-148176000D01*
X89800000Y-146474000D01*
X89819685Y-146406961D01*
X89872489Y-146361206D01*
X89924000Y-146350000D01*
X90926000Y-146350000D01*
X90993039Y-146369685D01*
G37*
G36*
X90993039Y-98369685D02*
G01*
X91038794Y-98422489D01*
X91050000Y-98474000D01*
X91050000Y-100176000D01*
X91030315Y-100243039D01*
X90977511Y-100288794D01*
X90926000Y-100300000D01*
X89924000Y-100300000D01*
X89856961Y-100280315D01*
X89811206Y-100227511D01*
X89800000Y-100176000D01*
X89800000Y-98474000D01*
X89819685Y-98406961D01*
X89872489Y-98361206D01*
X89924000Y-98350000D01*
X90926000Y-98350000D01*
X90993039Y-98369685D01*
G37*
G36*
X77693039Y-96044685D02*
G01*
X77738794Y-96097489D01*
X77750000Y-96149000D01*
X77750000Y-97801000D01*
X77730315Y-97868039D01*
X77677511Y-97913794D01*
X77626000Y-97925000D01*
X76624000Y-97925000D01*
X76556961Y-97905315D01*
X76511206Y-97852511D01*
X76500000Y-97801000D01*
X76500000Y-96149000D01*
X76519685Y-96081961D01*
X76572489Y-96036206D01*
X76624000Y-96025000D01*
X77626000Y-96025000D01*
X77693039Y-96044685D01*
G37*
G36*
X77693039Y-114469685D02*
G01*
X77738794Y-114522489D01*
X77750000Y-114574000D01*
X77750000Y-116176000D01*
X77730315Y-116243039D01*
X77677511Y-116288794D01*
X77626000Y-116300000D01*
X76624000Y-116300000D01*
X76556961Y-116280315D01*
X76511206Y-116227511D01*
X76500000Y-116176000D01*
X76500000Y-114574000D01*
X76519685Y-114506961D01*
X76572489Y-114461206D01*
X76624000Y-114450000D01*
X77626000Y-114450000D01*
X77693039Y-114469685D01*
G37*
G36*
X104318039Y-111844685D02*
G01*
X104363794Y-111897489D01*
X104375000Y-111949000D01*
X104375000Y-113576000D01*
X104355315Y-113643039D01*
X104302511Y-113688794D01*
X104251000Y-113700000D01*
X103249000Y-113700000D01*
X103181961Y-113680315D01*
X103136206Y-113627511D01*
X103125000Y-113576000D01*
X103125000Y-111949000D01*
X103144685Y-111881961D01*
X103197489Y-111836206D01*
X103249000Y-111825000D01*
X104251000Y-111825000D01*
X104318039Y-111844685D01*
G37*
G36*
X104343039Y-130219685D02*
G01*
X104388794Y-130272489D01*
X104400000Y-130324000D01*
X104400000Y-131926000D01*
X104380315Y-131993039D01*
X104327511Y-132038794D01*
X104276000Y-132050000D01*
X103274000Y-132050000D01*
X103206961Y-132030315D01*
X103161206Y-131977511D01*
X103150000Y-131926000D01*
X103150000Y-130324000D01*
X103169685Y-130256961D01*
X103222489Y-130211206D01*
X103274000Y-130200000D01*
X104276000Y-130200000D01*
X104343039Y-130219685D01*
G37*
G36*
X117569681Y-95719685D02*
G01*
X117615436Y-95772489D01*
X117626631Y-95822347D01*
X117648325Y-97449347D01*
X117629536Y-97516643D01*
X117577347Y-97563098D01*
X117524336Y-97575000D01*
X116522358Y-97575000D01*
X116455319Y-97555315D01*
X116409564Y-97502511D01*
X116398369Y-97452653D01*
X116376675Y-95825653D01*
X116395464Y-95758357D01*
X116447653Y-95711902D01*
X116500664Y-95700000D01*
X117502642Y-95700000D01*
X117569681Y-95719685D01*
G37*
G36*
X117643039Y-114069685D02*
G01*
X117688794Y-114122489D01*
X117700000Y-114174000D01*
X117700000Y-115826000D01*
X117680315Y-115893039D01*
X117627511Y-115938794D01*
X117576000Y-115950000D01*
X116574000Y-115950000D01*
X116506961Y-115930315D01*
X116461206Y-115877511D01*
X116450000Y-115826000D01*
X116450000Y-114174000D01*
X116469685Y-114106961D01*
X116522489Y-114061206D01*
X116574000Y-114050000D01*
X117576000Y-114050000D01*
X117643039Y-114069685D01*
G37*
G36*
X104343039Y-98219685D02*
G01*
X104388794Y-98272489D01*
X104400000Y-98324000D01*
X104400000Y-99926000D01*
X104380315Y-99993039D01*
X104327511Y-100038794D01*
X104276000Y-100050000D01*
X103274000Y-100050000D01*
X103206961Y-100030315D01*
X103161206Y-99977511D01*
X103150000Y-99926000D01*
X103150000Y-98324000D01*
X103169685Y-98256961D01*
X103222489Y-98211206D01*
X103274000Y-98200000D01*
X104276000Y-98200000D01*
X104343039Y-98219685D01*
G37*
G36*
X104343039Y-143844685D02*
G01*
X104388794Y-143897489D01*
X104400000Y-143949000D01*
X104400000Y-145576000D01*
X104380315Y-145643039D01*
X104327511Y-145688794D01*
X104276000Y-145700000D01*
X103274000Y-145700000D01*
X103206961Y-145680315D01*
X103161206Y-145627511D01*
X103150000Y-145576000D01*
X103150000Y-143949000D01*
X103169685Y-143881961D01*
X103222489Y-143836206D01*
X103274000Y-143825000D01*
X104276000Y-143825000D01*
X104343039Y-143844685D01*
G37*
G36*
X104343039Y-127869685D02*
G01*
X104388794Y-127922489D01*
X104400000Y-127974000D01*
X104400000Y-129576000D01*
X104380315Y-129643039D01*
X104327511Y-129688794D01*
X104276000Y-129700000D01*
X103274000Y-129700000D01*
X103206961Y-129680315D01*
X103161206Y-129627511D01*
X103150000Y-129576000D01*
X103150000Y-127974000D01*
X103169685Y-127906961D01*
X103222489Y-127861206D01*
X103274000Y-127850000D01*
X104276000Y-127850000D01*
X104343039Y-127869685D01*
G37*
G36*
X90968039Y-111919685D02*
G01*
X91013794Y-111972489D01*
X91025000Y-112024000D01*
X91025000Y-113726000D01*
X91005315Y-113793039D01*
X90952511Y-113838794D01*
X90901000Y-113850000D01*
X89899000Y-113850000D01*
X89831961Y-113830315D01*
X89786206Y-113777511D01*
X89775000Y-113726000D01*
X89775000Y-112024000D01*
X89794685Y-111956961D01*
X89847489Y-111911206D01*
X89899000Y-111900000D01*
X90901000Y-111900000D01*
X90968039Y-111919685D01*
G37*
M02*
